<?xml version="1.0" encoding="UTF-8" standalone="no"?> <svg width="113.594mm" height="70.2028mm"  viewBox="0 0 322 199"  xmlns="http://www.w3.org/2000/svg" xmlns:xlink="http://www.w3.org/1999/xlink"  version="1.2" baseProfile="tiny"> <title>Generated with ETE http://etetoolkit.org</title> <desc>Generated with ETE http://etetoolkit.org</desc> <defs> </defs> <g fill="none" stroke="black" stroke-width="1" fill-rule="evenodd" stroke-linecap="square" stroke-linejoin="bevel" >      <g fill="none" stroke="none" transform="matrix(1,0,0,1,0,-61)" font-family="MS Shell Dlg 2" font-size="14.25" font-weight="400" font-style="normal"  > <rect x="0" y="61" width="322" height="198"/> </g>      <g fill="none" stroke="none" transform="matrix(0,-1,1,0,1,197)" font-family="MS Shell Dlg 2" font-size="14.25" font-weight="400" font-style="normal"  > <rect x="0" y="0" width="196" height="320"/> </g>      <g fill="#2e3440" fill-opacity="1" stroke="#2e3440" stroke-opacity="1" stroke-width="1" stroke-linecap="square" stroke-linejoin="bevel" transform="matrix(0,-1,1,0,1,197)" font-family="MS Shell Dlg 2" font-size="14.25" font-weight="400" font-style="normal"  > <rect x="0" y="0" width="196" height="320"/> </g>      <g fill="#2e3440" fill-opacity="1" stroke="#2e3440" stroke-opacity="1" stroke-width="1" stroke-linecap="square" stroke-linejoin="bevel" transform="matrix(0,-1,1,0,1,197)" font-family="MS Shell Dlg 2" font-size="14.25" font-weight="400" font-style="normal"  > <rect x="0" y="0" width="196" height="320"/> </g>      <g fill="#2e3440" fill-opacity="1" stroke="#2e3440" stroke-opacity="1" stroke-width="1" stroke-linecap="square" stroke-linejoin="bevel" transform="matrix(0,-1,1,0,1,179)" font-family="MS Shell Dlg 2" font-size="14.25" font-weight="400" font-style="normal"  > <rect x="0" y="0" width="178" height="160"/> </g>      <g fill="#2e3440" fill-opacity="1" stroke="#2e3440" stroke-opacity="1" stroke-width="1" stroke-linecap="square" stroke-linejoin="bevel" transform="matrix(0,-1,1,0,1,125)" font-family="MS Shell Dlg 2" font-size="14.25" font-weight="400" font-style="normal"  > <rect x="0" y="0" width="124" height="160"/> </g>      <g fill="#2e3440" fill-opacity="1" stroke="#2e3440" stroke-opacity="1" stroke-width="1" stroke-linecap="square" stroke-linejoin="bevel" transform="matrix(0,-1,1,0,1,107)" font-family="MS Shell Dlg 2" font-size="14.25" font-weight="400" font-style="normal"  > <rect x="0" y="0" width="106" height="40"/> </g>      <g fill="#2e3440" fill-opacity="1" stroke="#2e3440" stroke-opacity="1" stroke-width="1" stroke-linecap="square" stroke-linejoin="bevel" transform="matrix(0,-1,1,0,1,89)" font-family="MS Shell Dlg 2" font-size="14.25" font-weight="400" font-style="normal"  > <rect x="0" y="0" width="88" height="20"/> </g>      <g fill="#2e3440" fill-opacity="1" stroke="#2e3440" stroke-opacity="1" stroke-width="1" stroke-linecap="square" stroke-linejoin="bevel" transform="matrix(0,-1,1,0,21,89)" font-family="MS Shell Dlg 2" font-size="14.25" font-weight="400" font-style="normal"  > <rect x="0" y="0" width="88" height="20"/> </g>      <g fill="#2e3440" fill-opacity="1" stroke="#2e3440" stroke-opacity="1" stroke-width="1" stroke-linecap="square" stroke-linejoin="bevel" transform="matrix(0,-1,1,0,41,107)" font-family="MS Shell Dlg 2" font-size="14.25" font-weight="400" font-style="normal"  > <rect x="0" y="0" width="106" height="120"/> </g>      <g fill="#2e3440" fill-opacity="1" stroke="#2e3440" stroke-opacity="1" stroke-width="1" stroke-linecap="square" stroke-linejoin="bevel" transform="matrix(0,-1,1,0,41,89)" font-family="MS Shell Dlg 2" font-size="14.25" font-weight="400" font-style="normal"  > <rect x="0" y="0" width="88" height="80"/> </g>      <g fill="#2e3440" fill-opacity="1" stroke="#2e3440" stroke-opacity="1" stroke-width="1" stroke-linecap="square" stroke-linejoin="bevel" transform="matrix(0,-1,1,0,41,71)" font-family="MS Shell Dlg 2" font-size="14.25" font-weight="400" font-style="normal"  > <rect x="0" y="0" width="70" height="60"/> </g>      <g fill="#2e3440" fill-opacity="1" stroke="#2e3440" stroke-opacity="1" stroke-width="1" stroke-linecap="square" stroke-linejoin="bevel" transform="matrix(0,-1,1,0,41,53)" font-family="MS Shell Dlg 2" font-size="14.25" font-weight="400" font-style="normal"  > <rect x="0" y="0" width="52" height="20"/> </g>      <g fill="#2e3440" fill-opacity="1" stroke="#2e3440" stroke-opacity="1" stroke-width="1" stroke-linecap="square" stroke-linejoin="bevel" transform="matrix(0,-1,1,0,61,53)" font-family="MS Shell Dlg 2" font-size="14.25" font-weight="400" font-style="normal"  > <rect x="0" y="0" width="52" height="40"/> </g>      <g fill="#2e3440" fill-opacity="1" stroke="#2e3440" stroke-opacity="1" stroke-width="1" stroke-linecap="square" stroke-linejoin="bevel" transform="matrix(0,-1,1,0,61,35)" font-family="MS Shell Dlg 2" font-size="14.25" font-weight="400" font-style="normal"  > <rect x="0" y="0" width="34" height="20"/> </g>      <g fill="#2e3440" fill-opacity="1" stroke="#2e3440" stroke-opacity="1" stroke-width="1" stroke-linecap="square" stroke-linejoin="bevel" transform="matrix(0,-1,1,0,81,35)" font-family="MS Shell Dlg 2" font-size="14.25" font-weight="400" font-style="normal"  > <rect x="0" y="0" width="34" height="20"/> </g>      <g fill="#2e3440" fill-opacity="1" stroke="#2e3440" stroke-opacity="1" stroke-width="1" stroke-linecap="square" stroke-linejoin="bevel" transform="matrix(0,-1,1,0,101,71)" font-family="MS Shell Dlg 2" font-size="14.25" font-weight="400" font-style="normal"  > <rect x="0" y="0" width="70" height="20"/> </g>      <g fill="#2e3440" fill-opacity="1" stroke="#2e3440" stroke-opacity="1" stroke-width="1" stroke-linecap="square" stroke-linejoin="bevel" transform="matrix(0,-1,1,0,121,89)" font-family="MS Shell Dlg 2" font-size="14.25" font-weight="400" font-style="normal"  > <rect x="0" y="0" width="88" height="40"/> </g>      <g fill="#2e3440" fill-opacity="1" stroke="#2e3440" stroke-opacity="1" stroke-width="1" stroke-linecap="square" stroke-linejoin="bevel" transform="matrix(0,-1,1,0,121,71)" font-family="MS Shell Dlg 2" font-size="14.25" font-weight="400" font-style="normal"  > <rect x="0" y="0" width="70" height="20"/> </g>      <g fill="#2e3440" fill-opacity="1" stroke="#2e3440" stroke-opacity="1" stroke-width="1" stroke-linecap="square" stroke-linejoin="bevel" transform="matrix(0,-1,1,0,141,71)" font-family="MS Shell Dlg 2" font-size="14.25" font-weight="400" font-style="normal"  > <rect x="0" y="0" width="70" height="20"/> </g>      <g fill="#2e3440" fill-opacity="1" stroke="#2e3440" stroke-opacity="1" stroke-width="1" stroke-linecap="square" stroke-linejoin="bevel" transform="matrix(0,-1,1,0,161,179)" font-family="MS Shell Dlg 2" font-size="14.25" font-weight="400" font-style="normal"  > <rect x="0" y="0" width="178" height="160"/> </g>      <g fill="#2e3440" fill-opacity="1" stroke="#2e3440" stroke-opacity="1" stroke-width="1" stroke-linecap="square" stroke-linejoin="bevel" transform="matrix(0,-1,1,0,161,143)" font-family="MS Shell Dlg 2" font-size="14.25" font-weight="400" font-style="normal"  > <rect x="0" y="0" width="142" height="160"/> </g>      <g fill="#2e3440" fill-opacity="1" stroke="#2e3440" stroke-opacity="1" stroke-width="1" stroke-linecap="square" stroke-linejoin="bevel" transform="matrix(0,-1,1,0,161,125)" font-family="MS Shell Dlg 2" font-size="14.25" font-weight="400" font-style="normal"  > <rect x="0" y="0" width="124" height="60"/> </g>      <g fill="#2e3440" fill-opacity="1" stroke="#2e3440" stroke-opacity="1" stroke-width="1" stroke-linecap="square" stroke-linejoin="bevel" transform="matrix(0,-1,1,0,161,107)" font-family="MS Shell Dlg 2" font-size="14.25" font-weight="400" font-style="normal"  > <rect x="0" y="0" width="106" height="20"/> </g>      <g fill="#2e3440" fill-opacity="1" stroke="#2e3440" stroke-opacity="1" stroke-width="1" stroke-linecap="square" stroke-linejoin="bevel" transform="matrix(0,-1,1,0,181,107)" font-family="MS Shell Dlg 2" font-size="14.25" font-weight="400" font-style="normal"  > <rect x="0" y="0" width="106" height="40"/> </g>      <g fill="#2e3440" fill-opacity="1" stroke="#2e3440" stroke-opacity="1" stroke-width="1" stroke-linecap="square" stroke-linejoin="bevel" transform="matrix(0,-1,1,0,181,89)" font-family="MS Shell Dlg 2" font-size="14.25" font-weight="400" font-style="normal"  > <rect x="0" y="0" width="88" height="20"/> </g>      <g fill="#2e3440" fill-opacity="1" stroke="#2e3440" stroke-opacity="1" stroke-width="1" stroke-linecap="square" stroke-linejoin="bevel" transform="matrix(0,-1,1,0,201,89)" font-family="MS Shell Dlg 2" font-size="14.25" font-weight="400" font-style="normal"  > <rect x="0" y="0" width="88" height="20"/> </g>      <g fill="#2e3440" fill-opacity="1" stroke="#2e3440" stroke-opacity="1" stroke-width="1" stroke-linecap="square" stroke-linejoin="bevel" transform="matrix(0,-1,1,0,221,125)" font-family="MS Shell Dlg 2" font-size="14.25" font-weight="400" font-style="normal"  > <rect x="0" y="0" width="124" height="100"/> </g>      <g fill="#2e3440" fill-opacity="1" stroke="#2e3440" stroke-opacity="1" stroke-width="1" stroke-linecap="square" stroke-linejoin="bevel" transform="matrix(0,-1,1,0,221,107)" font-family="MS Shell Dlg 2" font-size="14.25" font-weight="400" font-style="normal"  > <rect x="0" y="0" width="106" height="60"/> </g>      <g fill="#2e3440" fill-opacity="1" stroke="#2e3440" stroke-opacity="1" stroke-width="1" stroke-linecap="square" stroke-linejoin="bevel" transform="matrix(0,-1,1,0,221,89)" font-family="MS Shell Dlg 2" font-size="14.25" font-weight="400" font-style="normal"  > <rect x="0" y="0" width="88" height="40"/> </g>      <g fill="#2e3440" fill-opacity="1" stroke="#2e3440" stroke-opacity="1" stroke-width="1" stroke-linecap="square" stroke-linejoin="bevel" transform="matrix(0,-1,1,0,221,71)" font-family="MS Shell Dlg 2" font-size="14.25" font-weight="400" font-style="normal"  > <rect x="0" y="0" width="70" height="20"/> </g>      <g fill="#2e3440" fill-opacity="1" stroke="#2e3440" stroke-opacity="1" stroke-width="1" stroke-linecap="square" stroke-linejoin="bevel" transform="matrix(0,-1,1,0,241,71)" font-family="MS Shell Dlg 2" font-size="14.25" font-weight="400" font-style="normal"  > <rect x="0" y="0" width="70" height="20"/> </g>      <g fill="#2e3440" fill-opacity="1" stroke="#2e3440" stroke-opacity="1" stroke-width="1" stroke-linecap="square" stroke-linejoin="bevel" transform="matrix(0,-1,1,0,261,89)" font-family="MS Shell Dlg 2" font-size="14.25" font-weight="400" font-style="normal"  > <rect x="0" y="0" width="88" height="20"/> </g>      <g fill="#2e3440" fill-opacity="1" stroke="#2e3440" stroke-opacity="1" stroke-width="1" stroke-linecap="square" stroke-linejoin="bevel" transform="matrix(0,-1,1,0,281,107)" font-family="MS Shell Dlg 2" font-size="14.25" font-weight="400" font-style="normal"  > <rect x="0" y="0" width="106" height="40"/> </g>      <g fill="#2e3440" fill-opacity="1" stroke="#2e3440" stroke-opacity="1" stroke-width="1" stroke-linecap="square" stroke-linejoin="bevel" transform="matrix(0,-1,1,0,281,89)" font-family="MS Shell Dlg 2" font-size="14.25" font-weight="400" font-style="normal"  > <rect x="0" y="0" width="88" height="20"/> </g>      <g fill="#2e3440" fill-opacity="1" stroke="#2e3440" stroke-opacity="1" stroke-width="1" stroke-linecap="square" stroke-linejoin="bevel" transform="matrix(0,-1,1,0,301,89)" font-family="MS Shell Dlg 2" font-size="14.25" font-weight="400" font-style="normal"  > <rect x="0" y="0" width="88" height="20"/> </g>                                                                                                                                              <g fill="none" stroke="#ffffff" stroke-opacity="1" stroke-width="4" stroke-linecap="butt" stroke-linejoin="bevel" transform="matrix(0,-1,1,0,1,197)" font-family="MS Shell Dlg 2" font-size="14.25" font-weight="400" font-style="normal"  > <polyline fill="none" vector-effect="none" points="0,147.063 0,151.063 " /> </g>                              <g fill="none" stroke="#ffffff" stroke-opacity="1" stroke-width="4" stroke-linecap="butt" stroke-linejoin="bevel" transform="matrix(0,-1,1,0,1,197)" font-family="MS Shell Dlg 2" font-size="14.25" font-weight="400" font-style="normal"  > <polyline fill="none" vector-effect="none" points="16,64.875 16,233.25 " /> </g>      <g fill="none" stroke="#808080" stroke-opacity="1" stroke-dasharray="4,8" stroke-dashoffset="0" stroke-width="4" stroke-linecap="butt" stroke-linejoin="bevel" transform="matrix(0,-1,1,0,1,197)" font-family="MS Shell Dlg 2" font-size="14.25" font-weight="400" font-style="normal"  > <polyline fill="none" vector-effect="none" points="18,149.063 14,149.063 " /> </g>      <g fill="none" stroke="#ffffff" stroke-opacity="1" stroke-width="4" stroke-linecap="butt" stroke-linejoin="bevel" transform="matrix(0,-1,1,0,1,197)" font-family="MS Shell Dlg 2" font-size="14.25" font-weight="400" font-style="normal"  > <polyline fill="none" vector-effect="none" points="0,149.063 18,149.063 " /> </g>                  <g fill="none" stroke="#ffffff" stroke-opacity="1" stroke-width="4" stroke-linecap="butt" stroke-linejoin="bevel" transform="matrix(0,-1,1,0,1,179)" font-family="MS Shell Dlg 2" font-size="14.25" font-weight="400" font-style="normal"  > <polyline fill="none" vector-effect="none" points="54,64.875 54,68.875 " /> </g>            <g fill="none" stroke="#ffffff" stroke-opacity="1" stroke-width="4" stroke-linecap="butt" stroke-linejoin="bevel" transform="matrix(0,-1,1,0,1,179)" font-family="MS Shell Dlg 2" font-size="14.25" font-weight="400" font-style="normal"  > <polyline fill="none" vector-effect="none" points="0,66.875 54,66.875 " /> </g>                  <g fill="none" stroke="#ffffff" stroke-opacity="1" stroke-width="4" stroke-linecap="butt" stroke-linejoin="bevel" transform="matrix(0,-1,1,0,1,125)" font-family="MS Shell Dlg 2" font-size="14.25" font-weight="400" font-style="normal"  > <polyline fill="none" vector-effect="none" points="16,18 16,115.75 " /> </g>      <g fill="none" stroke="#808080" stroke-opacity="1" stroke-dasharray="4,8" stroke-dashoffset="0" stroke-width="4" stroke-linecap="butt" stroke-linejoin="bevel" transform="matrix(0,-1,1,0,1,125)" font-family="MS Shell Dlg 2" font-size="14.25" font-weight="400" font-style="normal"  > <polyline fill="none" vector-effect="none" points="18,66.875 14,66.875 " /> </g>      <g fill="none" stroke="#ffffff" stroke-opacity="1" stroke-width="4" stroke-linecap="butt" stroke-linejoin="bevel" transform="matrix(0,-1,1,0,1,125)" font-family="MS Shell Dlg 2" font-size="14.25" font-weight="400" font-style="normal"  > <polyline fill="none" vector-effect="none" points="0,66.875 18,66.875 " /> </g>                  <g fill="none" stroke="#ffffff" stroke-opacity="1" stroke-width="4" stroke-linecap="butt" stroke-linejoin="bevel" transform="matrix(0,-1,1,0,1,107)" font-family="MS Shell Dlg 2" font-size="14.25" font-weight="400" font-style="normal"  > <polyline fill="none" vector-effect="none" points="16,8 16,32 " /> </g>      <g fill="none" stroke="#808080" stroke-opacity="1" stroke-dasharray="4,8" stroke-dashoffset="0" stroke-width="4" stroke-linecap="butt" stroke-linejoin="bevel" transform="matrix(0,-1,1,0,1,107)" font-family="MS Shell Dlg 2" font-size="14.25" font-weight="400" font-style="normal"  > <polyline fill="none" vector-effect="none" points="18,20 14,20 " /> </g>      <g fill="none" stroke="#ffffff" stroke-opacity="1" stroke-width="4" stroke-linecap="butt" stroke-linejoin="bevel" transform="matrix(0,-1,1,0,1,107)" font-family="MS Shell Dlg 2" font-size="14.25" font-weight="400" font-style="normal"  > <polyline fill="none" vector-effect="none" points="0,20 18,20 " /> </g>                        <g fill="none" stroke="#ffffff" stroke-opacity="1" stroke-width="4" stroke-linecap="butt" stroke-linejoin="bevel" transform="matrix(0,-1,1,0,1,89)" font-family="MS Shell Dlg 2" font-size="14.25" font-weight="400" font-style="normal"  > <polyline fill="none" vector-effect="none" points="0,10 72,10 " /> </g>          <g fill="none" stroke="#0000ff" stroke-opacity="1" stroke-width="1" stroke-linecap="square" stroke-linejoin="bevel" transform="matrix(1,0,0,1,6.5,1)" font-family="Verdana" font-size="10pt" font-weight="400" font-style="normal"  > <text fill="#0000ff" fill-opacity="1" stroke="none" xml:space="preserve" x="0" y="13" font-family="Verdana" font-size="10pt" font-weight="400" font-style="normal"   >X</text> </g>                    <g fill="none" stroke="#ffffff" stroke-opacity="1" stroke-width="4" stroke-linecap="butt" stroke-linejoin="bevel" transform="matrix(0,-1,1,0,21,89)" font-family="MS Shell Dlg 2" font-size="14.25" font-weight="400" font-style="normal"  > <polyline fill="none" vector-effect="none" points="0,10 72,10 " /> </g>          <g fill="none" stroke="#0000ff" stroke-opacity="1" stroke-width="1" stroke-linecap="square" stroke-linejoin="bevel" transform="matrix(1,0,0,1,26.5,1)" font-family="Verdana" font-size="10pt" font-weight="400" font-style="normal"  > <text fill="#0000ff" fill-opacity="1" stroke="none" xml:space="preserve" x="0" y="13" font-family="Verdana" font-size="10pt" font-weight="400" font-style="normal"   >X</text> </g>              <g fill="none" stroke="#ffffff" stroke-opacity="1" stroke-width="4" stroke-linecap="butt" stroke-linejoin="bevel" transform="matrix(0,-1,1,0,41,107)" font-family="MS Shell Dlg 2" font-size="14.25" font-weight="400" font-style="normal"  > <polyline fill="none" vector-effect="none" points="16,45.5 16,102 " /> </g>      <g fill="none" stroke="#808080" stroke-opacity="1" stroke-dasharray="4,8" stroke-dashoffset="0" stroke-width="4" stroke-linecap="butt" stroke-linejoin="bevel" transform="matrix(0,-1,1,0,41,107)" font-family="MS Shell Dlg 2" font-size="14.25" font-weight="400" font-style="normal"  > <polyline fill="none" vector-effect="none" points="18,73.75 14,73.75 " /> </g>      <g fill="none" stroke="#ffffff" stroke-opacity="1" stroke-width="4" stroke-linecap="butt" stroke-linejoin="bevel" transform="matrix(0,-1,1,0,41,107)" font-family="MS Shell Dlg 2" font-size="14.25" font-weight="400" font-style="normal"  > <polyline fill="none" vector-effect="none" points="0,73.75 18,73.75 " /> </g>                  <g fill="none" stroke="#ffffff" stroke-opacity="1" stroke-width="4" stroke-linecap="butt" stroke-linejoin="bevel" transform="matrix(0,-1,1,0,41,89)" font-family="MS Shell Dlg 2" font-size="14.25" font-weight="400" font-style="normal"  > <polyline fill="none" vector-effect="none" points="16,23 16,72 " /> </g>      <g fill="none" stroke="#808080" stroke-opacity="1" stroke-dasharray="4,8" stroke-dashoffset="0" stroke-width="4" stroke-linecap="butt" stroke-linejoin="bevel" transform="matrix(0,-1,1,0,41,89)" font-family="MS Shell Dlg 2" font-size="14.25" font-weight="400" font-style="normal"  > <polyline fill="none" vector-effect="none" points="18,47.5 14,47.5 " /> </g>      <g fill="none" stroke="#ffffff" stroke-opacity="1" stroke-width="4" stroke-linecap="butt" stroke-linejoin="bevel" transform="matrix(0,-1,1,0,41,89)" font-family="MS Shell Dlg 2" font-size="14.25" font-weight="400" font-style="normal"  > <polyline fill="none" vector-effect="none" points="0,47.5 18,47.5 " /> </g>                  <g fill="none" stroke="#ffffff" stroke-opacity="1" stroke-width="4" stroke-linecap="butt" stroke-linejoin="bevel" transform="matrix(0,-1,1,0,41,71)" font-family="MS Shell Dlg 2" font-size="14.25" font-weight="400" font-style="normal"  > <polyline fill="none" vector-effect="none" points="16,8 16,42 " /> </g>      <g fill="none" stroke="#808080" stroke-opacity="1" stroke-dasharray="4,8" stroke-dashoffset="0" stroke-width="4" stroke-linecap="butt" stroke-linejoin="bevel" transform="matrix(0,-1,1,0,41,71)" font-family="MS Shell Dlg 2" font-size="14.25" font-weight="400" font-style="normal"  > <polyline fill="none" vector-effect="none" points="18,25 14,25 " /> </g>      <g fill="none" stroke="#ffffff" stroke-opacity="1" stroke-width="4" stroke-linecap="butt" stroke-linejoin="bevel" transform="matrix(0,-1,1,0,41,71)" font-family="MS Shell Dlg 2" font-size="14.25" font-weight="400" font-style="normal"  > <polyline fill="none" vector-effect="none" points="0,25 18,25 " /> </g>                        <g fill="none" stroke="#ffffff" stroke-opacity="1" stroke-width="4" stroke-linecap="butt" stroke-linejoin="bevel" transform="matrix(0,-1,1,0,41,53)" font-family="MS Shell Dlg 2" font-size="14.25" font-weight="400" font-style="normal"  > <polyline fill="none" vector-effect="none" points="0,10 36,10 " /> </g>          <g fill="none" stroke="#0000ff" stroke-opacity="1" stroke-width="1" stroke-linecap="square" stroke-linejoin="bevel" transform="matrix(1,0,0,1,46.5,1)" font-family="Verdana" font-size="10pt" font-weight="400" font-style="normal"  > <text fill="#0000ff" fill-opacity="1" stroke="none" xml:space="preserve" x="0" y="13" font-family="Verdana" font-size="10pt" font-weight="400" font-style="normal"   >X</text> </g>              <g fill="none" stroke="#ffffff" stroke-opacity="1" stroke-width="4" stroke-linecap="butt" stroke-linejoin="bevel" transform="matrix(0,-1,1,0,61,53)" font-family="MS Shell Dlg 2" font-size="14.25" font-weight="400" font-style="normal"  > <polyline fill="none" vector-effect="none" points="16,8 16,32 " /> </g>      <g fill="none" stroke="#808080" stroke-opacity="1" stroke-dasharray="4,8" stroke-dashoffset="0" stroke-width="4" stroke-linecap="butt" stroke-linejoin="bevel" transform="matrix(0,-1,1,0,61,53)" font-family="MS Shell Dlg 2" font-size="14.25" font-weight="400" font-style="normal"  > <polyline fill="none" vector-effect="none" points="18,20 14,20 " /> </g>      <g fill="none" stroke="#ffffff" stroke-opacity="1" stroke-width="4" stroke-linecap="butt" stroke-linejoin="bevel" transform="matrix(0,-1,1,0,61,53)" font-family="MS Shell Dlg 2" font-size="14.25" font-weight="400" font-style="normal"  > <polyline fill="none" vector-effect="none" points="0,20 18,20 " /> </g>                        <g fill="none" stroke="#ffffff" stroke-opacity="1" stroke-width="4" stroke-linecap="butt" stroke-linejoin="bevel" transform="matrix(0,-1,1,0,61,35)" font-family="MS Shell Dlg 2" font-size="14.25" font-weight="400" font-style="normal"  > <polyline fill="none" vector-effect="none" points="0,10 18,10 " /> </g>          <g fill="none" stroke="#0000ff" stroke-opacity="1" stroke-width="1" stroke-linecap="square" stroke-linejoin="bevel" transform="matrix(1,0,0,1,66.5,1)" font-family="Verdana" font-size="10pt" font-weight="400" font-style="normal"  > <text fill="#0000ff" fill-opacity="1" stroke="none" xml:space="preserve" x="0" y="13" font-family="Verdana" font-size="10pt" font-weight="400" font-style="normal"   >X</text> </g>                    <g fill="none" stroke="#ffffff" stroke-opacity="1" stroke-width="4" stroke-linecap="butt" stroke-linejoin="bevel" transform="matrix(0,-1,1,0,81,35)" font-family="MS Shell Dlg 2" font-size="14.25" font-weight="400" font-style="normal"  > <polyline fill="none" vector-effect="none" points="0,10 18,10 " /> </g>          <g fill="none" stroke="#0000ff" stroke-opacity="1" stroke-width="1" stroke-linecap="square" stroke-linejoin="bevel" transform="matrix(1,0,0,1,86.5,1)" font-family="Verdana" font-size="10pt" font-weight="400" font-style="normal"  > <text fill="#0000ff" fill-opacity="1" stroke="none" xml:space="preserve" x="0" y="13" font-family="Verdana" font-size="10pt" font-weight="400" font-style="normal"   >X</text> </g>                    <g fill="none" stroke="#ffffff" stroke-opacity="1" stroke-width="4" stroke-linecap="butt" stroke-linejoin="bevel" transform="matrix(0,-1,1,0,101,71)" font-family="MS Shell Dlg 2" font-size="14.25" font-weight="400" font-style="normal"  > <polyline fill="none" vector-effect="none" points="0,10 54,10 " /> </g>          <g fill="none" stroke="#0000ff" stroke-opacity="1" stroke-width="1" stroke-linecap="square" stroke-linejoin="bevel" transform="matrix(1,0,0,1,106.5,1)" font-family="Verdana" font-size="10pt" font-weight="400" font-style="normal"  > <text fill="#0000ff" fill-opacity="1" stroke="none" xml:space="preserve" x="0" y="13" font-family="Verdana" font-size="10pt" font-weight="400" font-style="normal"   >X</text> </g>              <g fill="none" stroke="#ffffff" stroke-opacity="1" stroke-width="4" stroke-linecap="butt" stroke-linejoin="bevel" transform="matrix(0,-1,1,0,121,89)" font-family="MS Shell Dlg 2" font-size="14.25" font-weight="400" font-style="normal"  > <polyline fill="none" vector-effect="none" points="16,8 16,32 " /> </g>      <g fill="none" stroke="#808080" stroke-opacity="1" stroke-dasharray="4,8" stroke-dashoffset="0" stroke-width="4" stroke-linecap="butt" stroke-linejoin="bevel" transform="matrix(0,-1,1,0,121,89)" font-family="MS Shell Dlg 2" font-size="14.25" font-weight="400" font-style="normal"  > <polyline fill="none" vector-effect="none" points="18,20 14,20 " /> </g>      <g fill="none" stroke="#ffffff" stroke-opacity="1" stroke-width="4" stroke-linecap="butt" stroke-linejoin="bevel" transform="matrix(0,-1,1,0,121,89)" font-family="MS Shell Dlg 2" font-size="14.25" font-weight="400" font-style="normal"  > <polyline fill="none" vector-effect="none" points="0,20 18,20 " /> </g>                        <g fill="none" stroke="#ffffff" stroke-opacity="1" stroke-width="4" stroke-linecap="butt" stroke-linejoin="bevel" transform="matrix(0,-1,1,0,121,71)" font-family="MS Shell Dlg 2" font-size="14.25" font-weight="400" font-style="normal"  > <polyline fill="none" vector-effect="none" points="0,10 54,10 " /> </g>          <g fill="none" stroke="#0000ff" stroke-opacity="1" stroke-width="1" stroke-linecap="square" stroke-linejoin="bevel" transform="matrix(1,0,0,1,126.5,1)" font-family="Verdana" font-size="10pt" font-weight="400" font-style="normal"  > <text fill="#0000ff" fill-opacity="1" stroke="none" xml:space="preserve" x="0" y="13" font-family="Verdana" font-size="10pt" font-weight="400" font-style="normal"   >X</text> </g>                    <g fill="none" stroke="#ffffff" stroke-opacity="1" stroke-width="4" stroke-linecap="butt" stroke-linejoin="bevel" transform="matrix(0,-1,1,0,141,71)" font-family="MS Shell Dlg 2" font-size="14.25" font-weight="400" font-style="normal"  > <polyline fill="none" vector-effect="none" points="0,10 54,10 " /> </g>          <g fill="none" stroke="#0000ff" stroke-opacity="1" stroke-width="1" stroke-linecap="square" stroke-linejoin="bevel" transform="matrix(1,0,0,1,146.5,1)" font-family="Verdana" font-size="10pt" font-weight="400" font-style="normal"  > <text fill="#0000ff" fill-opacity="1" stroke="none" xml:space="preserve" x="0" y="13" font-family="Verdana" font-size="10pt" font-weight="400" font-style="normal"   >X</text> </g>              <g fill="none" stroke="#ffffff" stroke-opacity="1" stroke-width="4" stroke-linecap="butt" stroke-linejoin="bevel" transform="matrix(0,-1,1,0,161,179)" font-family="MS Shell Dlg 2" font-size="14.25" font-weight="400" font-style="normal"  > <polyline fill="none" vector-effect="none" points="36,69.25 36,73.25 " /> </g>            <g fill="none" stroke="#ffffff" stroke-opacity="1" stroke-width="4" stroke-linecap="butt" stroke-linejoin="bevel" transform="matrix(0,-1,1,0,161,179)" font-family="MS Shell Dlg 2" font-size="14.25" font-weight="400" font-style="normal"  > <polyline fill="none" vector-effect="none" points="0,71.25 36,71.25 " /> </g>                  <g fill="none" stroke="#ffffff" stroke-opacity="1" stroke-width="4" stroke-linecap="butt" stroke-linejoin="bevel" transform="matrix(0,-1,1,0,161,143)" font-family="MS Shell Dlg 2" font-size="14.25" font-weight="400" font-style="normal"  > <polyline fill="none" vector-effect="none" points="16,23 16,119.5 " /> </g>      <g fill="none" stroke="#808080" stroke-opacity="1" stroke-dasharray="4,8" stroke-dashoffset="0" stroke-width="4" stroke-linecap="butt" stroke-linejoin="bevel" transform="matrix(0,-1,1,0,161,143)" font-family="MS Shell Dlg 2" font-size="14.25" font-weight="400" font-style="normal"  > <polyline fill="none" vector-effect="none" points="18,71.25 14,71.25 " /> </g>      <g fill="none" stroke="#ffffff" stroke-opacity="1" stroke-width="4" stroke-linecap="butt" stroke-linejoin="bevel" transform="matrix(0,-1,1,0,161,143)" font-family="MS Shell Dlg 2" font-size="14.25" font-weight="400" font-style="normal"  > <polyline fill="none" vector-effect="none" points="0,71.25 18,71.25 " /> </g>                  <g fill="none" stroke="#ffffff" stroke-opacity="1" stroke-width="4" stroke-linecap="butt" stroke-linejoin="bevel" transform="matrix(0,-1,1,0,161,125)" font-family="MS Shell Dlg 2" font-size="14.25" font-weight="400" font-style="normal"  > <polyline fill="none" vector-effect="none" points="16,8 16,42 " /> </g>      <g fill="none" stroke="#808080" stroke-opacity="1" stroke-dasharray="4,8" stroke-dashoffset="0" stroke-width="4" stroke-linecap="butt" stroke-linejoin="bevel" transform="matrix(0,-1,1,0,161,125)" font-family="MS Shell Dlg 2" font-size="14.25" font-weight="400" font-style="normal"  > <polyline fill="none" vector-effect="none" points="18,25 14,25 " /> </g>      <g fill="none" stroke="#ffffff" stroke-opacity="1" stroke-width="4" stroke-linecap="butt" stroke-linejoin="bevel" transform="matrix(0,-1,1,0,161,125)" font-family="MS Shell Dlg 2" font-size="14.25" font-weight="400" font-style="normal"  > <polyline fill="none" vector-effect="none" points="0,25 18,25 " /> </g>                        <g fill="none" stroke="#ffffff" stroke-opacity="1" stroke-width="4" stroke-linecap="butt" stroke-linejoin="bevel" transform="matrix(0,-1,1,0,161,107)" font-family="MS Shell Dlg 2" font-size="14.25" font-weight="400" font-style="normal"  > <polyline fill="none" vector-effect="none" points="0,10 90,10 " /> </g>          <g fill="none" stroke="#ff0000" stroke-opacity="1" stroke-width="1" stroke-linecap="square" stroke-linejoin="bevel" transform="matrix(1,0,0,1,166.5,1)" font-family="Verdana" font-size="10pt" font-weight="400" font-style="normal"  > <text fill="#ff0000" fill-opacity="1" stroke="none" xml:space="preserve" x="0" y="13" font-family="Verdana" font-size="10pt" font-weight="400" font-style="normal"   >Y</text> </g>              <g fill="none" stroke="#ffffff" stroke-opacity="1" stroke-width="4" stroke-linecap="butt" stroke-linejoin="bevel" transform="matrix(0,-1,1,0,181,107)" font-family="MS Shell Dlg 2" font-size="14.25" font-weight="400" font-style="normal"  > <polyline fill="none" vector-effect="none" points="16,8 16,32 " /> </g>      <g fill="none" stroke="#808080" stroke-opacity="1" stroke-dasharray="4,8" stroke-dashoffset="0" stroke-width="4" stroke-linecap="butt" stroke-linejoin="bevel" transform="matrix(0,-1,1,0,181,107)" font-family="MS Shell Dlg 2" font-size="14.25" font-weight="400" font-style="normal"  > <polyline fill="none" vector-effect="none" points="18,20 14,20 " /> </g>      <g fill="none" stroke="#ffffff" stroke-opacity="1" stroke-width="4" stroke-linecap="butt" stroke-linejoin="bevel" transform="matrix(0,-1,1,0,181,107)" font-family="MS Shell Dlg 2" font-size="14.25" font-weight="400" font-style="normal"  > <polyline fill="none" vector-effect="none" points="0,20 18,20 " /> </g>                        <g fill="none" stroke="#ffffff" stroke-opacity="1" stroke-width="4" stroke-linecap="butt" stroke-linejoin="bevel" transform="matrix(0,-1,1,0,181,89)" font-family="MS Shell Dlg 2" font-size="14.25" font-weight="400" font-style="normal"  > <polyline fill="none" vector-effect="none" points="0,10 72,10 " /> </g>          <g fill="none" stroke="#ff0000" stroke-opacity="1" stroke-width="1" stroke-linecap="square" stroke-linejoin="bevel" transform="matrix(1,0,0,1,186.5,1)" font-family="Verdana" font-size="10pt" font-weight="400" font-style="normal"  > <text fill="#ff0000" fill-opacity="1" stroke="none" xml:space="preserve" x="0" y="13" font-family="Verdana" font-size="10pt" font-weight="400" font-style="normal"   >Y</text> </g>                    <g fill="none" stroke="#ffffff" stroke-opacity="1" stroke-width="4" stroke-linecap="butt" stroke-linejoin="bevel" transform="matrix(0,-1,1,0,201,89)" font-family="MS Shell Dlg 2" font-size="14.25" font-weight="400" font-style="normal"  > <polyline fill="none" vector-effect="none" points="0,10 72,10 " /> </g>          <g fill="none" stroke="#ff0000" stroke-opacity="1" stroke-width="1" stroke-linecap="square" stroke-linejoin="bevel" transform="matrix(1,0,0,1,206.5,1)" font-family="Verdana" font-size="10pt" font-weight="400" font-style="normal"  > <text fill="#ff0000" fill-opacity="1" stroke="none" xml:space="preserve" x="0" y="13" font-family="Verdana" font-size="10pt" font-weight="400" font-style="normal"   >Y</text> </g>              <g fill="none" stroke="#ffffff" stroke-opacity="1" stroke-width="4" stroke-linecap="butt" stroke-linejoin="bevel" transform="matrix(0,-1,1,0,221,125)" font-family="MS Shell Dlg 2" font-size="14.25" font-weight="400" font-style="normal"  > <polyline fill="none" vector-effect="none" points="16,33 16,82 " /> </g>      <g fill="none" stroke="#808080" stroke-opacity="1" stroke-dasharray="4,8" stroke-dashoffset="0" stroke-width="4" stroke-linecap="butt" stroke-linejoin="bevel" transform="matrix(0,-1,1,0,221,125)" font-family="MS Shell Dlg 2" font-size="14.25" font-weight="400" font-style="normal"  > <polyline fill="none" vector-effect="none" points="18,57.5 14,57.5 " /> </g>      <g fill="none" stroke="#ffffff" stroke-opacity="1" stroke-width="4" stroke-linecap="butt" stroke-linejoin="bevel" transform="matrix(0,-1,1,0,221,125)" font-family="MS Shell Dlg 2" font-size="14.25" font-weight="400" font-style="normal"  > <polyline fill="none" vector-effect="none" points="0,57.5 18,57.5 " /> </g>                  <g fill="none" stroke="#ffffff" stroke-opacity="1" stroke-width="4" stroke-linecap="butt" stroke-linejoin="bevel" transform="matrix(0,-1,1,0,221,107)" font-family="MS Shell Dlg 2" font-size="14.25" font-weight="400" font-style="normal"  > <polyline fill="none" vector-effect="none" points="16,18 16,52 " /> </g>      <g fill="none" stroke="#808080" stroke-opacity="1" stroke-dasharray="4,8" stroke-dashoffset="0" stroke-width="4" stroke-linecap="butt" stroke-linejoin="bevel" transform="matrix(0,-1,1,0,221,107)" font-family="MS Shell Dlg 2" font-size="14.25" font-weight="400" font-style="normal"  > <polyline fill="none" vector-effect="none" points="18,35 14,35 " /> </g>      <g fill="none" stroke="#ffffff" stroke-opacity="1" stroke-width="4" stroke-linecap="butt" stroke-linejoin="bevel" transform="matrix(0,-1,1,0,221,107)" font-family="MS Shell Dlg 2" font-size="14.25" font-weight="400" font-style="normal"  > <polyline fill="none" vector-effect="none" points="0,35 18,35 " /> </g>                  <g fill="none" stroke="#ffffff" stroke-opacity="1" stroke-width="4" stroke-linecap="butt" stroke-linejoin="bevel" transform="matrix(0,-1,1,0,221,89)" font-family="MS Shell Dlg 2" font-size="14.25" font-weight="400" font-style="normal"  > <polyline fill="none" vector-effect="none" points="16,8 16,32 " /> </g>      <g fill="none" stroke="#808080" stroke-opacity="1" stroke-dasharray="4,8" stroke-dashoffset="0" stroke-width="4" stroke-linecap="butt" stroke-linejoin="bevel" transform="matrix(0,-1,1,0,221,89)" font-family="MS Shell Dlg 2" font-size="14.25" font-weight="400" font-style="normal"  > <polyline fill="none" vector-effect="none" points="18,20 14,20 " /> </g>      <g fill="none" stroke="#ffffff" stroke-opacity="1" stroke-width="4" stroke-linecap="butt" stroke-linejoin="bevel" transform="matrix(0,-1,1,0,221,89)" font-family="MS Shell Dlg 2" font-size="14.25" font-weight="400" font-style="normal"  > <polyline fill="none" vector-effect="none" points="0,20 18,20 " /> </g>                        <g fill="none" stroke="#ffffff" stroke-opacity="1" stroke-width="4" stroke-linecap="butt" stroke-linejoin="bevel" transform="matrix(0,-1,1,0,221,71)" font-family="MS Shell Dlg 2" font-size="14.25" font-weight="400" font-style="normal"  > <polyline fill="none" vector-effect="none" points="0,10 54,10 " /> </g>          <g fill="none" stroke="#ff0000" stroke-opacity="1" stroke-width="1" stroke-linecap="square" stroke-linejoin="bevel" transform="matrix(1,0,0,1,226.5,1)" font-family="Verdana" font-size="10pt" font-weight="400" font-style="normal"  > <text fill="#ff0000" fill-opacity="1" stroke="none" xml:space="preserve" x="0" y="13" font-family="Verdana" font-size="10pt" font-weight="400" font-style="normal"   >Y</text> </g>                    <g fill="none" stroke="#ffffff" stroke-opacity="1" stroke-width="4" stroke-linecap="butt" stroke-linejoin="bevel" transform="matrix(0,-1,1,0,241,71)" font-family="MS Shell Dlg 2" font-size="14.25" font-weight="400" font-style="normal"  > <polyline fill="none" vector-effect="none" points="0,10 54,10 " /> </g>          <g fill="none" stroke="#ff0000" stroke-opacity="1" stroke-width="1" stroke-linecap="square" stroke-linejoin="bevel" transform="matrix(1,0,0,1,246.5,1)" font-family="Verdana" font-size="10pt" font-weight="400" font-style="normal"  > <text fill="#ff0000" fill-opacity="1" stroke="none" xml:space="preserve" x="0" y="13" font-family="Verdana" font-size="10pt" font-weight="400" font-style="normal"   >Y</text> </g>                    <g fill="none" stroke="#ffffff" stroke-opacity="1" stroke-width="4" stroke-linecap="butt" stroke-linejoin="bevel" transform="matrix(0,-1,1,0,261,89)" font-family="MS Shell Dlg 2" font-size="14.25" font-weight="400" font-style="normal"  > <polyline fill="none" vector-effect="none" points="0,10 72,10 " /> </g>          <g fill="none" stroke="#ff0000" stroke-opacity="1" stroke-width="1" stroke-linecap="square" stroke-linejoin="bevel" transform="matrix(1,0,0,1,266.5,1)" font-family="Verdana" font-size="10pt" font-weight="400" font-style="normal"  > <text fill="#ff0000" fill-opacity="1" stroke="none" xml:space="preserve" x="0" y="13" font-family="Verdana" font-size="10pt" font-weight="400" font-style="normal"   >Y</text> </g>              <g fill="none" stroke="#ffffff" stroke-opacity="1" stroke-width="4" stroke-linecap="butt" stroke-linejoin="bevel" transform="matrix(0,-1,1,0,281,107)" font-family="MS Shell Dlg 2" font-size="14.25" font-weight="400" font-style="normal"  > <polyline fill="none" vector-effect="none" points="16,8 16,32 " /> </g>      <g fill="none" stroke="#808080" stroke-opacity="1" stroke-dasharray="4,8" stroke-dashoffset="0" stroke-width="4" stroke-linecap="butt" stroke-linejoin="bevel" transform="matrix(0,-1,1,0,281,107)" font-family="MS Shell Dlg 2" font-size="14.25" font-weight="400" font-style="normal"  > <polyline fill="none" vector-effect="none" points="18,20 14,20 " /> </g>      <g fill="none" stroke="#ffffff" stroke-opacity="1" stroke-width="4" stroke-linecap="butt" stroke-linejoin="bevel" transform="matrix(0,-1,1,0,281,107)" font-family="MS Shell Dlg 2" font-size="14.25" font-weight="400" font-style="normal"  > <polyline fill="none" vector-effect="none" points="0,20 18,20 " /> </g>                        <g fill="none" stroke="#ffffff" stroke-opacity="1" stroke-width="4" stroke-linecap="butt" stroke-linejoin="bevel" transform="matrix(0,-1,1,0,281,89)" font-family="MS Shell Dlg 2" font-size="14.25" font-weight="400" font-style="normal"  > <polyline fill="none" vector-effect="none" points="0,10 72,10 " /> </g>          <g fill="none" stroke="#ff0000" stroke-opacity="1" stroke-width="1" stroke-linecap="square" stroke-linejoin="bevel" transform="matrix(1,0,0,1,286.5,1)" font-family="Verdana" font-size="10pt" font-weight="400" font-style="normal"  > <text fill="#ff0000" fill-opacity="1" stroke="none" xml:space="preserve" x="0" y="13" font-family="Verdana" font-size="10pt" font-weight="400" font-style="normal"   >Y</text> </g>                    <g fill="none" stroke="#ffffff" stroke-opacity="1" stroke-width="4" stroke-linecap="butt" stroke-linejoin="bevel" transform="matrix(0,-1,1,0,301,89)" font-family="MS Shell Dlg 2" font-size="14.25" font-weight="400" font-style="normal"  > <polyline fill="none" vector-effect="none" points="0,10 72,10 " /> </g>          <g fill="none" stroke="#ff0000" stroke-opacity="1" stroke-width="1" stroke-linecap="square" stroke-linejoin="bevel" transform="matrix(1,0,0,1,306.5,1)" font-family="Verdana" font-size="10pt" font-weight="400" font-style="normal"  > <text fill="#ff0000" fill-opacity="1" stroke="none" xml:space="preserve" x="0" y="13" font-family="Verdana" font-size="10pt" font-weight="400" font-style="normal"   >Y</text> </g>                                                                                                                                                     </g> </svg> 