<?xml version="1.0" encoding="UTF-8" standalone="no"?> <svg width="113.594mm" height="83.2556mm"  viewBox="0 0 322 236"  xmlns="http://www.w3.org/2000/svg" xmlns:xlink="http://www.w3.org/1999/xlink"  version="1.2" baseProfile="tiny"> <title>Generated with ETE http://etetoolkit.org</title> <desc>Generated with ETE http://etetoolkit.org</desc> <defs> </defs> <g fill="none" stroke="black" stroke-width="1" fill-rule="evenodd" stroke-linecap="square" stroke-linejoin="bevel" >      <g fill="none" stroke="none" transform="matrix(1,0,0,1,0,-42)" font-family="MS Shell Dlg 2" font-size="14.25" font-weight="400" font-style="normal"  > <rect x="0" y="42" width="322" height="236"/> </g>      <g fill="none" stroke="none" transform="matrix(0,-1,1,0,1,235)" font-family="MS Shell Dlg 2" font-size="14.25" font-weight="400" font-style="normal"  > <rect x="0" y="0" width="234" height="320"/> </g>      <g fill="#2e3440" fill-opacity="1" stroke="#2e3440" stroke-opacity="1" stroke-width="1" stroke-linecap="square" stroke-linejoin="bevel" transform="matrix(0,-1,1,0,1,235)" font-family="MS Shell Dlg 2" font-size="14.25" font-weight="400" font-style="normal"  > <rect x="0" y="0" width="234" height="320"/> </g>      <g fill="#2e3440" fill-opacity="1" stroke="#2e3440" stroke-opacity="1" stroke-width="1" stroke-linecap="square" stroke-linejoin="bevel" transform="matrix(0,-1,1,0,1,228)" font-family="MS Shell Dlg 2" font-size="14.25" font-weight="400" font-style="normal"  > <rect x="0" y="0" width="227" height="160"/> </g>      <g fill="#2e3440" fill-opacity="1" stroke="#2e3440" stroke-opacity="1" stroke-width="1" stroke-linecap="square" stroke-linejoin="bevel" transform="matrix(0,-1,1,0,1,161)" font-family="MS Shell Dlg 2" font-size="14.25" font-weight="400" font-style="normal"  > <rect x="0" y="0" width="160" height="60"/> </g>      <g fill="#2e3440" fill-opacity="1" stroke="#2e3440" stroke-opacity="1" stroke-width="1" stroke-linecap="square" stroke-linejoin="bevel" transform="matrix(0,-1,1,0,1,124)" font-family="MS Shell Dlg 2" font-size="14.25" font-weight="400" font-style="normal"  > <rect x="0" y="0" width="123" height="40"/> </g>      <g fill="#2e3440" fill-opacity="1" stroke="#2e3440" stroke-opacity="1" stroke-width="1" stroke-linecap="square" stroke-linejoin="bevel" transform="matrix(0,-1,1,0,1,87)" font-family="MS Shell Dlg 2" font-size="14.25" font-weight="400" font-style="normal"  > <rect x="0" y="0" width="86" height="20"/> </g>      <g fill="#2e3440" fill-opacity="1" stroke="#2e3440" stroke-opacity="1" stroke-width="1" stroke-linecap="square" stroke-linejoin="bevel" transform="matrix(0,-1,1,0,21,87)" font-family="MS Shell Dlg 2" font-size="14.25" font-weight="400" font-style="normal"  > <rect x="0" y="0" width="86" height="20"/> </g>      <g fill="#2e3440" fill-opacity="1" stroke="#2e3440" stroke-opacity="1" stroke-width="1" stroke-linecap="square" stroke-linejoin="bevel" transform="matrix(0,-1,1,0,41,124)" font-family="MS Shell Dlg 2" font-size="14.25" font-weight="400" font-style="normal"  > <rect x="0" y="0" width="123" height="20"/> </g>      <g fill="#2e3440" fill-opacity="1" stroke="#2e3440" stroke-opacity="1" stroke-width="1" stroke-linecap="square" stroke-linejoin="bevel" transform="matrix(0,-1,1,0,61,161)" font-family="MS Shell Dlg 2" font-size="14.25" font-weight="400" font-style="normal"  > <rect x="0" y="0" width="160" height="100"/> </g>      <g fill="#2e3440" fill-opacity="1" stroke="#2e3440" stroke-opacity="1" stroke-width="1" stroke-linecap="square" stroke-linejoin="bevel" transform="matrix(0,-1,1,0,61,124)" font-family="MS Shell Dlg 2" font-size="14.25" font-weight="400" font-style="normal"  > <rect x="0" y="0" width="123" height="80"/> </g>      <g fill="#2e3440" fill-opacity="1" stroke="#2e3440" stroke-opacity="1" stroke-width="1" stroke-linecap="square" stroke-linejoin="bevel" transform="matrix(0,-1,1,0,61,87)" font-family="MS Shell Dlg 2" font-size="14.25" font-weight="400" font-style="normal"  > <rect x="0" y="0" width="86" height="40"/> </g>      <g fill="#2e3440" fill-opacity="1" stroke="#2e3440" stroke-opacity="1" stroke-width="1" stroke-linecap="square" stroke-linejoin="bevel" transform="matrix(0,-1,1,0,61,50)" font-family="MS Shell Dlg 2" font-size="14.25" font-weight="400" font-style="normal"  > <rect x="0" y="0" width="49" height="20"/> </g>      <g fill="#2e3440" fill-opacity="1" stroke="#2e3440" stroke-opacity="1" stroke-width="1" stroke-linecap="square" stroke-linejoin="bevel" transform="matrix(0,-1,1,0,81,50)" font-family="MS Shell Dlg 2" font-size="14.25" font-weight="400" font-style="normal"  > <rect x="0" y="0" width="49" height="20"/> </g>      <g fill="#2e3440" fill-opacity="1" stroke="#2e3440" stroke-opacity="1" stroke-width="1" stroke-linecap="square" stroke-linejoin="bevel" transform="matrix(0,-1,1,0,101,87)" font-family="MS Shell Dlg 2" font-size="14.25" font-weight="400" font-style="normal"  > <rect x="0" y="0" width="86" height="40"/> </g>      <g fill="#2e3440" fill-opacity="1" stroke="#2e3440" stroke-opacity="1" stroke-width="1" stroke-linecap="square" stroke-linejoin="bevel" transform="matrix(0,-1,1,0,101,50)" font-family="MS Shell Dlg 2" font-size="14.25" font-weight="400" font-style="normal"  > <rect x="0" y="0" width="49" height="20"/> </g>      <g fill="#2e3440" fill-opacity="1" stroke="#2e3440" stroke-opacity="1" stroke-width="1" stroke-linecap="square" stroke-linejoin="bevel" transform="matrix(0,-1,1,0,121,50)" font-family="MS Shell Dlg 2" font-size="14.25" font-weight="400" font-style="normal"  > <rect x="0" y="0" width="49" height="20"/> </g>      <g fill="#2e3440" fill-opacity="1" stroke="#2e3440" stroke-opacity="1" stroke-width="1" stroke-linecap="square" stroke-linejoin="bevel" transform="matrix(0,-1,1,0,141,124)" font-family="MS Shell Dlg 2" font-size="14.25" font-weight="400" font-style="normal"  > <rect x="0" y="0" width="123" height="20"/> </g>      <g fill="#2e3440" fill-opacity="1" stroke="#2e3440" stroke-opacity="1" stroke-width="1" stroke-linecap="square" stroke-linejoin="bevel" transform="matrix(0,-1,1,0,161,228)" font-family="MS Shell Dlg 2" font-size="14.25" font-weight="400" font-style="normal"  > <rect x="0" y="0" width="227" height="160"/> </g>      <g fill="#2e3440" fill-opacity="1" stroke="#2e3440" stroke-opacity="1" stroke-width="1" stroke-linecap="square" stroke-linejoin="bevel" transform="matrix(0,-1,1,0,161,191)" font-family="MS Shell Dlg 2" font-size="14.25" font-weight="400" font-style="normal"  > <rect x="0" y="0" width="190" height="80"/> </g>      <g fill="#2e3440" fill-opacity="1" stroke="#2e3440" stroke-opacity="1" stroke-width="1" stroke-linecap="square" stroke-linejoin="bevel" transform="matrix(0,-1,1,0,161,154)" font-family="MS Shell Dlg 2" font-size="14.25" font-weight="400" font-style="normal"  > <rect x="0" y="0" width="153" height="20"/> </g>      <g fill="#2e3440" fill-opacity="1" stroke="#2e3440" stroke-opacity="1" stroke-width="1" stroke-linecap="square" stroke-linejoin="bevel" transform="matrix(0,-1,1,0,181,154)" font-family="MS Shell Dlg 2" font-size="14.25" font-weight="400" font-style="normal"  > <rect x="0" y="0" width="153" height="60"/> </g>      <g fill="#2e3440" fill-opacity="1" stroke="#2e3440" stroke-opacity="1" stroke-width="1" stroke-linecap="square" stroke-linejoin="bevel" transform="matrix(0,-1,1,0,181,117)" font-family="MS Shell Dlg 2" font-size="14.25" font-weight="400" font-style="normal"  > <rect x="0" y="0" width="116" height="20"/> </g>      <g fill="#2e3440" fill-opacity="1" stroke="#2e3440" stroke-opacity="1" stroke-width="1" stroke-linecap="square" stroke-linejoin="bevel" transform="matrix(0,-1,1,0,181,84)" font-family="MS Shell Dlg 2" font-size="14.25" font-weight="400" font-style="normal"  > <rect x="0" y="0" width="83" height="20"/> </g>      <g fill="#2e3440" fill-opacity="1" stroke="#2e3440" stroke-opacity="1" stroke-width="1" stroke-linecap="square" stroke-linejoin="bevel" transform="matrix(0,-1,1,0,201,117)" font-family="MS Shell Dlg 2" font-size="14.25" font-weight="400" font-style="normal"  > <rect x="0" y="0" width="116" height="40"/> </g>      <g fill="#2e3440" fill-opacity="1" stroke="#2e3440" stroke-opacity="1" stroke-width="1" stroke-linecap="square" stroke-linejoin="bevel" transform="matrix(0,-1,1,0,201,80)" font-family="MS Shell Dlg 2" font-size="14.25" font-weight="400" font-style="normal"  > <rect x="0" y="0" width="79" height="20"/> </g>      <g fill="#2e3440" fill-opacity="1" stroke="#2e3440" stroke-opacity="1" stroke-width="1" stroke-linecap="square" stroke-linejoin="bevel" transform="matrix(0,-1,1,0,221,80)" font-family="MS Shell Dlg 2" font-size="14.25" font-weight="400" font-style="normal"  > <rect x="0" y="0" width="79" height="20"/> </g>      <g fill="#2e3440" fill-opacity="1" stroke="#2e3440" stroke-opacity="1" stroke-width="1" stroke-linecap="square" stroke-linejoin="bevel" transform="matrix(0,-1,1,0,241,191)" font-family="MS Shell Dlg 2" font-size="14.25" font-weight="400" font-style="normal"  > <rect x="0" y="0" width="190" height="80"/> </g>      <g fill="#2e3440" fill-opacity="1" stroke="#2e3440" stroke-opacity="1" stroke-width="1" stroke-linecap="square" stroke-linejoin="bevel" transform="matrix(0,-1,1,0,241,154)" font-family="MS Shell Dlg 2" font-size="14.25" font-weight="400" font-style="normal"  > <rect x="0" y="0" width="153" height="40"/> </g>      <g fill="#2e3440" fill-opacity="1" stroke="#2e3440" stroke-opacity="1" stroke-width="1" stroke-linecap="square" stroke-linejoin="bevel" transform="matrix(0,-1,1,0,241,117)" font-family="MS Shell Dlg 2" font-size="14.25" font-weight="400" font-style="normal"  > <rect x="0" y="0" width="116" height="20"/> </g>      <g fill="#2e3440" fill-opacity="1" stroke="#2e3440" stroke-opacity="1" stroke-width="1" stroke-linecap="square" stroke-linejoin="bevel" transform="matrix(0,-1,1,0,261,117)" font-family="MS Shell Dlg 2" font-size="14.25" font-weight="400" font-style="normal"  > <rect x="0" y="0" width="116" height="20"/> </g>      <g fill="#2e3440" fill-opacity="1" stroke="#2e3440" stroke-opacity="1" stroke-width="1" stroke-linecap="square" stroke-linejoin="bevel" transform="matrix(0,-1,1,0,281,154)" font-family="MS Shell Dlg 2" font-size="14.25" font-weight="400" font-style="normal"  > <rect x="0" y="0" width="153" height="40"/> </g>      <g fill="#2e3440" fill-opacity="1" stroke="#2e3440" stroke-opacity="1" stroke-width="1" stroke-linecap="square" stroke-linejoin="bevel" transform="matrix(0,-1,1,0,281,117)" font-family="MS Shell Dlg 2" font-size="14.25" font-weight="400" font-style="normal"  > <rect x="0" y="0" width="116" height="20"/> </g>      <g fill="#2e3440" fill-opacity="1" stroke="#2e3440" stroke-opacity="1" stroke-width="1" stroke-linecap="square" stroke-linejoin="bevel" transform="matrix(0,-1,1,0,301,117)" font-family="MS Shell Dlg 2" font-size="14.25" font-weight="400" font-style="normal"  > <rect x="0" y="0" width="116" height="20"/> </g>                                                                                                                                      <g fill="none" stroke="#ffffff" stroke-opacity="1" stroke-width="4" stroke-linecap="butt" stroke-linejoin="bevel" transform="matrix(0,-1,1,0,1,235)" font-family="MS Shell Dlg 2" font-size="14.25" font-weight="400" font-style="normal"  > <polyline fill="none" vector-effect="none" points="5,78 5,235.75 " /> </g>                  <g fill="#000000" fill-opacity="1" stroke="#000000" stroke-opacity="1" stroke-width="1" stroke-linecap="square" stroke-linejoin="bevel" transform="matrix(0,-1,1,0,156.375,235)" font-family="MS Shell Dlg 2" font-size="14.25" font-weight="400" font-style="normal"  > <circle cx="1.5" cy="1.5" r="1.5"/> </g>                  <g fill="none" stroke="#ffffff" stroke-opacity="1" stroke-width="4" stroke-linecap="butt" stroke-linejoin="bevel" transform="matrix(0,-1,1,0,1,228)" font-family="MS Shell Dlg 2" font-size="14.25" font-weight="400" font-style="normal"  > <polyline fill="none" vector-effect="none" points="65,33 65,127 " /> </g>            <g fill="none" stroke="#ffffff" stroke-opacity="1" stroke-width="4" stroke-linecap="butt" stroke-linejoin="bevel" transform="matrix(0,-1,1,0,1,228)" font-family="MS Shell Dlg 2" font-size="14.25" font-weight="400" font-style="normal"  > <polyline fill="none" vector-effect="none" points="0,80 60,80 " /> </g>      <g fill="#000000" fill-opacity="1" stroke="#000000" stroke-opacity="1" stroke-width="1" stroke-linecap="square" stroke-linejoin="bevel" transform="matrix(0,-1,1,0,79.5,168)" font-family="MS Shell Dlg 2" font-size="14.25" font-weight="400" font-style="normal"  > <circle cx="1.5" cy="1.5" r="1.5"/> </g>                  <g fill="none" stroke="#ffffff" stroke-opacity="1" stroke-width="4" stroke-linecap="butt" stroke-linejoin="bevel" transform="matrix(0,-1,1,0,1,161)" font-family="MS Shell Dlg 2" font-size="14.25" font-weight="400" font-style="normal"  > <polyline fill="none" vector-effect="none" points="35,18 35,52 " /> </g>            <g fill="none" stroke="#ffffff" stroke-opacity="1" stroke-width="4" stroke-linecap="butt" stroke-linejoin="bevel" transform="matrix(0,-1,1,0,1,161)" font-family="MS Shell Dlg 2" font-size="14.25" font-weight="400" font-style="normal"  > <polyline fill="none" vector-effect="none" points="0,35 30,35 " /> </g>      <g fill="#000000" fill-opacity="1" stroke="#000000" stroke-opacity="1" stroke-width="1" stroke-linecap="square" stroke-linejoin="bevel" transform="matrix(0,-1,1,0,34.5,131)" font-family="MS Shell Dlg 2" font-size="14.25" font-weight="400" font-style="normal"  > <circle cx="1.5" cy="1.5" r="1.5"/> </g>                  <g fill="none" stroke="#ffffff" stroke-opacity="1" stroke-width="4" stroke-linecap="butt" stroke-linejoin="bevel" transform="matrix(0,-1,1,0,1,124)" font-family="MS Shell Dlg 2" font-size="14.25" font-weight="400" font-style="normal"  > <polyline fill="none" vector-effect="none" points="35,8 35,32 " /> </g>            <g fill="none" stroke="#ffffff" stroke-opacity="1" stroke-width="4" stroke-linecap="butt" stroke-linejoin="bevel" transform="matrix(0,-1,1,0,1,124)" font-family="MS Shell Dlg 2" font-size="14.25" font-weight="400" font-style="normal"  > <polyline fill="none" vector-effect="none" points="0,20 30,20 " /> </g>      <g fill="#000000" fill-opacity="1" stroke="#000000" stroke-opacity="1" stroke-width="1" stroke-linecap="square" stroke-linejoin="bevel" transform="matrix(0,-1,1,0,19.5,94)" font-family="MS Shell Dlg 2" font-size="14.25" font-weight="400" font-style="normal"  > <circle cx="1.5" cy="1.5" r="1.5"/> </g>                        <g fill="none" stroke="#ffffff" stroke-opacity="1" stroke-width="4" stroke-linecap="butt" stroke-linejoin="bevel" transform="matrix(0,-1,1,0,1,87)" font-family="MS Shell Dlg 2" font-size="14.25" font-weight="400" font-style="normal"  > <polyline fill="none" vector-effect="none" points="0,10 60,10 " /> </g>      <g fill="#000000" fill-opacity="1" stroke="#000000" stroke-opacity="1" stroke-width="1" stroke-linecap="square" stroke-linejoin="bevel" transform="matrix(0,-1,1,0,9.5,27)" font-family="MS Shell Dlg 2" font-size="14.25" font-weight="400" font-style="normal"  > <circle cx="1.5" cy="1.5" r="1.5"/> </g>          <g fill="none" stroke="#ff0000" stroke-opacity="1" stroke-width="1" stroke-linecap="square" stroke-linejoin="bevel" transform="matrix(1,0,0,1,6.5,8)" font-family="Verdana" font-size="10pt" font-weight="400" font-style="normal"  > <text fill="#ff0000" fill-opacity="1" stroke="none" xml:space="preserve" x="0" y="13" font-family="Verdana" font-size="10pt" font-weight="400" font-style="normal"   >X</text> </g>                    <g fill="none" stroke="#ffffff" stroke-opacity="1" stroke-width="4" stroke-linecap="butt" stroke-linejoin="bevel" transform="matrix(0,-1,1,0,21,87)" font-family="MS Shell Dlg 2" font-size="14.25" font-weight="400" font-style="normal"  > <polyline fill="none" vector-effect="none" points="0,10 60,10 " /> </g>      <g fill="#000000" fill-opacity="1" stroke="#000000" stroke-opacity="1" stroke-width="1" stroke-linecap="square" stroke-linejoin="bevel" transform="matrix(0,-1,1,0,29.5,27)" font-family="MS Shell Dlg 2" font-size="14.25" font-weight="400" font-style="normal"  > <circle cx="1.5" cy="1.5" r="1.5"/> </g>          <g fill="none" stroke="#ff0000" stroke-opacity="1" stroke-width="1" stroke-linecap="square" stroke-linejoin="bevel" transform="matrix(1,0,0,1,26.5,8)" font-family="Verdana" font-size="10pt" font-weight="400" font-style="normal"  > <text fill="#ff0000" fill-opacity="1" stroke="none" xml:space="preserve" x="0" y="13" font-family="Verdana" font-size="10pt" font-weight="400" font-style="normal"   >X</text> </g>                    <g fill="none" stroke="#ffffff" stroke-opacity="1" stroke-width="4" stroke-linecap="butt" stroke-linejoin="bevel" transform="matrix(0,-1,1,0,41,124)" font-family="MS Shell Dlg 2" font-size="14.25" font-weight="400" font-style="normal"  > <polyline fill="none" vector-effect="none" points="0,10 90,10 " /> </g>      <g fill="#000000" fill-opacity="1" stroke="#000000" stroke-opacity="1" stroke-width="1" stroke-linecap="square" stroke-linejoin="bevel" transform="matrix(0,-1,1,0,49.5,34)" font-family="MS Shell Dlg 2" font-size="14.25" font-weight="400" font-style="normal"  > <circle cx="1.5" cy="1.5" r="1.5"/> </g>          <g fill="none" stroke="#ff0000" stroke-opacity="1" stroke-width="1" stroke-linecap="square" stroke-linejoin="bevel" transform="matrix(1,0,0,1,46.5,15)" font-family="Verdana" font-size="10pt" font-weight="400" font-style="normal"  > <text fill="#ff0000" fill-opacity="1" stroke="none" xml:space="preserve" x="0" y="13" font-family="Verdana" font-size="10pt" font-weight="400" font-style="normal"   >X</text> </g>              <g fill="none" stroke="#ffffff" stroke-opacity="1" stroke-width="4" stroke-linecap="butt" stroke-linejoin="bevel" transform="matrix(0,-1,1,0,61,161)" font-family="MS Shell Dlg 2" font-size="14.25" font-weight="400" font-style="normal"  > <polyline fill="none" vector-effect="none" points="35,38 35,92 " /> </g>            <g fill="none" stroke="#ffffff" stroke-opacity="1" stroke-width="4" stroke-linecap="butt" stroke-linejoin="bevel" transform="matrix(0,-1,1,0,61,161)" font-family="MS Shell Dlg 2" font-size="14.25" font-weight="400" font-style="normal"  > <polyline fill="none" vector-effect="none" points="0,65 30,65 " /> </g>      <g fill="#000000" fill-opacity="1" stroke="#000000" stroke-opacity="1" stroke-width="1" stroke-linecap="square" stroke-linejoin="bevel" transform="matrix(0,-1,1,0,124.5,131)" font-family="MS Shell Dlg 2" font-size="14.25" font-weight="400" font-style="normal"  > <circle cx="1.5" cy="1.5" r="1.5"/> </g>                  <g fill="none" stroke="#ffffff" stroke-opacity="1" stroke-width="4" stroke-linecap="butt" stroke-linejoin="bevel" transform="matrix(0,-1,1,0,61,124)" font-family="MS Shell Dlg 2" font-size="14.25" font-weight="400" font-style="normal"  > <polyline fill="none" vector-effect="none" points="35,18 35,62 " /> </g>            <g fill="none" stroke="#ffffff" stroke-opacity="1" stroke-width="4" stroke-linecap="butt" stroke-linejoin="bevel" transform="matrix(0,-1,1,0,61,124)" font-family="MS Shell Dlg 2" font-size="14.25" font-weight="400" font-style="normal"  > <polyline fill="none" vector-effect="none" points="0,40 30,40 " /> </g>      <g fill="#000000" fill-opacity="1" stroke="#000000" stroke-opacity="1" stroke-width="1" stroke-linecap="square" stroke-linejoin="bevel" transform="matrix(0,-1,1,0,99.5,94)" font-family="MS Shell Dlg 2" font-size="14.25" font-weight="400" font-style="normal"  > <circle cx="1.5" cy="1.5" r="1.5"/> </g>                  <g fill="none" stroke="#ffffff" stroke-opacity="1" stroke-width="4" stroke-linecap="butt" stroke-linejoin="bevel" transform="matrix(0,-1,1,0,61,87)" font-family="MS Shell Dlg 2" font-size="14.25" font-weight="400" font-style="normal"  > <polyline fill="none" vector-effect="none" points="35,8 35,32 " /> </g>            <g fill="none" stroke="#ffffff" stroke-opacity="1" stroke-width="4" stroke-linecap="butt" stroke-linejoin="bevel" transform="matrix(0,-1,1,0,61,87)" font-family="MS Shell Dlg 2" font-size="14.25" font-weight="400" font-style="normal"  > <polyline fill="none" vector-effect="none" points="0,20 30,20 " /> </g>      <g fill="#000000" fill-opacity="1" stroke="#000000" stroke-opacity="1" stroke-width="1" stroke-linecap="square" stroke-linejoin="bevel" transform="matrix(0,-1,1,0,79.5,57)" font-family="MS Shell Dlg 2" font-size="14.25" font-weight="400" font-style="normal"  > <circle cx="1.5" cy="1.5" r="1.5"/> </g>                        <g fill="none" stroke="#ffffff" stroke-opacity="1" stroke-width="4" stroke-linecap="butt" stroke-linejoin="bevel" transform="matrix(0,-1,1,0,61,50)" font-family="MS Shell Dlg 2" font-size="14.25" font-weight="400" font-style="normal"  > <polyline fill="none" vector-effect="none" points="0,10 30,10 " /> </g>      <g fill="#000000" fill-opacity="1" stroke="#000000" stroke-opacity="1" stroke-width="1" stroke-linecap="square" stroke-linejoin="bevel" transform="matrix(0,-1,1,0,69.5,20)" font-family="MS Shell Dlg 2" font-size="14.25" font-weight="400" font-style="normal"  > <circle cx="1.5" cy="1.5" r="1.5"/> </g>          <g fill="none" stroke="#ff0000" stroke-opacity="1" stroke-width="1" stroke-linecap="square" stroke-linejoin="bevel" transform="matrix(1,0,0,1,66.5,1)" font-family="Verdana" font-size="10pt" font-weight="400" font-style="normal"  > <text fill="#ff0000" fill-opacity="1" stroke="none" xml:space="preserve" x="0" y="13" font-family="Verdana" font-size="10pt" font-weight="400" font-style="normal"   >X</text> </g>                    <g fill="none" stroke="#ffffff" stroke-opacity="1" stroke-width="4" stroke-linecap="butt" stroke-linejoin="bevel" transform="matrix(0,-1,1,0,81,50)" font-family="MS Shell Dlg 2" font-size="14.25" font-weight="400" font-style="normal"  > <polyline fill="none" vector-effect="none" points="0,10 30,10 " /> </g>      <g fill="#000000" fill-opacity="1" stroke="#000000" stroke-opacity="1" stroke-width="1" stroke-linecap="square" stroke-linejoin="bevel" transform="matrix(0,-1,1,0,89.5,20)" font-family="MS Shell Dlg 2" font-size="14.25" font-weight="400" font-style="normal"  > <circle cx="1.5" cy="1.5" r="1.5"/> </g>          <g fill="none" stroke="#ff0000" stroke-opacity="1" stroke-width="1" stroke-linecap="square" stroke-linejoin="bevel" transform="matrix(1,0,0,1,86.5,1)" font-family="Verdana" font-size="10pt" font-weight="400" font-style="normal"  > <text fill="#ff0000" fill-opacity="1" stroke="none" xml:space="preserve" x="0" y="13" font-family="Verdana" font-size="10pt" font-weight="400" font-style="normal"   >X</text> </g>              <g fill="none" stroke="#ffffff" stroke-opacity="1" stroke-width="4" stroke-linecap="butt" stroke-linejoin="bevel" transform="matrix(0,-1,1,0,101,87)" font-family="MS Shell Dlg 2" font-size="14.25" font-weight="400" font-style="normal"  > <polyline fill="none" vector-effect="none" points="35,8 35,32 " /> </g>            <g fill="none" stroke="#ffffff" stroke-opacity="1" stroke-width="4" stroke-linecap="butt" stroke-linejoin="bevel" transform="matrix(0,-1,1,0,101,87)" font-family="MS Shell Dlg 2" font-size="14.25" font-weight="400" font-style="normal"  > <polyline fill="none" vector-effect="none" points="0,20 30,20 " /> </g>      <g fill="#000000" fill-opacity="1" stroke="#000000" stroke-opacity="1" stroke-width="1" stroke-linecap="square" stroke-linejoin="bevel" transform="matrix(0,-1,1,0,119.5,57)" font-family="MS Shell Dlg 2" font-size="14.25" font-weight="400" font-style="normal"  > <circle cx="1.5" cy="1.5" r="1.5"/> </g>                        <g fill="none" stroke="#ffffff" stroke-opacity="1" stroke-width="4" stroke-linecap="butt" stroke-linejoin="bevel" transform="matrix(0,-1,1,0,101,50)" font-family="MS Shell Dlg 2" font-size="14.25" font-weight="400" font-style="normal"  > <polyline fill="none" vector-effect="none" points="0,10 30,10 " /> </g>      <g fill="#000000" fill-opacity="1" stroke="#000000" stroke-opacity="1" stroke-width="1" stroke-linecap="square" stroke-linejoin="bevel" transform="matrix(0,-1,1,0,109.5,20)" font-family="MS Shell Dlg 2" font-size="14.25" font-weight="400" font-style="normal"  > <circle cx="1.5" cy="1.5" r="1.5"/> </g>          <g fill="none" stroke="#ff0000" stroke-opacity="1" stroke-width="1" stroke-linecap="square" stroke-linejoin="bevel" transform="matrix(1,0,0,1,106.5,1)" font-family="Verdana" font-size="10pt" font-weight="400" font-style="normal"  > <text fill="#ff0000" fill-opacity="1" stroke="none" xml:space="preserve" x="0" y="13" font-family="Verdana" font-size="10pt" font-weight="400" font-style="normal"   >X</text> </g>                    <g fill="none" stroke="#ffffff" stroke-opacity="1" stroke-width="4" stroke-linecap="butt" stroke-linejoin="bevel" transform="matrix(0,-1,1,0,121,50)" font-family="MS Shell Dlg 2" font-size="14.25" font-weight="400" font-style="normal"  > <polyline fill="none" vector-effect="none" points="0,10 30,10 " /> </g>      <g fill="#000000" fill-opacity="1" stroke="#000000" stroke-opacity="1" stroke-width="1" stroke-linecap="square" stroke-linejoin="bevel" transform="matrix(0,-1,1,0,129.5,20)" font-family="MS Shell Dlg 2" font-size="14.25" font-weight="400" font-style="normal"  > <circle cx="1.5" cy="1.5" r="1.5"/> </g>          <g fill="none" stroke="#ff0000" stroke-opacity="1" stroke-width="1" stroke-linecap="square" stroke-linejoin="bevel" transform="matrix(1,0,0,1,126.5,1)" font-family="Verdana" font-size="10pt" font-weight="400" font-style="normal"  > <text fill="#ff0000" fill-opacity="1" stroke="none" xml:space="preserve" x="0" y="13" font-family="Verdana" font-size="10pt" font-weight="400" font-style="normal"   >X</text> </g>                    <g fill="none" stroke="#ffffff" stroke-opacity="1" stroke-width="4" stroke-linecap="butt" stroke-linejoin="bevel" transform="matrix(0,-1,1,0,141,124)" font-family="MS Shell Dlg 2" font-size="14.25" font-weight="400" font-style="normal"  > <polyline fill="none" vector-effect="none" points="0,10 90,10 " /> </g>      <g fill="#000000" fill-opacity="1" stroke="#000000" stroke-opacity="1" stroke-width="1" stroke-linecap="square" stroke-linejoin="bevel" transform="matrix(0,-1,1,0,149.5,34)" font-family="MS Shell Dlg 2" font-size="14.25" font-weight="400" font-style="normal"  > <circle cx="1.5" cy="1.5" r="1.5"/> </g>          <g fill="none" stroke="#ff0000" stroke-opacity="1" stroke-width="1" stroke-linecap="square" stroke-linejoin="bevel" transform="matrix(1,0,0,1,146.5,15)" font-family="Verdana" font-size="10pt" font-weight="400" font-style="normal"  > <text fill="#ff0000" fill-opacity="1" stroke="none" xml:space="preserve" x="0" y="13" font-family="Verdana" font-size="10pt" font-weight="400" font-style="normal"   >X</text> </g>              <g fill="none" stroke="#ffffff" stroke-opacity="1" stroke-width="4" stroke-linecap="butt" stroke-linejoin="bevel" transform="matrix(0,-1,1,0,161,228)" font-family="MS Shell Dlg 2" font-size="14.25" font-weight="400" font-style="normal"  > <polyline fill="none" vector-effect="none" points="35,25.5 35,122 " /> </g>            <g fill="none" stroke="#ffffff" stroke-opacity="1" stroke-width="4" stroke-linecap="butt" stroke-linejoin="bevel" transform="matrix(0,-1,1,0,161,228)" font-family="MS Shell Dlg 2" font-size="14.25" font-weight="400" font-style="normal"  > <polyline fill="none" vector-effect="none" points="0,73.75 30,73.75 " /> </g>      <g fill="#000000" fill-opacity="1" stroke="#000000" stroke-opacity="1" stroke-width="1" stroke-linecap="square" stroke-linejoin="bevel" transform="matrix(0,-1,1,0,233.25,198)" font-family="MS Shell Dlg 2" font-size="14.25" font-weight="400" font-style="normal"  > <circle cx="1.5" cy="1.5" r="1.5"/> </g>                  <g fill="none" stroke="#ffffff" stroke-opacity="1" stroke-width="4" stroke-linecap="butt" stroke-linejoin="bevel" transform="matrix(0,-1,1,0,161,191)" font-family="MS Shell Dlg 2" font-size="14.25" font-weight="400" font-style="normal"  > <polyline fill="none" vector-effect="none" points="35,8 35,47 " /> </g>            <g fill="none" stroke="#ffffff" stroke-opacity="1" stroke-width="4" stroke-linecap="butt" stroke-linejoin="bevel" transform="matrix(0,-1,1,0,161,191)" font-family="MS Shell Dlg 2" font-size="14.25" font-weight="400" font-style="normal"  > <polyline fill="none" vector-effect="none" points="0,27.5 30,27.5 " /> </g>      <g fill="#000000" fill-opacity="1" stroke="#000000" stroke-opacity="1" stroke-width="1" stroke-linecap="square" stroke-linejoin="bevel" transform="matrix(0,-1,1,0,187,161)" font-family="MS Shell Dlg 2" font-size="14.25" font-weight="400" font-style="normal"  > <circle cx="1.5" cy="1.5" r="1.5"/> </g>                        <g fill="none" stroke="#ffffff" stroke-opacity="1" stroke-width="4" stroke-linecap="butt" stroke-linejoin="bevel" transform="matrix(0,-1,1,0,161,154)" font-family="MS Shell Dlg 2" font-size="14.25" font-weight="400" font-style="normal"  > <polyline fill="none" vector-effect="none" points="0,10 120,10 " /> </g>      <g fill="#000000" fill-opacity="1" stroke="#000000" stroke-opacity="1" stroke-width="1" stroke-linecap="square" stroke-linejoin="bevel" transform="matrix(0,-1,1,0,169.5,34)" font-family="MS Shell Dlg 2" font-size="14.25" font-weight="400" font-style="normal"  > <circle cx="1.5" cy="1.5" r="1.5"/> </g>          <g fill="none" stroke="#0000ff" stroke-opacity="1" stroke-width="1" stroke-linecap="square" stroke-linejoin="bevel" transform="matrix(1,0,0,1,166.5,15)" font-family="Verdana" font-size="10pt" font-weight="400" font-style="normal"  > <text fill="#0000ff" fill-opacity="1" stroke="none" xml:space="preserve" x="0" y="13" font-family="Verdana" font-size="10pt" font-weight="400" font-style="normal"   >Z</text> </g>              <g fill="none" stroke="#ffffff" stroke-opacity="1" stroke-width="4" stroke-linecap="butt" stroke-linejoin="bevel" transform="matrix(0,-1,1,0,181,154)" font-family="MS Shell Dlg 2" font-size="14.25" font-weight="400" font-style="normal"  > <polyline fill="none" vector-effect="none" points="35,8 35,42 " /> </g>            <g fill="none" stroke="#ffffff" stroke-opacity="1" stroke-width="4" stroke-linecap="butt" stroke-linejoin="bevel" transform="matrix(0,-1,1,0,181,154)" font-family="MS Shell Dlg 2" font-size="14.25" font-weight="400" font-style="normal"  > <polyline fill="none" vector-effect="none" points="0,25 30,25 " /> </g>      <g fill="#000000" fill-opacity="1" stroke="#000000" stroke-opacity="1" stroke-width="1" stroke-linecap="square" stroke-linejoin="bevel" transform="matrix(0,-1,1,0,204.5,124)" font-family="MS Shell Dlg 2" font-size="14.25" font-weight="400" font-style="normal"  > <circle cx="1.5" cy="1.5" r="1.5"/> </g>                  <g fill="none" stroke="#ffffff" stroke-opacity="1" stroke-width="4" stroke-linecap="butt" stroke-linejoin="bevel" transform="matrix(0,-1,1,0,181,117)" font-family="MS Shell Dlg 2" font-size="14.25" font-weight="400" font-style="normal"  > <polyline fill="none" vector-effect="none" points="33,8 33,12 " /> </g>            <g fill="none" stroke="#ffffff" stroke-opacity="1" stroke-width="4" stroke-linecap="butt" stroke-linejoin="bevel" transform="matrix(0,-1,1,0,181,117)" font-family="MS Shell Dlg 2" font-size="14.25" font-weight="400" font-style="normal"  > <polyline fill="none" vector-effect="none" points="0,10 30,10 " /> </g>      <g fill="#000000" fill-opacity="1" stroke="#000000" stroke-opacity="1" stroke-width="1" stroke-linecap="square" stroke-linejoin="bevel" transform="matrix(0,-1,1,0,189.5,87)" font-family="MS Shell Dlg 2" font-size="14.25" font-weight="400" font-style="normal"  > <circle cx="1.5" cy="1.5" r="1.5"/> </g>                        <g fill="none" stroke="#ffffff" stroke-opacity="1" stroke-width="4" stroke-linecap="butt" stroke-linejoin="bevel" transform="matrix(0,-1,1,0,181,84)" font-family="MS Shell Dlg 2" font-size="14.25" font-weight="400" font-style="normal"  > <polyline fill="none" vector-effect="none" points="0,10 60,10 " /> </g>      <g fill="#000000" fill-opacity="1" stroke="#000000" stroke-opacity="1" stroke-width="1" stroke-linecap="square" stroke-linejoin="bevel" transform="matrix(0,-1,1,0,189.5,24)" font-family="MS Shell Dlg 2" font-size="14.25" font-weight="400" font-style="normal"  > <circle cx="1.5" cy="1.5" r="1.5"/> </g>          <g fill="none" stroke="#0000ff" stroke-opacity="1" stroke-width="1" stroke-linecap="square" stroke-linejoin="bevel" transform="matrix(1,0,0,1,186.5,5)" font-family="Verdana" font-size="10pt" font-weight="400" font-style="normal"  > <text fill="#0000ff" fill-opacity="1" stroke="none" xml:space="preserve" x="0" y="13" font-family="Verdana" font-size="10pt" font-weight="400" font-style="normal"   >Z</text> </g>              <g fill="none" stroke="#ffffff" stroke-opacity="1" stroke-width="4" stroke-linecap="butt" stroke-linejoin="bevel" transform="matrix(0,-1,1,0,201,117)" font-family="MS Shell Dlg 2" font-size="14.25" font-weight="400" font-style="normal"  > <polyline fill="none" vector-effect="none" points="35,8 35,32 " /> </g>            <g fill="none" stroke="#ffffff" stroke-opacity="1" stroke-width="4" stroke-linecap="butt" stroke-linejoin="bevel" transform="matrix(0,-1,1,0,201,117)" font-family="MS Shell Dlg 2" font-size="14.25" font-weight="400" font-style="normal"  > <polyline fill="none" vector-effect="none" points="0,20 30,20 " /> </g>      <g fill="#000000" fill-opacity="1" stroke="#000000" stroke-opacity="1" stroke-width="1" stroke-linecap="square" stroke-linejoin="bevel" transform="matrix(0,-1,1,0,219.5,87)" font-family="MS Shell Dlg 2" font-size="14.25" font-weight="400" font-style="normal"  > <circle cx="1.5" cy="1.5" r="1.5"/> </g>                        <g fill="none" stroke="#ffffff" stroke-opacity="1" stroke-width="4" stroke-linecap="butt" stroke-linejoin="bevel" transform="matrix(0,-1,1,0,201,80)" font-family="MS Shell Dlg 2" font-size="14.25" font-weight="400" font-style="normal"  > <polyline fill="none" vector-effect="none" points="0,10 60,10 " /> </g>      <g fill="#000000" fill-opacity="1" stroke="#000000" stroke-opacity="1" stroke-width="1" stroke-linecap="square" stroke-linejoin="bevel" transform="matrix(0,-1,1,0,209.5,20)" font-family="MS Shell Dlg 2" font-size="14.25" font-weight="400" font-style="normal"  > <circle cx="1.5" cy="1.5" r="1.5"/> </g>          <g fill="none" stroke="#0000ff" stroke-opacity="1" stroke-width="1" stroke-linecap="square" stroke-linejoin="bevel" transform="matrix(1,0,0,1,206.5,1)" font-family="Verdana" font-size="10pt" font-weight="400" font-style="normal"  > <text fill="#0000ff" fill-opacity="1" stroke="none" xml:space="preserve" x="0" y="13" font-family="Verdana" font-size="10pt" font-weight="400" font-style="normal"   >Z</text> </g>                    <g fill="none" stroke="#ffffff" stroke-opacity="1" stroke-width="4" stroke-linecap="butt" stroke-linejoin="bevel" transform="matrix(0,-1,1,0,221,80)" font-family="MS Shell Dlg 2" font-size="14.25" font-weight="400" font-style="normal"  > <polyline fill="none" vector-effect="none" points="0,10 60,10 " /> </g>      <g fill="#000000" fill-opacity="1" stroke="#000000" stroke-opacity="1" stroke-width="1" stroke-linecap="square" stroke-linejoin="bevel" transform="matrix(0,-1,1,0,229.5,20)" font-family="MS Shell Dlg 2" font-size="14.25" font-weight="400" font-style="normal"  > <circle cx="1.5" cy="1.5" r="1.5"/> </g>          <g fill="none" stroke="#0000ff" stroke-opacity="1" stroke-width="1" stroke-linecap="square" stroke-linejoin="bevel" transform="matrix(1,0,0,1,226.5,1)" font-family="Verdana" font-size="10pt" font-weight="400" font-style="normal"  > <text fill="#0000ff" fill-opacity="1" stroke="none" xml:space="preserve" x="0" y="13" font-family="Verdana" font-size="10pt" font-weight="400" font-style="normal"   >Z</text> </g>              <g fill="none" stroke="#ffffff" stroke-opacity="1" stroke-width="4" stroke-linecap="butt" stroke-linejoin="bevel" transform="matrix(0,-1,1,0,241,191)" font-family="MS Shell Dlg 2" font-size="14.25" font-weight="400" font-style="normal"  > <polyline fill="none" vector-effect="none" points="35,18 35,62 " /> </g>            <g fill="none" stroke="#ffffff" stroke-opacity="1" stroke-width="4" stroke-linecap="butt" stroke-linejoin="bevel" transform="matrix(0,-1,1,0,241,191)" font-family="MS Shell Dlg 2" font-size="14.25" font-weight="400" font-style="normal"  > <polyline fill="none" vector-effect="none" points="0,40 30,40 " /> </g>      <g fill="#000000" fill-opacity="1" stroke="#000000" stroke-opacity="1" stroke-width="1" stroke-linecap="square" stroke-linejoin="bevel" transform="matrix(0,-1,1,0,279.5,161)" font-family="MS Shell Dlg 2" font-size="14.25" font-weight="400" font-style="normal"  > <circle cx="1.5" cy="1.5" r="1.5"/> </g>                  <g fill="none" stroke="#ffffff" stroke-opacity="1" stroke-width="4" stroke-linecap="butt" stroke-linejoin="bevel" transform="matrix(0,-1,1,0,241,154)" font-family="MS Shell Dlg 2" font-size="14.25" font-weight="400" font-style="normal"  > <polyline fill="none" vector-effect="none" points="35,8 35,32 " /> </g>            <g fill="none" stroke="#ffffff" stroke-opacity="1" stroke-width="4" stroke-linecap="butt" stroke-linejoin="bevel" transform="matrix(0,-1,1,0,241,154)" font-family="MS Shell Dlg 2" font-size="14.25" font-weight="400" font-style="normal"  > <polyline fill="none" vector-effect="none" points="0,20 30,20 " /> </g>      <g fill="#000000" fill-opacity="1" stroke="#000000" stroke-opacity="1" stroke-width="1" stroke-linecap="square" stroke-linejoin="bevel" transform="matrix(0,-1,1,0,259.5,124)" font-family="MS Shell Dlg 2" font-size="14.25" font-weight="400" font-style="normal"  > <circle cx="1.5" cy="1.5" r="1.5"/> </g>                        <g fill="none" stroke="#ffffff" stroke-opacity="1" stroke-width="4" stroke-linecap="butt" stroke-linejoin="bevel" transform="matrix(0,-1,1,0,241,117)" font-family="MS Shell Dlg 2" font-size="14.25" font-weight="400" font-style="normal"  > <polyline fill="none" vector-effect="none" points="0,10 90,10 " /> </g>      <g fill="#000000" fill-opacity="1" stroke="#000000" stroke-opacity="1" stroke-width="1" stroke-linecap="square" stroke-linejoin="bevel" transform="matrix(0,-1,1,0,249.5,27)" font-family="MS Shell Dlg 2" font-size="14.25" font-weight="400" font-style="normal"  > <circle cx="1.5" cy="1.5" r="1.5"/> </g>          <g fill="none" stroke="#0000ff" stroke-opacity="1" stroke-width="1" stroke-linecap="square" stroke-linejoin="bevel" transform="matrix(1,0,0,1,246.5,8)" font-family="Verdana" font-size="10pt" font-weight="400" font-style="normal"  > <text fill="#0000ff" fill-opacity="1" stroke="none" xml:space="preserve" x="0" y="13" font-family="Verdana" font-size="10pt" font-weight="400" font-style="normal"   >Z</text> </g>                    <g fill="none" stroke="#ffffff" stroke-opacity="1" stroke-width="4" stroke-linecap="butt" stroke-linejoin="bevel" transform="matrix(0,-1,1,0,261,117)" font-family="MS Shell Dlg 2" font-size="14.25" font-weight="400" font-style="normal"  > <polyline fill="none" vector-effect="none" points="0,10 90,10 " /> </g>      <g fill="#000000" fill-opacity="1" stroke="#000000" stroke-opacity="1" stroke-width="1" stroke-linecap="square" stroke-linejoin="bevel" transform="matrix(0,-1,1,0,269.5,27)" font-family="MS Shell Dlg 2" font-size="14.25" font-weight="400" font-style="normal"  > <circle cx="1.5" cy="1.5" r="1.5"/> </g>          <g fill="none" stroke="#0000ff" stroke-opacity="1" stroke-width="1" stroke-linecap="square" stroke-linejoin="bevel" transform="matrix(1,0,0,1,266.5,8)" font-family="Verdana" font-size="10pt" font-weight="400" font-style="normal"  > <text fill="#0000ff" fill-opacity="1" stroke="none" xml:space="preserve" x="0" y="13" font-family="Verdana" font-size="10pt" font-weight="400" font-style="normal"   >Z</text> </g>              <g fill="none" stroke="#ffffff" stroke-opacity="1" stroke-width="4" stroke-linecap="butt" stroke-linejoin="bevel" transform="matrix(0,-1,1,0,281,154)" font-family="MS Shell Dlg 2" font-size="14.25" font-weight="400" font-style="normal"  > <polyline fill="none" vector-effect="none" points="35,8 35,32 " /> </g>            <g fill="none" stroke="#ffffff" stroke-opacity="1" stroke-width="4" stroke-linecap="butt" stroke-linejoin="bevel" transform="matrix(0,-1,1,0,281,154)" font-family="MS Shell Dlg 2" font-size="14.25" font-weight="400" font-style="normal"  > <polyline fill="none" vector-effect="none" points="0,20 30,20 " /> </g>      <g fill="#000000" fill-opacity="1" stroke="#000000" stroke-opacity="1" stroke-width="1" stroke-linecap="square" stroke-linejoin="bevel" transform="matrix(0,-1,1,0,299.5,124)" font-family="MS Shell Dlg 2" font-size="14.25" font-weight="400" font-style="normal"  > <circle cx="1.5" cy="1.5" r="1.5"/> </g>                        <g fill="none" stroke="#ffffff" stroke-opacity="1" stroke-width="4" stroke-linecap="butt" stroke-linejoin="bevel" transform="matrix(0,-1,1,0,281,117)" font-family="MS Shell Dlg 2" font-size="14.25" font-weight="400" font-style="normal"  > <polyline fill="none" vector-effect="none" points="0,10 90,10 " /> </g>      <g fill="#000000" fill-opacity="1" stroke="#000000" stroke-opacity="1" stroke-width="1" stroke-linecap="square" stroke-linejoin="bevel" transform="matrix(0,-1,1,0,289.5,27)" font-family="MS Shell Dlg 2" font-size="14.25" font-weight="400" font-style="normal"  > <circle cx="1.5" cy="1.5" r="1.5"/> </g>          <g fill="none" stroke="#0000ff" stroke-opacity="1" stroke-width="1" stroke-linecap="square" stroke-linejoin="bevel" transform="matrix(1,0,0,1,286.5,8)" font-family="Verdana" font-size="10pt" font-weight="400" font-style="normal"  > <text fill="#0000ff" fill-opacity="1" stroke="none" xml:space="preserve" x="0" y="13" font-family="Verdana" font-size="10pt" font-weight="400" font-style="normal"   >Z</text> </g>                    <g fill="none" stroke="#ffffff" stroke-opacity="1" stroke-width="4" stroke-linecap="butt" stroke-linejoin="bevel" transform="matrix(0,-1,1,0,301,117)" font-family="MS Shell Dlg 2" font-size="14.25" font-weight="400" font-style="normal"  > <polyline fill="none" vector-effect="none" points="0,10 90,10 " /> </g>      <g fill="#000000" fill-opacity="1" stroke="#000000" stroke-opacity="1" stroke-width="1" stroke-linecap="square" stroke-linejoin="bevel" transform="matrix(0,-1,1,0,309.5,27)" font-family="MS Shell Dlg 2" font-size="14.25" font-weight="400" font-style="normal"  > <circle cx="1.5" cy="1.5" r="1.5"/> </g>          <g fill="none" stroke="#0000ff" stroke-opacity="1" stroke-width="1" stroke-linecap="square" stroke-linejoin="bevel" transform="matrix(1,0,0,1,306.5,8)" font-family="Verdana" font-size="10pt" font-weight="400" font-style="normal"  > <text fill="#0000ff" fill-opacity="1" stroke="none" xml:space="preserve" x="0" y="13" font-family="Verdana" font-size="10pt" font-weight="400" font-style="normal"   >Z</text> </g>                                                                                                                                             </g> </svg> 