<?xml version="1.0" encoding="UTF-8" standalone="no"?> <svg width="113.594mm" height="78.6694mm"  viewBox="0 0 322 223.714"  xmlns="http://www.w3.org/2000/svg" xmlns:xlink="http://www.w3.org/1999/xlink"  version="1.2" baseProfile="tiny"> <title>Generated with ETE http://etetoolkit.org</title> <desc>Generated with ETE http://etetoolkit.org</desc> <defs> </defs> <g fill="none" stroke="black" stroke-width="1" fill-rule="evenodd" stroke-linecap="square" stroke-linejoin="bevel" >      <g fill="none" stroke="none" transform="matrix(1,0,0,1,0,-48.1429)" font-family="MS Shell Dlg 2" font-size="14.25" font-weight="400" font-style="normal"  > <rect x="0" y="48.1429" width="322" height="223.714"/> </g>      <g fill="none" stroke="none" transform="matrix(0,-1,1,0,1,222.714)" font-family="MS Shell Dlg 2" font-size="14.25" font-weight="400" font-style="normal"  > <rect x="0" y="0" width="221.714" height="320"/> </g>      <g fill="#2e3440" fill-opacity="1" stroke="#2e3440" stroke-opacity="1" stroke-width="1" stroke-linecap="square" stroke-linejoin="bevel" transform="matrix(0,-1,1,0,1,222.714)" font-family="MS Shell Dlg 2" font-size="14.25" font-weight="400" font-style="normal"  > <rect x="0" y="0" width="221.714" height="320"/> </g>      <g fill="#2e3440" fill-opacity="1" stroke="#2e3440" stroke-opacity="1" stroke-width="1" stroke-linecap="square" stroke-linejoin="bevel" transform="matrix(0,-1,1,0,1,197)" font-family="MS Shell Dlg 2" font-size="14.25" font-weight="400" font-style="normal"  > <rect x="0" y="0" width="196" height="160"/> </g>      <g fill="#2e3440" fill-opacity="1" stroke="#2e3440" stroke-opacity="1" stroke-width="1" stroke-linecap="square" stroke-linejoin="bevel" transform="matrix(0,-1,1,0,1,145.571)" font-family="MS Shell Dlg 2" font-size="14.25" font-weight="400" font-style="normal"  > <rect x="0" y="0" width="144.571" height="60"/> </g>      <g fill="#2e3440" fill-opacity="1" stroke="#2e3440" stroke-opacity="1" stroke-width="1" stroke-linecap="square" stroke-linejoin="bevel" transform="matrix(0,-1,1,0,1,119.857)" font-family="MS Shell Dlg 2" font-size="14.25" font-weight="400" font-style="normal"  > <rect x="0" y="0" width="118.857" height="40"/> </g>      <g fill="#2e3440" fill-opacity="1" stroke="#2e3440" stroke-opacity="1" stroke-width="1" stroke-linecap="square" stroke-linejoin="bevel" transform="matrix(0,-1,1,0,1,94.1429)" font-family="MS Shell Dlg 2" font-size="14.25" font-weight="400" font-style="normal"  > <rect x="0" y="0" width="93.1429" height="20"/> </g>      <g fill="#2e3440" fill-opacity="1" stroke="#2e3440" stroke-opacity="1" stroke-width="1" stroke-linecap="square" stroke-linejoin="bevel" transform="matrix(0,-1,1,0,21,94.1429)" font-family="MS Shell Dlg 2" font-size="14.25" font-weight="400" font-style="normal"  > <rect x="0" y="0" width="93.1429" height="20"/> </g>      <g fill="#2e3440" fill-opacity="1" stroke="#2e3440" stroke-opacity="1" stroke-width="1" stroke-linecap="square" stroke-linejoin="bevel" transform="matrix(0,-1,1,0,41,119.857)" font-family="MS Shell Dlg 2" font-size="14.25" font-weight="400" font-style="normal"  > <rect x="0" y="0" width="118.857" height="20"/> </g>      <g fill="#2e3440" fill-opacity="1" stroke="#2e3440" stroke-opacity="1" stroke-width="1" stroke-linecap="square" stroke-linejoin="bevel" transform="matrix(0,-1,1,0,61,145.571)" font-family="MS Shell Dlg 2" font-size="14.25" font-weight="400" font-style="normal"  > <rect x="0" y="0" width="144.571" height="100"/> </g>      <g fill="#2e3440" fill-opacity="1" stroke="#2e3440" stroke-opacity="1" stroke-width="1" stroke-linecap="square" stroke-linejoin="bevel" transform="matrix(0,-1,1,0,61,119.857)" font-family="MS Shell Dlg 2" font-size="14.25" font-weight="400" font-style="normal"  > <rect x="0" y="0" width="118.857" height="80"/> </g>      <g fill="#2e3440" fill-opacity="1" stroke="#2e3440" stroke-opacity="1" stroke-width="1" stroke-linecap="square" stroke-linejoin="bevel" transform="matrix(0,-1,1,0,61,94.1429)" font-family="MS Shell Dlg 2" font-size="14.25" font-weight="400" font-style="normal"  > <rect x="0" y="0" width="93.1429" height="40"/> </g>      <g fill="#2e3440" fill-opacity="1" stroke="#2e3440" stroke-opacity="1" stroke-width="1" stroke-linecap="square" stroke-linejoin="bevel" transform="matrix(0,-1,1,0,61,68.4286)" font-family="MS Shell Dlg 2" font-size="14.25" font-weight="400" font-style="normal"  > <rect x="0" y="0" width="67.4286" height="20"/> </g>      <g fill="#2e3440" fill-opacity="1" stroke="#2e3440" stroke-opacity="1" stroke-width="1" stroke-linecap="square" stroke-linejoin="bevel" transform="matrix(0,-1,1,0,81,68.4286)" font-family="MS Shell Dlg 2" font-size="14.25" font-weight="400" font-style="normal"  > <rect x="0" y="0" width="67.4286" height="20"/> </g>      <g fill="#2e3440" fill-opacity="1" stroke="#2e3440" stroke-opacity="1" stroke-width="1" stroke-linecap="square" stroke-linejoin="bevel" transform="matrix(0,-1,1,0,101,94.1429)" font-family="MS Shell Dlg 2" font-size="14.25" font-weight="400" font-style="normal"  > <rect x="0" y="0" width="93.1429" height="40"/> </g>      <g fill="#2e3440" fill-opacity="1" stroke="#2e3440" stroke-opacity="1" stroke-width="1" stroke-linecap="square" stroke-linejoin="bevel" transform="matrix(0,-1,1,0,101,68.4286)" font-family="MS Shell Dlg 2" font-size="14.25" font-weight="400" font-style="normal"  > <rect x="0" y="0" width="67.4286" height="20"/> </g>      <g fill="#2e3440" fill-opacity="1" stroke="#2e3440" stroke-opacity="1" stroke-width="1" stroke-linecap="square" stroke-linejoin="bevel" transform="matrix(0,-1,1,0,121,68.4286)" font-family="MS Shell Dlg 2" font-size="14.25" font-weight="400" font-style="normal"  > <rect x="0" y="0" width="67.4286" height="20"/> </g>      <g fill="#2e3440" fill-opacity="1" stroke="#2e3440" stroke-opacity="1" stroke-width="1" stroke-linecap="square" stroke-linejoin="bevel" transform="matrix(0,-1,1,0,141,119.857)" font-family="MS Shell Dlg 2" font-size="14.25" font-weight="400" font-style="normal"  > <rect x="0" y="0" width="118.857" height="20"/> </g>      <g fill="#2e3440" fill-opacity="1" stroke="#2e3440" stroke-opacity="1" stroke-width="1" stroke-linecap="square" stroke-linejoin="bevel" transform="matrix(0,-1,1,0,161,197)" font-family="MS Shell Dlg 2" font-size="14.25" font-weight="400" font-style="normal"  > <rect x="0" y="0" width="196" height="160"/> </g>      <g fill="#2e3440" fill-opacity="1" stroke="#2e3440" stroke-opacity="1" stroke-width="1" stroke-linecap="square" stroke-linejoin="bevel" transform="matrix(0,-1,1,0,161,119.857)" font-family="MS Shell Dlg 2" font-size="14.25" font-weight="400" font-style="normal"  > <rect x="0" y="0" width="118.857" height="80"/> </g>      <g fill="#2e3440" fill-opacity="1" stroke="#2e3440" stroke-opacity="1" stroke-width="1" stroke-linecap="square" stroke-linejoin="bevel" transform="matrix(0,-1,1,0,161,94.1429)" font-family="MS Shell Dlg 2" font-size="14.25" font-weight="400" font-style="normal"  > <rect x="0" y="0" width="93.1429" height="20"/> </g>      <g fill="#2e3440" fill-opacity="1" stroke="#2e3440" stroke-opacity="1" stroke-width="1" stroke-linecap="square" stroke-linejoin="bevel" transform="matrix(0,-1,1,0,181,94.1429)" font-family="MS Shell Dlg 2" font-size="14.25" font-weight="400" font-style="normal"  > <rect x="0" y="0" width="93.1429" height="60"/> </g>      <g fill="#2e3440" fill-opacity="1" stroke="#2e3440" stroke-opacity="1" stroke-width="1" stroke-linecap="square" stroke-linejoin="bevel" transform="matrix(0,-1,1,0,181,68.4286)" font-family="MS Shell Dlg 2" font-size="14.25" font-weight="400" font-style="normal"  > <rect x="0" y="0" width="67.4286" height="20"/> </g>      <g fill="#2e3440" fill-opacity="1" stroke="#2e3440" stroke-opacity="1" stroke-width="1" stroke-linecap="square" stroke-linejoin="bevel" transform="matrix(0,-1,1,0,181,42.7143)" font-family="MS Shell Dlg 2" font-size="14.25" font-weight="400" font-style="normal"  > <rect x="0" y="0" width="41.7143" height="20"/> </g>      <g fill="#2e3440" fill-opacity="1" stroke="#2e3440" stroke-opacity="1" stroke-width="1" stroke-linecap="square" stroke-linejoin="bevel" transform="matrix(0,-1,1,0,201,68.4286)" font-family="MS Shell Dlg 2" font-size="14.25" font-weight="400" font-style="normal"  > <rect x="0" y="0" width="67.4286" height="40"/> </g>      <g fill="#2e3440" fill-opacity="1" stroke="#2e3440" stroke-opacity="1" stroke-width="1" stroke-linecap="square" stroke-linejoin="bevel" transform="matrix(0,-1,1,0,201,42.7143)" font-family="MS Shell Dlg 2" font-size="14.25" font-weight="400" font-style="normal"  > <rect x="0" y="0" width="41.7143" height="20"/> </g>      <g fill="#2e3440" fill-opacity="1" stroke="#2e3440" stroke-opacity="1" stroke-width="1" stroke-linecap="square" stroke-linejoin="bevel" transform="matrix(0,-1,1,0,221,42.7143)" font-family="MS Shell Dlg 2" font-size="14.25" font-weight="400" font-style="normal"  > <rect x="0" y="0" width="41.7143" height="20"/> </g>      <g fill="#2e3440" fill-opacity="1" stroke="#2e3440" stroke-opacity="1" stroke-width="1" stroke-linecap="square" stroke-linejoin="bevel" transform="matrix(0,-1,1,0,241,119.857)" font-family="MS Shell Dlg 2" font-size="14.25" font-weight="400" font-style="normal"  > <rect x="0" y="0" width="118.857" height="80"/> </g>      <g fill="#2e3440" fill-opacity="1" stroke="#2e3440" stroke-opacity="1" stroke-width="1" stroke-linecap="square" stroke-linejoin="bevel" transform="matrix(0,-1,1,0,241,94.1429)" font-family="MS Shell Dlg 2" font-size="14.25" font-weight="400" font-style="normal"  > <rect x="0" y="0" width="93.1429" height="40"/> </g>      <g fill="#2e3440" fill-opacity="1" stroke="#2e3440" stroke-opacity="1" stroke-width="1" stroke-linecap="square" stroke-linejoin="bevel" transform="matrix(0,-1,1,0,241,68.4286)" font-family="MS Shell Dlg 2" font-size="14.25" font-weight="400" font-style="normal"  > <rect x="0" y="0" width="67.4286" height="20"/> </g>      <g fill="#2e3440" fill-opacity="1" stroke="#2e3440" stroke-opacity="1" stroke-width="1" stroke-linecap="square" stroke-linejoin="bevel" transform="matrix(0,-1,1,0,261,68.4286)" font-family="MS Shell Dlg 2" font-size="14.25" font-weight="400" font-style="normal"  > <rect x="0" y="0" width="67.4286" height="20"/> </g>      <g fill="#2e3440" fill-opacity="1" stroke="#2e3440" stroke-opacity="1" stroke-width="1" stroke-linecap="square" stroke-linejoin="bevel" transform="matrix(0,-1,1,0,281,94.1429)" font-family="MS Shell Dlg 2" font-size="14.25" font-weight="400" font-style="normal"  > <rect x="0" y="0" width="93.1429" height="40"/> </g>      <g fill="#2e3440" fill-opacity="1" stroke="#2e3440" stroke-opacity="1" stroke-width="1" stroke-linecap="square" stroke-linejoin="bevel" transform="matrix(0,-1,1,0,281,68.4286)" font-family="MS Shell Dlg 2" font-size="14.25" font-weight="400" font-style="normal"  > <rect x="0" y="0" width="67.4286" height="20"/> </g>      <g fill="#2e3440" fill-opacity="1" stroke="#2e3440" stroke-opacity="1" stroke-width="1" stroke-linecap="square" stroke-linejoin="bevel" transform="matrix(0,-1,1,0,301,68.4286)" font-family="MS Shell Dlg 2" font-size="14.25" font-weight="400" font-style="normal"  > <rect x="0" y="0" width="67.4286" height="20"/> </g>                                                                                                                                      <g fill="none" stroke="#ffffff" stroke-opacity="1" stroke-width="4" stroke-linecap="butt" stroke-linejoin="bevel" transform="matrix(0,-1,1,0,1,222.714)" font-family="MS Shell Dlg 2" font-size="14.25" font-weight="400" font-style="normal"  > <polyline fill="none" vector-effect="none" points="23.7143,78 23.7143,235.75 " /> </g>      <g fill="none" stroke="#808080" stroke-opacity="1" stroke-dasharray="4,8" stroke-dashoffset="0" stroke-width="4" stroke-linecap="butt" stroke-linejoin="bevel" transform="matrix(0,-1,1,0,1,222.714)" font-family="MS Shell Dlg 2" font-size="14.25" font-weight="400" font-style="normal"  > <polyline fill="none" vector-effect="none" points="25.7143,156.875 21.7143,156.875 " /> </g>      <g fill="none" stroke="#ffffff" stroke-opacity="1" stroke-width="4" stroke-linecap="butt" stroke-linejoin="bevel" transform="matrix(0,-1,1,0,1,222.714)" font-family="MS Shell Dlg 2" font-size="14.25" font-weight="400" font-style="normal"  > <polyline fill="none" vector-effect="none" points="0,156.875 25.7143,156.875 " /> </g>                  <g fill="none" stroke="#ffffff" stroke-opacity="1" stroke-width="4" stroke-linecap="butt" stroke-linejoin="bevel" transform="matrix(0,-1,1,0,1,197)" font-family="MS Shell Dlg 2" font-size="14.25" font-weight="400" font-style="normal"  > <polyline fill="none" vector-effect="none" points="49.4286,33 49.4286,127 " /> </g>      <g fill="none" stroke="#808080" stroke-opacity="1" stroke-dasharray="4,8" stroke-dashoffset="0" stroke-width="4" stroke-linecap="butt" stroke-linejoin="bevel" transform="matrix(0,-1,1,0,1,197)" font-family="MS Shell Dlg 2" font-size="14.25" font-weight="400" font-style="normal"  > <polyline fill="none" vector-effect="none" points="51.4286,80 47.4286,80 " /> </g>      <g fill="none" stroke="#ffffff" stroke-opacity="1" stroke-width="4" stroke-linecap="butt" stroke-linejoin="bevel" transform="matrix(0,-1,1,0,1,197)" font-family="MS Shell Dlg 2" font-size="14.25" font-weight="400" font-style="normal"  > <polyline fill="none" vector-effect="none" points="0,80 51.4286,80 " /> </g>                  <g fill="none" stroke="#ffffff" stroke-opacity="1" stroke-width="4" stroke-linecap="butt" stroke-linejoin="bevel" transform="matrix(0,-1,1,0,1,145.571)" font-family="MS Shell Dlg 2" font-size="14.25" font-weight="400" font-style="normal"  > <polyline fill="none" vector-effect="none" points="23.7143,18 23.7143,52 " /> </g>      <g fill="none" stroke="#808080" stroke-opacity="1" stroke-dasharray="4,8" stroke-dashoffset="0" stroke-width="4" stroke-linecap="butt" stroke-linejoin="bevel" transform="matrix(0,-1,1,0,1,145.571)" font-family="MS Shell Dlg 2" font-size="14.25" font-weight="400" font-style="normal"  > <polyline fill="none" vector-effect="none" points="25.7143,35 21.7143,35 " /> </g>      <g fill="none" stroke="#ffffff" stroke-opacity="1" stroke-width="4" stroke-linecap="butt" stroke-linejoin="bevel" transform="matrix(0,-1,1,0,1,145.571)" font-family="MS Shell Dlg 2" font-size="14.25" font-weight="400" font-style="normal"  > <polyline fill="none" vector-effect="none" points="0,35 25.7143,35 " /> </g>                  <g fill="none" stroke="#ffffff" stroke-opacity="1" stroke-width="4" stroke-linecap="butt" stroke-linejoin="bevel" transform="matrix(0,-1,1,0,1,119.857)" font-family="MS Shell Dlg 2" font-size="14.25" font-weight="400" font-style="normal"  > <polyline fill="none" vector-effect="none" points="23.7143,8 23.7143,32 " /> </g>      <g fill="none" stroke="#808080" stroke-opacity="1" stroke-dasharray="4,8" stroke-dashoffset="0" stroke-width="4" stroke-linecap="butt" stroke-linejoin="bevel" transform="matrix(0,-1,1,0,1,119.857)" font-family="MS Shell Dlg 2" font-size="14.25" font-weight="400" font-style="normal"  > <polyline fill="none" vector-effect="none" points="25.7143,20 21.7143,20 " /> </g>      <g fill="none" stroke="#ffffff" stroke-opacity="1" stroke-width="4" stroke-linecap="butt" stroke-linejoin="bevel" transform="matrix(0,-1,1,0,1,119.857)" font-family="MS Shell Dlg 2" font-size="14.25" font-weight="400" font-style="normal"  > <polyline fill="none" vector-effect="none" points="0,20 25.7143,20 " /> </g>                        <g fill="none" stroke="#ffffff" stroke-opacity="1" stroke-width="4" stroke-linecap="butt" stroke-linejoin="bevel" transform="matrix(0,-1,1,0,1,94.1429)" font-family="MS Shell Dlg 2" font-size="14.25" font-weight="400" font-style="normal"  > <polyline fill="none" vector-effect="none" points="0,10 77.1429,10 " /> </g>          <g fill="none" stroke="#0000ff" stroke-opacity="1" stroke-width="1" stroke-linecap="square" stroke-linejoin="bevel" transform="matrix(1,0,0,1,6.5,1)" font-family="Verdana" font-size="10pt" font-weight="400" font-style="normal"  > <text fill="#0000ff" fill-opacity="1" stroke="none" xml:space="preserve" x="0" y="13" font-family="Verdana" font-size="10pt" font-weight="400" font-style="normal"   >X</text> </g>                    <g fill="none" stroke="#ffffff" stroke-opacity="1" stroke-width="4" stroke-linecap="butt" stroke-linejoin="bevel" transform="matrix(0,-1,1,0,21,94.1429)" font-family="MS Shell Dlg 2" font-size="14.25" font-weight="400" font-style="normal"  > <polyline fill="none" vector-effect="none" points="0,10 77.1429,10 " /> </g>          <g fill="none" stroke="#0000ff" stroke-opacity="1" stroke-width="1" stroke-linecap="square" stroke-linejoin="bevel" transform="matrix(1,0,0,1,26.5,1)" font-family="Verdana" font-size="10pt" font-weight="400" font-style="normal"  > <text fill="#0000ff" fill-opacity="1" stroke="none" xml:space="preserve" x="0" y="13" font-family="Verdana" font-size="10pt" font-weight="400" font-style="normal"   >X</text> </g>                    <g fill="none" stroke="#ffffff" stroke-opacity="1" stroke-width="4" stroke-linecap="butt" stroke-linejoin="bevel" transform="matrix(0,-1,1,0,41,119.857)" font-family="MS Shell Dlg 2" font-size="14.25" font-weight="400" font-style="normal"  > <polyline fill="none" vector-effect="none" points="0,10 102.857,10 " /> </g>          <g fill="none" stroke="#0000ff" stroke-opacity="1" stroke-width="1" stroke-linecap="square" stroke-linejoin="bevel" transform="matrix(1,0,0,1,46.5,1)" font-family="Verdana" font-size="10pt" font-weight="400" font-style="normal"  > <text fill="#0000ff" fill-opacity="1" stroke="none" xml:space="preserve" x="0" y="13" font-family="Verdana" font-size="10pt" font-weight="400" font-style="normal"   >X</text> </g>              <g fill="none" stroke="#ffffff" stroke-opacity="1" stroke-width="4" stroke-linecap="butt" stroke-linejoin="bevel" transform="matrix(0,-1,1,0,61,145.571)" font-family="MS Shell Dlg 2" font-size="14.25" font-weight="400" font-style="normal"  > <polyline fill="none" vector-effect="none" points="23.7143,38 23.7143,92 " /> </g>      <g fill="none" stroke="#808080" stroke-opacity="1" stroke-dasharray="4,8" stroke-dashoffset="0" stroke-width="4" stroke-linecap="butt" stroke-linejoin="bevel" transform="matrix(0,-1,1,0,61,145.571)" font-family="MS Shell Dlg 2" font-size="14.25" font-weight="400" font-style="normal"  > <polyline fill="none" vector-effect="none" points="25.7143,65 21.7143,65 " /> </g>      <g fill="none" stroke="#ffffff" stroke-opacity="1" stroke-width="4" stroke-linecap="butt" stroke-linejoin="bevel" transform="matrix(0,-1,1,0,61,145.571)" font-family="MS Shell Dlg 2" font-size="14.25" font-weight="400" font-style="normal"  > <polyline fill="none" vector-effect="none" points="0,65 25.7143,65 " /> </g>                  <g fill="none" stroke="#ffffff" stroke-opacity="1" stroke-width="4" stroke-linecap="butt" stroke-linejoin="bevel" transform="matrix(0,-1,1,0,61,119.857)" font-family="MS Shell Dlg 2" font-size="14.25" font-weight="400" font-style="normal"  > <polyline fill="none" vector-effect="none" points="23.7143,18 23.7143,62 " /> </g>      <g fill="none" stroke="#808080" stroke-opacity="1" stroke-dasharray="4,8" stroke-dashoffset="0" stroke-width="4" stroke-linecap="butt" stroke-linejoin="bevel" transform="matrix(0,-1,1,0,61,119.857)" font-family="MS Shell Dlg 2" font-size="14.25" font-weight="400" font-style="normal"  > <polyline fill="none" vector-effect="none" points="25.7143,40 21.7143,40 " /> </g>      <g fill="none" stroke="#ffffff" stroke-opacity="1" stroke-width="4" stroke-linecap="butt" stroke-linejoin="bevel" transform="matrix(0,-1,1,0,61,119.857)" font-family="MS Shell Dlg 2" font-size="14.25" font-weight="400" font-style="normal"  > <polyline fill="none" vector-effect="none" points="0,40 25.7143,40 " /> </g>                  <g fill="none" stroke="#ffffff" stroke-opacity="1" stroke-width="4" stroke-linecap="butt" stroke-linejoin="bevel" transform="matrix(0,-1,1,0,61,94.1429)" font-family="MS Shell Dlg 2" font-size="14.25" font-weight="400" font-style="normal"  > <polyline fill="none" vector-effect="none" points="23.7143,8 23.7143,32 " /> </g>      <g fill="none" stroke="#808080" stroke-opacity="1" stroke-dasharray="4,8" stroke-dashoffset="0" stroke-width="4" stroke-linecap="butt" stroke-linejoin="bevel" transform="matrix(0,-1,1,0,61,94.1429)" font-family="MS Shell Dlg 2" font-size="14.25" font-weight="400" font-style="normal"  > <polyline fill="none" vector-effect="none" points="25.7143,20 21.7143,20 " /> </g>      <g fill="none" stroke="#ffffff" stroke-opacity="1" stroke-width="4" stroke-linecap="butt" stroke-linejoin="bevel" transform="matrix(0,-1,1,0,61,94.1429)" font-family="MS Shell Dlg 2" font-size="14.25" font-weight="400" font-style="normal"  > <polyline fill="none" vector-effect="none" points="0,20 25.7143,20 " /> </g>                        <g fill="none" stroke="#ffffff" stroke-opacity="1" stroke-width="4" stroke-linecap="butt" stroke-linejoin="bevel" transform="matrix(0,-1,1,0,61,68.4286)" font-family="MS Shell Dlg 2" font-size="14.25" font-weight="400" font-style="normal"  > <polyline fill="none" vector-effect="none" points="0,10 51.4286,10 " /> </g>          <g fill="none" stroke="#0000ff" stroke-opacity="1" stroke-width="1" stroke-linecap="square" stroke-linejoin="bevel" transform="matrix(1,0,0,1,66.5,1)" font-family="Verdana" font-size="10pt" font-weight="400" font-style="normal"  > <text fill="#0000ff" fill-opacity="1" stroke="none" xml:space="preserve" x="0" y="13" font-family="Verdana" font-size="10pt" font-weight="400" font-style="normal"   >X</text> </g>                    <g fill="none" stroke="#ffffff" stroke-opacity="1" stroke-width="4" stroke-linecap="butt" stroke-linejoin="bevel" transform="matrix(0,-1,1,0,81,68.4286)" font-family="MS Shell Dlg 2" font-size="14.25" font-weight="400" font-style="normal"  > <polyline fill="none" vector-effect="none" points="0,10 51.4286,10 " /> </g>          <g fill="none" stroke="#0000ff" stroke-opacity="1" stroke-width="1" stroke-linecap="square" stroke-linejoin="bevel" transform="matrix(1,0,0,1,86.5,1)" font-family="Verdana" font-size="10pt" font-weight="400" font-style="normal"  > <text fill="#0000ff" fill-opacity="1" stroke="none" xml:space="preserve" x="0" y="13" font-family="Verdana" font-size="10pt" font-weight="400" font-style="normal"   >X</text> </g>              <g fill="none" stroke="#ffffff" stroke-opacity="1" stroke-width="4" stroke-linecap="butt" stroke-linejoin="bevel" transform="matrix(0,-1,1,0,101,94.1429)" font-family="MS Shell Dlg 2" font-size="14.25" font-weight="400" font-style="normal"  > <polyline fill="none" vector-effect="none" points="23.7143,8 23.7143,32 " /> </g>      <g fill="none" stroke="#808080" stroke-opacity="1" stroke-dasharray="4,8" stroke-dashoffset="0" stroke-width="4" stroke-linecap="butt" stroke-linejoin="bevel" transform="matrix(0,-1,1,0,101,94.1429)" font-family="MS Shell Dlg 2" font-size="14.25" font-weight="400" font-style="normal"  > <polyline fill="none" vector-effect="none" points="25.7143,20 21.7143,20 " /> </g>      <g fill="none" stroke="#ffffff" stroke-opacity="1" stroke-width="4" stroke-linecap="butt" stroke-linejoin="bevel" transform="matrix(0,-1,1,0,101,94.1429)" font-family="MS Shell Dlg 2" font-size="14.25" font-weight="400" font-style="normal"  > <polyline fill="none" vector-effect="none" points="0,20 25.7143,20 " /> </g>                        <g fill="none" stroke="#ffffff" stroke-opacity="1" stroke-width="4" stroke-linecap="butt" stroke-linejoin="bevel" transform="matrix(0,-1,1,0,101,68.4286)" font-family="MS Shell Dlg 2" font-size="14.25" font-weight="400" font-style="normal"  > <polyline fill="none" vector-effect="none" points="0,10 51.4286,10 " /> </g>          <g fill="none" stroke="#0000ff" stroke-opacity="1" stroke-width="1" stroke-linecap="square" stroke-linejoin="bevel" transform="matrix(1,0,0,1,106.5,1)" font-family="Verdana" font-size="10pt" font-weight="400" font-style="normal"  > <text fill="#0000ff" fill-opacity="1" stroke="none" xml:space="preserve" x="0" y="13" font-family="Verdana" font-size="10pt" font-weight="400" font-style="normal"   >X</text> </g>                    <g fill="none" stroke="#ffffff" stroke-opacity="1" stroke-width="4" stroke-linecap="butt" stroke-linejoin="bevel" transform="matrix(0,-1,1,0,121,68.4286)" font-family="MS Shell Dlg 2" font-size="14.25" font-weight="400" font-style="normal"  > <polyline fill="none" vector-effect="none" points="0,10 51.4286,10 " /> </g>          <g fill="none" stroke="#0000ff" stroke-opacity="1" stroke-width="1" stroke-linecap="square" stroke-linejoin="bevel" transform="matrix(1,0,0,1,126.5,1)" font-family="Verdana" font-size="10pt" font-weight="400" font-style="normal"  > <text fill="#0000ff" fill-opacity="1" stroke="none" xml:space="preserve" x="0" y="13" font-family="Verdana" font-size="10pt" font-weight="400" font-style="normal"   >X</text> </g>                    <g fill="none" stroke="#ffffff" stroke-opacity="1" stroke-width="4" stroke-linecap="butt" stroke-linejoin="bevel" transform="matrix(0,-1,1,0,141,119.857)" font-family="MS Shell Dlg 2" font-size="14.25" font-weight="400" font-style="normal"  > <polyline fill="none" vector-effect="none" points="0,10 102.857,10 " /> </g>          <g fill="none" stroke="#0000ff" stroke-opacity="1" stroke-width="1" stroke-linecap="square" stroke-linejoin="bevel" transform="matrix(1,0,0,1,146.5,1)" font-family="Verdana" font-size="10pt" font-weight="400" font-style="normal"  > <text fill="#0000ff" fill-opacity="1" stroke="none" xml:space="preserve" x="0" y="13" font-family="Verdana" font-size="10pt" font-weight="400" font-style="normal"   >X</text> </g>              <g fill="none" stroke="#ffffff" stroke-opacity="1" stroke-width="4" stroke-linecap="butt" stroke-linejoin="bevel" transform="matrix(0,-1,1,0,161,197)" font-family="MS Shell Dlg 2" font-size="14.25" font-weight="400" font-style="normal"  > <polyline fill="none" vector-effect="none" points="75.1429,25.5 75.1429,122 " /> </g>      <g fill="none" stroke="#808080" stroke-opacity="1" stroke-dasharray="4,8" stroke-dashoffset="0" stroke-width="4" stroke-linecap="butt" stroke-linejoin="bevel" transform="matrix(0,-1,1,0,161,197)" font-family="MS Shell Dlg 2" font-size="14.25" font-weight="400" font-style="normal"  > <polyline fill="none" vector-effect="none" points="77.1429,73.75 73.1429,73.75 " /> </g>      <g fill="none" stroke="#ffffff" stroke-opacity="1" stroke-width="4" stroke-linecap="butt" stroke-linejoin="bevel" transform="matrix(0,-1,1,0,161,197)" font-family="MS Shell Dlg 2" font-size="14.25" font-weight="400" font-style="normal"  > <polyline fill="none" vector-effect="none" points="0,73.75 77.1429,73.75 " /> </g>                  <g fill="none" stroke="#ffffff" stroke-opacity="1" stroke-width="4" stroke-linecap="butt" stroke-linejoin="bevel" transform="matrix(0,-1,1,0,161,119.857)" font-family="MS Shell Dlg 2" font-size="14.25" font-weight="400" font-style="normal"  > <polyline fill="none" vector-effect="none" points="23.7143,8 23.7143,47 " /> </g>      <g fill="none" stroke="#808080" stroke-opacity="1" stroke-dasharray="4,8" stroke-dashoffset="0" stroke-width="4" stroke-linecap="butt" stroke-linejoin="bevel" transform="matrix(0,-1,1,0,161,119.857)" font-family="MS Shell Dlg 2" font-size="14.25" font-weight="400" font-style="normal"  > <polyline fill="none" vector-effect="none" points="25.7143,27.5 21.7143,27.5 " /> </g>      <g fill="none" stroke="#ffffff" stroke-opacity="1" stroke-width="4" stroke-linecap="butt" stroke-linejoin="bevel" transform="matrix(0,-1,1,0,161,119.857)" font-family="MS Shell Dlg 2" font-size="14.25" font-weight="400" font-style="normal"  > <polyline fill="none" vector-effect="none" points="0,27.5 25.7143,27.5 " /> </g>                        <g fill="none" stroke="#ffffff" stroke-opacity="1" stroke-width="4" stroke-linecap="butt" stroke-linejoin="bevel" transform="matrix(0,-1,1,0,161,94.1429)" font-family="MS Shell Dlg 2" font-size="14.25" font-weight="400" font-style="normal"  > <polyline fill="none" vector-effect="none" points="0,10 77.1429,10 " /> </g>          <g fill="none" stroke="#ff0000" stroke-opacity="1" stroke-width="1" stroke-linecap="square" stroke-linejoin="bevel" transform="matrix(1,0,0,1,166.5,1)" font-family="Verdana" font-size="10pt" font-weight="400" font-style="normal"  > <text fill="#ff0000" fill-opacity="1" stroke="none" xml:space="preserve" x="0" y="13" font-family="Verdana" font-size="10pt" font-weight="400" font-style="normal"   >Y</text> </g>              <g fill="none" stroke="#ffffff" stroke-opacity="1" stroke-width="4" stroke-linecap="butt" stroke-linejoin="bevel" transform="matrix(0,-1,1,0,181,94.1429)" font-family="MS Shell Dlg 2" font-size="14.25" font-weight="400" font-style="normal"  > <polyline fill="none" vector-effect="none" points="23.7143,8 23.7143,42 " /> </g>      <g fill="none" stroke="#808080" stroke-opacity="1" stroke-dasharray="4,8" stroke-dashoffset="0" stroke-width="4" stroke-linecap="butt" stroke-linejoin="bevel" transform="matrix(0,-1,1,0,181,94.1429)" font-family="MS Shell Dlg 2" font-size="14.25" font-weight="400" font-style="normal"  > <polyline fill="none" vector-effect="none" points="25.7143,25 21.7143,25 " /> </g>      <g fill="none" stroke="#ffffff" stroke-opacity="1" stroke-width="4" stroke-linecap="butt" stroke-linejoin="bevel" transform="matrix(0,-1,1,0,181,94.1429)" font-family="MS Shell Dlg 2" font-size="14.25" font-weight="400" font-style="normal"  > <polyline fill="none" vector-effect="none" points="0,25 25.7143,25 " /> </g>                  <g fill="none" stroke="#ffffff" stroke-opacity="1" stroke-width="4" stroke-linecap="butt" stroke-linejoin="bevel" transform="matrix(0,-1,1,0,181,68.4286)" font-family="MS Shell Dlg 2" font-size="14.25" font-weight="400" font-style="normal"  > <polyline fill="none" vector-effect="none" points="25.7143,8 25.7143,12 " /> </g>            <g fill="none" stroke="#ffffff" stroke-opacity="1" stroke-width="4" stroke-linecap="butt" stroke-linejoin="bevel" transform="matrix(0,-1,1,0,181,68.4286)" font-family="MS Shell Dlg 2" font-size="14.25" font-weight="400" font-style="normal"  > <polyline fill="none" vector-effect="none" points="0,10 25.7143,10 " /> </g>                        <g fill="none" stroke="#ffffff" stroke-opacity="1" stroke-width="4" stroke-linecap="butt" stroke-linejoin="bevel" transform="matrix(0,-1,1,0,181,42.7143)" font-family="MS Shell Dlg 2" font-size="14.25" font-weight="400" font-style="normal"  > <polyline fill="none" vector-effect="none" points="0,10 25.7143,10 " /> </g>          <g fill="none" stroke="#ff0000" stroke-opacity="1" stroke-width="1" stroke-linecap="square" stroke-linejoin="bevel" transform="matrix(1,0,0,1,186.5,1)" font-family="Verdana" font-size="10pt" font-weight="400" font-style="normal"  > <text fill="#ff0000" fill-opacity="1" stroke="none" xml:space="preserve" x="0" y="13" font-family="Verdana" font-size="10pt" font-weight="400" font-style="normal"   >Y</text> </g>              <g fill="none" stroke="#ffffff" stroke-opacity="1" stroke-width="4" stroke-linecap="butt" stroke-linejoin="bevel" transform="matrix(0,-1,1,0,201,68.4286)" font-family="MS Shell Dlg 2" font-size="14.25" font-weight="400" font-style="normal"  > <polyline fill="none" vector-effect="none" points="23.7143,8 23.7143,32 " /> </g>      <g fill="none" stroke="#808080" stroke-opacity="1" stroke-dasharray="4,8" stroke-dashoffset="0" stroke-width="4" stroke-linecap="butt" stroke-linejoin="bevel" transform="matrix(0,-1,1,0,201,68.4286)" font-family="MS Shell Dlg 2" font-size="14.25" font-weight="400" font-style="normal"  > <polyline fill="none" vector-effect="none" points="25.7143,20 21.7143,20 " /> </g>      <g fill="none" stroke="#ffffff" stroke-opacity="1" stroke-width="4" stroke-linecap="butt" stroke-linejoin="bevel" transform="matrix(0,-1,1,0,201,68.4286)" font-family="MS Shell Dlg 2" font-size="14.25" font-weight="400" font-style="normal"  > <polyline fill="none" vector-effect="none" points="0,20 25.7143,20 " /> </g>                        <g fill="none" stroke="#ffffff" stroke-opacity="1" stroke-width="4" stroke-linecap="butt" stroke-linejoin="bevel" transform="matrix(0,-1,1,0,201,42.7143)" font-family="MS Shell Dlg 2" font-size="14.25" font-weight="400" font-style="normal"  > <polyline fill="none" vector-effect="none" points="0,10 25.7143,10 " /> </g>          <g fill="none" stroke="#ff0000" stroke-opacity="1" stroke-width="1" stroke-linecap="square" stroke-linejoin="bevel" transform="matrix(1,0,0,1,206.5,1)" font-family="Verdana" font-size="10pt" font-weight="400" font-style="normal"  > <text fill="#ff0000" fill-opacity="1" stroke="none" xml:space="preserve" x="0" y="13" font-family="Verdana" font-size="10pt" font-weight="400" font-style="normal"   >Y</text> </g>                    <g fill="none" stroke="#ffffff" stroke-opacity="1" stroke-width="4" stroke-linecap="butt" stroke-linejoin="bevel" transform="matrix(0,-1,1,0,221,42.7143)" font-family="MS Shell Dlg 2" font-size="14.25" font-weight="400" font-style="normal"  > <polyline fill="none" vector-effect="none" points="0,10 25.7143,10 " /> </g>          <g fill="none" stroke="#ff0000" stroke-opacity="1" stroke-width="1" stroke-linecap="square" stroke-linejoin="bevel" transform="matrix(1,0,0,1,226.5,1)" font-family="Verdana" font-size="10pt" font-weight="400" font-style="normal"  > <text fill="#ff0000" fill-opacity="1" stroke="none" xml:space="preserve" x="0" y="13" font-family="Verdana" font-size="10pt" font-weight="400" font-style="normal"   >Y</text> </g>              <g fill="none" stroke="#ffffff" stroke-opacity="1" stroke-width="4" stroke-linecap="butt" stroke-linejoin="bevel" transform="matrix(0,-1,1,0,241,119.857)" font-family="MS Shell Dlg 2" font-size="14.25" font-weight="400" font-style="normal"  > <polyline fill="none" vector-effect="none" points="23.7143,18 23.7143,62 " /> </g>      <g fill="none" stroke="#808080" stroke-opacity="1" stroke-dasharray="4,8" stroke-dashoffset="0" stroke-width="4" stroke-linecap="butt" stroke-linejoin="bevel" transform="matrix(0,-1,1,0,241,119.857)" font-family="MS Shell Dlg 2" font-size="14.25" font-weight="400" font-style="normal"  > <polyline fill="none" vector-effect="none" points="25.7143,40 21.7143,40 " /> </g>      <g fill="none" stroke="#ffffff" stroke-opacity="1" stroke-width="4" stroke-linecap="butt" stroke-linejoin="bevel" transform="matrix(0,-1,1,0,241,119.857)" font-family="MS Shell Dlg 2" font-size="14.25" font-weight="400" font-style="normal"  > <polyline fill="none" vector-effect="none" points="0,40 25.7143,40 " /> </g>                  <g fill="none" stroke="#ffffff" stroke-opacity="1" stroke-width="4" stroke-linecap="butt" stroke-linejoin="bevel" transform="matrix(0,-1,1,0,241,94.1429)" font-family="MS Shell Dlg 2" font-size="14.25" font-weight="400" font-style="normal"  > <polyline fill="none" vector-effect="none" points="23.7143,8 23.7143,32 " /> </g>      <g fill="none" stroke="#808080" stroke-opacity="1" stroke-dasharray="4,8" stroke-dashoffset="0" stroke-width="4" stroke-linecap="butt" stroke-linejoin="bevel" transform="matrix(0,-1,1,0,241,94.1429)" font-family="MS Shell Dlg 2" font-size="14.25" font-weight="400" font-style="normal"  > <polyline fill="none" vector-effect="none" points="25.7143,20 21.7143,20 " /> </g>      <g fill="none" stroke="#ffffff" stroke-opacity="1" stroke-width="4" stroke-linecap="butt" stroke-linejoin="bevel" transform="matrix(0,-1,1,0,241,94.1429)" font-family="MS Shell Dlg 2" font-size="14.25" font-weight="400" font-style="normal"  > <polyline fill="none" vector-effect="none" points="0,20 25.7143,20 " /> </g>                        <g fill="none" stroke="#ffffff" stroke-opacity="1" stroke-width="4" stroke-linecap="butt" stroke-linejoin="bevel" transform="matrix(0,-1,1,0,241,68.4286)" font-family="MS Shell Dlg 2" font-size="14.25" font-weight="400" font-style="normal"  > <polyline fill="none" vector-effect="none" points="0,10 51.4286,10 " /> </g>          <g fill="none" stroke="#ff0000" stroke-opacity="1" stroke-width="1" stroke-linecap="square" stroke-linejoin="bevel" transform="matrix(1,0,0,1,246.5,1)" font-family="Verdana" font-size="10pt" font-weight="400" font-style="normal"  > <text fill="#ff0000" fill-opacity="1" stroke="none" xml:space="preserve" x="0" y="13" font-family="Verdana" font-size="10pt" font-weight="400" font-style="normal"   >Y</text> </g>                    <g fill="none" stroke="#ffffff" stroke-opacity="1" stroke-width="4" stroke-linecap="butt" stroke-linejoin="bevel" transform="matrix(0,-1,1,0,261,68.4286)" font-family="MS Shell Dlg 2" font-size="14.25" font-weight="400" font-style="normal"  > <polyline fill="none" vector-effect="none" points="0,10 51.4286,10 " /> </g>          <g fill="none" stroke="#ff0000" stroke-opacity="1" stroke-width="1" stroke-linecap="square" stroke-linejoin="bevel" transform="matrix(1,0,0,1,266.5,1)" font-family="Verdana" font-size="10pt" font-weight="400" font-style="normal"  > <text fill="#ff0000" fill-opacity="1" stroke="none" xml:space="preserve" x="0" y="13" font-family="Verdana" font-size="10pt" font-weight="400" font-style="normal"   >Y</text> </g>              <g fill="none" stroke="#ffffff" stroke-opacity="1" stroke-width="4" stroke-linecap="butt" stroke-linejoin="bevel" transform="matrix(0,-1,1,0,281,94.1429)" font-family="MS Shell Dlg 2" font-size="14.25" font-weight="400" font-style="normal"  > <polyline fill="none" vector-effect="none" points="23.7143,8 23.7143,32 " /> </g>      <g fill="none" stroke="#808080" stroke-opacity="1" stroke-dasharray="4,8" stroke-dashoffset="0" stroke-width="4" stroke-linecap="butt" stroke-linejoin="bevel" transform="matrix(0,-1,1,0,281,94.1429)" font-family="MS Shell Dlg 2" font-size="14.25" font-weight="400" font-style="normal"  > <polyline fill="none" vector-effect="none" points="25.7143,20 21.7143,20 " /> </g>      <g fill="none" stroke="#ffffff" stroke-opacity="1" stroke-width="4" stroke-linecap="butt" stroke-linejoin="bevel" transform="matrix(0,-1,1,0,281,94.1429)" font-family="MS Shell Dlg 2" font-size="14.25" font-weight="400" font-style="normal"  > <polyline fill="none" vector-effect="none" points="0,20 25.7143,20 " /> </g>                        <g fill="none" stroke="#ffffff" stroke-opacity="1" stroke-width="4" stroke-linecap="butt" stroke-linejoin="bevel" transform="matrix(0,-1,1,0,281,68.4286)" font-family="MS Shell Dlg 2" font-size="14.25" font-weight="400" font-style="normal"  > <polyline fill="none" vector-effect="none" points="0,10 51.4286,10 " /> </g>          <g fill="none" stroke="#ff0000" stroke-opacity="1" stroke-width="1" stroke-linecap="square" stroke-linejoin="bevel" transform="matrix(1,0,0,1,286.5,1)" font-family="Verdana" font-size="10pt" font-weight="400" font-style="normal"  > <text fill="#ff0000" fill-opacity="1" stroke="none" xml:space="preserve" x="0" y="13" font-family="Verdana" font-size="10pt" font-weight="400" font-style="normal"   >Y</text> </g>                    <g fill="none" stroke="#ffffff" stroke-opacity="1" stroke-width="4" stroke-linecap="butt" stroke-linejoin="bevel" transform="matrix(0,-1,1,0,301,68.4286)" font-family="MS Shell Dlg 2" font-size="14.25" font-weight="400" font-style="normal"  > <polyline fill="none" vector-effect="none" points="0,10 51.4286,10 " /> </g>          <g fill="none" stroke="#ff0000" stroke-opacity="1" stroke-width="1" stroke-linecap="square" stroke-linejoin="bevel" transform="matrix(1,0,0,1,306.5,1)" font-family="Verdana" font-size="10pt" font-weight="400" font-style="normal"  > <text fill="#ff0000" fill-opacity="1" stroke="none" xml:space="preserve" x="0" y="13" font-family="Verdana" font-size="10pt" font-weight="400" font-style="normal"   >Y</text> </g>                                                                                                                                             </g> </svg> 