<?xml version="1.0" encoding="UTF-8" standalone="no"?> <svg width="113.594mm" height="83.2556mm"  viewBox="0 0 322 236"  xmlns="http://www.w3.org/2000/svg" xmlns:xlink="http://www.w3.org/1999/xlink"  version="1.2" baseProfile="tiny"> <title>Generated with ETE http://etetoolkit.org</title> <desc>Generated with ETE http://etetoolkit.org</desc> <defs> </defs> <g fill="none" stroke="black" stroke-width="1" fill-rule="evenodd" stroke-linecap="square" stroke-linejoin="bevel" >      <g fill="none" stroke="none" transform="matrix(1,0,0,1,0,-42)" font-family="MS Shell Dlg 2" font-size="14.25" font-weight="400" font-style="normal"  > <rect x="0" y="42" width="322" height="236"/> </g>      <g fill="none" stroke="none" transform="matrix(0,-1,1,0,1,235)" font-family="MS Shell Dlg 2" font-size="14.25" font-weight="400" font-style="normal"  > <rect x="0" y="0" width="234" height="320"/> </g>      <g fill="#2e3440" fill-opacity="1" stroke="#2e3440" stroke-opacity="1" stroke-width="1" stroke-linecap="square" stroke-linejoin="bevel" transform="matrix(0,-1,1,0,1,235)" font-family="MS Shell Dlg 2" font-size="14.25" font-weight="400" font-style="normal"  > <rect x="0" y="0" width="234" height="320"/> </g>      <g fill="#2e3440" fill-opacity="1" stroke="#2e3440" stroke-opacity="1" stroke-width="1" stroke-linecap="square" stroke-linejoin="bevel" transform="matrix(0,-1,1,0,1,228)" font-family="MS Shell Dlg 2" font-size="14.25" font-weight="400" font-style="normal"  > <rect x="0" y="0" width="227" height="160"/> </g>      <g fill="#2e3440" fill-opacity="1" stroke="#2e3440" stroke-opacity="1" stroke-width="1" stroke-linecap="square" stroke-linejoin="bevel" transform="matrix(0,-1,1,0,1,185)" font-family="MS Shell Dlg 2" font-size="14.25" font-weight="400" font-style="normal"  > <rect x="0" y="0" width="184" height="60"/> </g>      <g fill="#2e3440" fill-opacity="1" stroke="#2e3440" stroke-opacity="1" stroke-width="1" stroke-linecap="square" stroke-linejoin="bevel" transform="matrix(0,-1,1,0,1,142)" font-family="MS Shell Dlg 2" font-size="14.25" font-weight="400" font-style="normal"  > <rect x="0" y="0" width="141" height="40"/> </g>      <g fill="#2e3440" fill-opacity="1" stroke="#2e3440" stroke-opacity="1" stroke-width="1" stroke-linecap="square" stroke-linejoin="bevel" transform="matrix(0,-1,1,0,1,99)" font-family="MS Shell Dlg 2" font-size="14.25" font-weight="400" font-style="normal"  > <rect x="0" y="0" width="98" height="20"/> </g>      <g fill="#2e3440" fill-opacity="1" stroke="#2e3440" stroke-opacity="1" stroke-width="1" stroke-linecap="square" stroke-linejoin="bevel" transform="matrix(0,-1,1,0,21,99)" font-family="MS Shell Dlg 2" font-size="14.25" font-weight="400" font-style="normal"  > <rect x="0" y="0" width="98" height="20"/> </g>      <g fill="#2e3440" fill-opacity="1" stroke="#2e3440" stroke-opacity="1" stroke-width="1" stroke-linecap="square" stroke-linejoin="bevel" transform="matrix(0,-1,1,0,41,142)" font-family="MS Shell Dlg 2" font-size="14.25" font-weight="400" font-style="normal"  > <rect x="0" y="0" width="141" height="20"/> </g>      <g fill="#2e3440" fill-opacity="1" stroke="#2e3440" stroke-opacity="1" stroke-width="1" stroke-linecap="square" stroke-linejoin="bevel" transform="matrix(0,-1,1,0,61,185)" font-family="MS Shell Dlg 2" font-size="14.25" font-weight="400" font-style="normal"  > <rect x="0" y="0" width="184" height="100"/> </g>      <g fill="#2e3440" fill-opacity="1" stroke="#2e3440" stroke-opacity="1" stroke-width="1" stroke-linecap="square" stroke-linejoin="bevel" transform="matrix(0,-1,1,0,61,142)" font-family="MS Shell Dlg 2" font-size="14.25" font-weight="400" font-style="normal"  > <rect x="0" y="0" width="141" height="80"/> </g>      <g fill="#2e3440" fill-opacity="1" stroke="#2e3440" stroke-opacity="1" stroke-width="1" stroke-linecap="square" stroke-linejoin="bevel" transform="matrix(0,-1,1,0,61,99)" font-family="MS Shell Dlg 2" font-size="14.25" font-weight="400" font-style="normal"  > <rect x="0" y="0" width="98" height="40"/> </g>      <g fill="#2e3440" fill-opacity="1" stroke="#2e3440" stroke-opacity="1" stroke-width="1" stroke-linecap="square" stroke-linejoin="bevel" transform="matrix(0,-1,1,0,61,56)" font-family="MS Shell Dlg 2" font-size="14.25" font-weight="400" font-style="normal"  > <rect x="0" y="0" width="55" height="20"/> </g>      <g fill="#2e3440" fill-opacity="1" stroke="#2e3440" stroke-opacity="1" stroke-width="1" stroke-linecap="square" stroke-linejoin="bevel" transform="matrix(0,-1,1,0,81,56)" font-family="MS Shell Dlg 2" font-size="14.25" font-weight="400" font-style="normal"  > <rect x="0" y="0" width="55" height="20"/> </g>      <g fill="#2e3440" fill-opacity="1" stroke="#2e3440" stroke-opacity="1" stroke-width="1" stroke-linecap="square" stroke-linejoin="bevel" transform="matrix(0,-1,1,0,101,99)" font-family="MS Shell Dlg 2" font-size="14.25" font-weight="400" font-style="normal"  > <rect x="0" y="0" width="98" height="40"/> </g>      <g fill="#2e3440" fill-opacity="1" stroke="#2e3440" stroke-opacity="1" stroke-width="1" stroke-linecap="square" stroke-linejoin="bevel" transform="matrix(0,-1,1,0,101,56)" font-family="MS Shell Dlg 2" font-size="14.25" font-weight="400" font-style="normal"  > <rect x="0" y="0" width="55" height="20"/> </g>      <g fill="#2e3440" fill-opacity="1" stroke="#2e3440" stroke-opacity="1" stroke-width="1" stroke-linecap="square" stroke-linejoin="bevel" transform="matrix(0,-1,1,0,121,56)" font-family="MS Shell Dlg 2" font-size="14.25" font-weight="400" font-style="normal"  > <rect x="0" y="0" width="55" height="20"/> </g>      <g fill="#2e3440" fill-opacity="1" stroke="#2e3440" stroke-opacity="1" stroke-width="1" stroke-linecap="square" stroke-linejoin="bevel" transform="matrix(0,-1,1,0,141,142)" font-family="MS Shell Dlg 2" font-size="14.25" font-weight="400" font-style="normal"  > <rect x="0" y="0" width="141" height="20"/> </g>      <g fill="#2e3440" fill-opacity="1" stroke="#2e3440" stroke-opacity="1" stroke-width="1" stroke-linecap="square" stroke-linejoin="bevel" transform="matrix(0,-1,1,0,161,228)" font-family="MS Shell Dlg 2" font-size="14.25" font-weight="400" font-style="normal"  > <rect x="0" y="0" width="227" height="160"/> </g>      <g fill="#2e3440" fill-opacity="1" stroke="#2e3440" stroke-opacity="1" stroke-width="1" stroke-linecap="square" stroke-linejoin="bevel" transform="matrix(0,-1,1,0,161,185)" font-family="MS Shell Dlg 2" font-size="14.25" font-weight="400" font-style="normal"  > <rect x="0" y="0" width="184" height="80"/> </g>      <g fill="#2e3440" fill-opacity="1" stroke="#2e3440" stroke-opacity="1" stroke-width="1" stroke-linecap="square" stroke-linejoin="bevel" transform="matrix(0,-1,1,0,161,142)" font-family="MS Shell Dlg 2" font-size="14.25" font-weight="400" font-style="normal"  > <rect x="0" y="0" width="141" height="20"/> </g>      <g fill="#2e3440" fill-opacity="1" stroke="#2e3440" stroke-opacity="1" stroke-width="1" stroke-linecap="square" stroke-linejoin="bevel" transform="matrix(0,-1,1,0,181,142)" font-family="MS Shell Dlg 2" font-size="14.25" font-weight="400" font-style="normal"  > <rect x="0" y="0" width="141" height="60"/> </g>      <g fill="#2e3440" fill-opacity="1" stroke="#2e3440" stroke-opacity="1" stroke-width="1" stroke-linecap="square" stroke-linejoin="bevel" transform="matrix(0,-1,1,0,181,99)" font-family="MS Shell Dlg 2" font-size="14.25" font-weight="400" font-style="normal"  > <rect x="0" y="0" width="98" height="20"/> </g>      <g fill="#2e3440" fill-opacity="1" stroke="#2e3440" stroke-opacity="1" stroke-width="1" stroke-linecap="square" stroke-linejoin="bevel" transform="matrix(0,-1,1,0,181,60)" font-family="MS Shell Dlg 2" font-size="14.25" font-weight="400" font-style="normal"  > <rect x="0" y="0" width="59" height="20"/> </g>      <g fill="#2e3440" fill-opacity="1" stroke="#2e3440" stroke-opacity="1" stroke-width="1" stroke-linecap="square" stroke-linejoin="bevel" transform="matrix(0,-1,1,0,201,99)" font-family="MS Shell Dlg 2" font-size="14.25" font-weight="400" font-style="normal"  > <rect x="0" y="0" width="98" height="40"/> </g>      <g fill="#2e3440" fill-opacity="1" stroke="#2e3440" stroke-opacity="1" stroke-width="1" stroke-linecap="square" stroke-linejoin="bevel" transform="matrix(0,-1,1,0,201,56)" font-family="MS Shell Dlg 2" font-size="14.25" font-weight="400" font-style="normal"  > <rect x="0" y="0" width="55" height="20"/> </g>      <g fill="#2e3440" fill-opacity="1" stroke="#2e3440" stroke-opacity="1" stroke-width="1" stroke-linecap="square" stroke-linejoin="bevel" transform="matrix(0,-1,1,0,221,56)" font-family="MS Shell Dlg 2" font-size="14.25" font-weight="400" font-style="normal"  > <rect x="0" y="0" width="55" height="20"/> </g>      <g fill="#2e3440" fill-opacity="1" stroke="#2e3440" stroke-opacity="1" stroke-width="1" stroke-linecap="square" stroke-linejoin="bevel" transform="matrix(0,-1,1,0,241,185)" font-family="MS Shell Dlg 2" font-size="14.25" font-weight="400" font-style="normal"  > <rect x="0" y="0" width="184" height="80"/> </g>      <g fill="#2e3440" fill-opacity="1" stroke="#2e3440" stroke-opacity="1" stroke-width="1" stroke-linecap="square" stroke-linejoin="bevel" transform="matrix(0,-1,1,0,241,142)" font-family="MS Shell Dlg 2" font-size="14.25" font-weight="400" font-style="normal"  > <rect x="0" y="0" width="141" height="40"/> </g>      <g fill="#2e3440" fill-opacity="1" stroke="#2e3440" stroke-opacity="1" stroke-width="1" stroke-linecap="square" stroke-linejoin="bevel" transform="matrix(0,-1,1,0,241,99)" font-family="MS Shell Dlg 2" font-size="14.25" font-weight="400" font-style="normal"  > <rect x="0" y="0" width="98" height="20"/> </g>      <g fill="#2e3440" fill-opacity="1" stroke="#2e3440" stroke-opacity="1" stroke-width="1" stroke-linecap="square" stroke-linejoin="bevel" transform="matrix(0,-1,1,0,261,99)" font-family="MS Shell Dlg 2" font-size="14.25" font-weight="400" font-style="normal"  > <rect x="0" y="0" width="98" height="20"/> </g>      <g fill="#2e3440" fill-opacity="1" stroke="#2e3440" stroke-opacity="1" stroke-width="1" stroke-linecap="square" stroke-linejoin="bevel" transform="matrix(0,-1,1,0,281,142)" font-family="MS Shell Dlg 2" font-size="14.25" font-weight="400" font-style="normal"  > <rect x="0" y="0" width="141" height="40"/> </g>      <g fill="#2e3440" fill-opacity="1" stroke="#2e3440" stroke-opacity="1" stroke-width="1" stroke-linecap="square" stroke-linejoin="bevel" transform="matrix(0,-1,1,0,281,99)" font-family="MS Shell Dlg 2" font-size="14.25" font-weight="400" font-style="normal"  > <rect x="0" y="0" width="98" height="20"/> </g>      <g fill="#2e3440" fill-opacity="1" stroke="#2e3440" stroke-opacity="1" stroke-width="1" stroke-linecap="square" stroke-linejoin="bevel" transform="matrix(0,-1,1,0,301,99)" font-family="MS Shell Dlg 2" font-size="14.25" font-weight="400" font-style="normal"  > <rect x="0" y="0" width="98" height="20"/> </g>                                                                                                                                      <g fill="none" stroke="#ffffff" stroke-opacity="1" stroke-width="4" stroke-linecap="butt" stroke-linejoin="bevel" transform="matrix(0,-1,1,0,1,235)" font-family="MS Shell Dlg 2" font-size="14.25" font-weight="400" font-style="normal"  > <polyline fill="none" vector-effect="none" points="5,78 5,235.75 " /> </g>                  <g fill="#000000" fill-opacity="1" stroke="#000000" stroke-opacity="1" stroke-width="1" stroke-linecap="square" stroke-linejoin="bevel" transform="matrix(0,-1,1,0,156.375,235)" font-family="MS Shell Dlg 2" font-size="14.25" font-weight="400" font-style="normal"  > <circle cx="1.5" cy="1.5" r="1.5"/> </g>                  <g fill="none" stroke="#ffffff" stroke-opacity="1" stroke-width="4" stroke-linecap="butt" stroke-linejoin="bevel" transform="matrix(0,-1,1,0,1,228)" font-family="MS Shell Dlg 2" font-size="14.25" font-weight="400" font-style="normal"  > <polyline fill="none" vector-effect="none" points="41,33 41,127 " /> </g>            <g fill="none" stroke="#ffffff" stroke-opacity="1" stroke-width="4" stroke-linecap="butt" stroke-linejoin="bevel" transform="matrix(0,-1,1,0,1,228)" font-family="MS Shell Dlg 2" font-size="14.25" font-weight="400" font-style="normal"  > <polyline fill="none" vector-effect="none" points="0,80 36,80 " /> </g>      <g fill="#000000" fill-opacity="1" stroke="#000000" stroke-opacity="1" stroke-width="1" stroke-linecap="square" stroke-linejoin="bevel" transform="matrix(0,-1,1,0,79.5,192)" font-family="MS Shell Dlg 2" font-size="14.25" font-weight="400" font-style="normal"  > <circle cx="1.5" cy="1.5" r="1.5"/> </g>                  <g fill="none" stroke="#ffffff" stroke-opacity="1" stroke-width="4" stroke-linecap="butt" stroke-linejoin="bevel" transform="matrix(0,-1,1,0,1,185)" font-family="MS Shell Dlg 2" font-size="14.25" font-weight="400" font-style="normal"  > <polyline fill="none" vector-effect="none" points="41,18 41,52 " /> </g>            <g fill="none" stroke="#ffffff" stroke-opacity="1" stroke-width="4" stroke-linecap="butt" stroke-linejoin="bevel" transform="matrix(0,-1,1,0,1,185)" font-family="MS Shell Dlg 2" font-size="14.25" font-weight="400" font-style="normal"  > <polyline fill="none" vector-effect="none" points="0,35 36,35 " /> </g>      <g fill="#000000" fill-opacity="1" stroke="#000000" stroke-opacity="1" stroke-width="1" stroke-linecap="square" stroke-linejoin="bevel" transform="matrix(0,-1,1,0,34.5,149)" font-family="MS Shell Dlg 2" font-size="14.25" font-weight="400" font-style="normal"  > <circle cx="1.5" cy="1.5" r="1.5"/> </g>                  <g fill="none" stroke="#ffffff" stroke-opacity="1" stroke-width="4" stroke-linecap="butt" stroke-linejoin="bevel" transform="matrix(0,-1,1,0,1,142)" font-family="MS Shell Dlg 2" font-size="14.25" font-weight="400" font-style="normal"  > <polyline fill="none" vector-effect="none" points="41,8 41,32 " /> </g>            <g fill="none" stroke="#ffffff" stroke-opacity="1" stroke-width="4" stroke-linecap="butt" stroke-linejoin="bevel" transform="matrix(0,-1,1,0,1,142)" font-family="MS Shell Dlg 2" font-size="14.25" font-weight="400" font-style="normal"  > <polyline fill="none" vector-effect="none" points="0,20 36,20 " /> </g>      <g fill="#000000" fill-opacity="1" stroke="#000000" stroke-opacity="1" stroke-width="1" stroke-linecap="square" stroke-linejoin="bevel" transform="matrix(0,-1,1,0,19.5,106)" font-family="MS Shell Dlg 2" font-size="14.25" font-weight="400" font-style="normal"  > <circle cx="1.5" cy="1.5" r="1.5"/> </g>                        <g fill="none" stroke="#ffffff" stroke-opacity="1" stroke-width="4" stroke-linecap="butt" stroke-linejoin="bevel" transform="matrix(0,-1,1,0,1,99)" font-family="MS Shell Dlg 2" font-size="14.25" font-weight="400" font-style="normal"  > <polyline fill="none" vector-effect="none" points="0,10 72,10 " /> </g>      <g fill="#000000" fill-opacity="1" stroke="#000000" stroke-opacity="1" stroke-width="1" stroke-linecap="square" stroke-linejoin="bevel" transform="matrix(0,-1,1,0,9.5,27)" font-family="MS Shell Dlg 2" font-size="14.25" font-weight="400" font-style="normal"  > <circle cx="1.5" cy="1.5" r="1.5"/> </g>          <g fill="none" stroke="#ff0000" stroke-opacity="1" stroke-width="1" stroke-linecap="square" stroke-linejoin="bevel" transform="matrix(1,0,0,1,6.5,8)" font-family="Verdana" font-size="10pt" font-weight="400" font-style="normal"  > <text fill="#ff0000" fill-opacity="1" stroke="none" xml:space="preserve" x="0" y="13" font-family="Verdana" font-size="10pt" font-weight="400" font-style="normal"   >X</text> </g>                    <g fill="none" stroke="#ffffff" stroke-opacity="1" stroke-width="4" stroke-linecap="butt" stroke-linejoin="bevel" transform="matrix(0,-1,1,0,21,99)" font-family="MS Shell Dlg 2" font-size="14.25" font-weight="400" font-style="normal"  > <polyline fill="none" vector-effect="none" points="0,10 72,10 " /> </g>      <g fill="#000000" fill-opacity="1" stroke="#000000" stroke-opacity="1" stroke-width="1" stroke-linecap="square" stroke-linejoin="bevel" transform="matrix(0,-1,1,0,29.5,27)" font-family="MS Shell Dlg 2" font-size="14.25" font-weight="400" font-style="normal"  > <circle cx="1.5" cy="1.5" r="1.5"/> </g>          <g fill="none" stroke="#ff0000" stroke-opacity="1" stroke-width="1" stroke-linecap="square" stroke-linejoin="bevel" transform="matrix(1,0,0,1,26.5,8)" font-family="Verdana" font-size="10pt" font-weight="400" font-style="normal"  > <text fill="#ff0000" fill-opacity="1" stroke="none" xml:space="preserve" x="0" y="13" font-family="Verdana" font-size="10pt" font-weight="400" font-style="normal"   >X</text> </g>                    <g fill="none" stroke="#ffffff" stroke-opacity="1" stroke-width="4" stroke-linecap="butt" stroke-linejoin="bevel" transform="matrix(0,-1,1,0,41,142)" font-family="MS Shell Dlg 2" font-size="14.25" font-weight="400" font-style="normal"  > <polyline fill="none" vector-effect="none" points="0,10 108,10 " /> </g>      <g fill="#000000" fill-opacity="1" stroke="#000000" stroke-opacity="1" stroke-width="1" stroke-linecap="square" stroke-linejoin="bevel" transform="matrix(0,-1,1,0,49.5,34)" font-family="MS Shell Dlg 2" font-size="14.25" font-weight="400" font-style="normal"  > <circle cx="1.5" cy="1.5" r="1.5"/> </g>          <g fill="none" stroke="#ff0000" stroke-opacity="1" stroke-width="1" stroke-linecap="square" stroke-linejoin="bevel" transform="matrix(1,0,0,1,46.5,15)" font-family="Verdana" font-size="10pt" font-weight="400" font-style="normal"  > <text fill="#ff0000" fill-opacity="1" stroke="none" xml:space="preserve" x="0" y="13" font-family="Verdana" font-size="10pt" font-weight="400" font-style="normal"   >X</text> </g>              <g fill="none" stroke="#ffffff" stroke-opacity="1" stroke-width="4" stroke-linecap="butt" stroke-linejoin="bevel" transform="matrix(0,-1,1,0,61,185)" font-family="MS Shell Dlg 2" font-size="14.25" font-weight="400" font-style="normal"  > <polyline fill="none" vector-effect="none" points="41,38 41,92 " /> </g>            <g fill="none" stroke="#ffffff" stroke-opacity="1" stroke-width="4" stroke-linecap="butt" stroke-linejoin="bevel" transform="matrix(0,-1,1,0,61,185)" font-family="MS Shell Dlg 2" font-size="14.25" font-weight="400" font-style="normal"  > <polyline fill="none" vector-effect="none" points="0,65 36,65 " /> </g>      <g fill="#000000" fill-opacity="1" stroke="#000000" stroke-opacity="1" stroke-width="1" stroke-linecap="square" stroke-linejoin="bevel" transform="matrix(0,-1,1,0,124.5,149)" font-family="MS Shell Dlg 2" font-size="14.25" font-weight="400" font-style="normal"  > <circle cx="1.5" cy="1.5" r="1.5"/> </g>                  <g fill="none" stroke="#ffffff" stroke-opacity="1" stroke-width="4" stroke-linecap="butt" stroke-linejoin="bevel" transform="matrix(0,-1,1,0,61,142)" font-family="MS Shell Dlg 2" font-size="14.25" font-weight="400" font-style="normal"  > <polyline fill="none" vector-effect="none" points="41,18 41,62 " /> </g>            <g fill="none" stroke="#ffffff" stroke-opacity="1" stroke-width="4" stroke-linecap="butt" stroke-linejoin="bevel" transform="matrix(0,-1,1,0,61,142)" font-family="MS Shell Dlg 2" font-size="14.25" font-weight="400" font-style="normal"  > <polyline fill="none" vector-effect="none" points="0,40 36,40 " /> </g>      <g fill="#000000" fill-opacity="1" stroke="#000000" stroke-opacity="1" stroke-width="1" stroke-linecap="square" stroke-linejoin="bevel" transform="matrix(0,-1,1,0,99.5,106)" font-family="MS Shell Dlg 2" font-size="14.25" font-weight="400" font-style="normal"  > <circle cx="1.5" cy="1.5" r="1.5"/> </g>                  <g fill="none" stroke="#ffffff" stroke-opacity="1" stroke-width="4" stroke-linecap="butt" stroke-linejoin="bevel" transform="matrix(0,-1,1,0,61,99)" font-family="MS Shell Dlg 2" font-size="14.25" font-weight="400" font-style="normal"  > <polyline fill="none" vector-effect="none" points="41,8 41,32 " /> </g>            <g fill="none" stroke="#ffffff" stroke-opacity="1" stroke-width="4" stroke-linecap="butt" stroke-linejoin="bevel" transform="matrix(0,-1,1,0,61,99)" font-family="MS Shell Dlg 2" font-size="14.25" font-weight="400" font-style="normal"  > <polyline fill="none" vector-effect="none" points="0,20 36,20 " /> </g>      <g fill="#000000" fill-opacity="1" stroke="#000000" stroke-opacity="1" stroke-width="1" stroke-linecap="square" stroke-linejoin="bevel" transform="matrix(0,-1,1,0,79.5,63)" font-family="MS Shell Dlg 2" font-size="14.25" font-weight="400" font-style="normal"  > <circle cx="1.5" cy="1.5" r="1.5"/> </g>                        <g fill="none" stroke="#ffffff" stroke-opacity="1" stroke-width="4" stroke-linecap="butt" stroke-linejoin="bevel" transform="matrix(0,-1,1,0,61,56)" font-family="MS Shell Dlg 2" font-size="14.25" font-weight="400" font-style="normal"  > <polyline fill="none" vector-effect="none" points="0,10 36,10 " /> </g>      <g fill="#000000" fill-opacity="1" stroke="#000000" stroke-opacity="1" stroke-width="1" stroke-linecap="square" stroke-linejoin="bevel" transform="matrix(0,-1,1,0,69.5,20)" font-family="MS Shell Dlg 2" font-size="14.25" font-weight="400" font-style="normal"  > <circle cx="1.5" cy="1.5" r="1.5"/> </g>          <g fill="none" stroke="#008000" stroke-opacity="1" stroke-width="1" stroke-linecap="square" stroke-linejoin="bevel" transform="matrix(1,0,0,1,66.5,1)" font-family="Verdana" font-size="10pt" font-weight="400" font-style="normal"  > <text fill="#008000" fill-opacity="1" stroke="none" xml:space="preserve" x="0" y="13" font-family="Verdana" font-size="10pt" font-weight="400" font-style="normal"   >Y</text> </g>                    <g fill="none" stroke="#ffffff" stroke-opacity="1" stroke-width="4" stroke-linecap="butt" stroke-linejoin="bevel" transform="matrix(0,-1,1,0,81,56)" font-family="MS Shell Dlg 2" font-size="14.25" font-weight="400" font-style="normal"  > <polyline fill="none" vector-effect="none" points="0,10 36,10 " /> </g>      <g fill="#000000" fill-opacity="1" stroke="#000000" stroke-opacity="1" stroke-width="1" stroke-linecap="square" stroke-linejoin="bevel" transform="matrix(0,-1,1,0,89.5,20)" font-family="MS Shell Dlg 2" font-size="14.25" font-weight="400" font-style="normal"  > <circle cx="1.5" cy="1.5" r="1.5"/> </g>          <g fill="none" stroke="#ff0000" stroke-opacity="1" stroke-width="1" stroke-linecap="square" stroke-linejoin="bevel" transform="matrix(1,0,0,1,86.5,1)" font-family="Verdana" font-size="10pt" font-weight="400" font-style="normal"  > <text fill="#ff0000" fill-opacity="1" stroke="none" xml:space="preserve" x="0" y="13" font-family="Verdana" font-size="10pt" font-weight="400" font-style="normal"   >X</text> </g>              <g fill="none" stroke="#ffffff" stroke-opacity="1" stroke-width="4" stroke-linecap="butt" stroke-linejoin="bevel" transform="matrix(0,-1,1,0,101,99)" font-family="MS Shell Dlg 2" font-size="14.25" font-weight="400" font-style="normal"  > <polyline fill="none" vector-effect="none" points="41,8 41,32 " /> </g>            <g fill="none" stroke="#ffffff" stroke-opacity="1" stroke-width="4" stroke-linecap="butt" stroke-linejoin="bevel" transform="matrix(0,-1,1,0,101,99)" font-family="MS Shell Dlg 2" font-size="14.25" font-weight="400" font-style="normal"  > <polyline fill="none" vector-effect="none" points="0,20 36,20 " /> </g>      <g fill="#000000" fill-opacity="1" stroke="#000000" stroke-opacity="1" stroke-width="1" stroke-linecap="square" stroke-linejoin="bevel" transform="matrix(0,-1,1,0,119.5,63)" font-family="MS Shell Dlg 2" font-size="14.25" font-weight="400" font-style="normal"  > <circle cx="1.5" cy="1.5" r="1.5"/> </g>                        <g fill="none" stroke="#ffffff" stroke-opacity="1" stroke-width="4" stroke-linecap="butt" stroke-linejoin="bevel" transform="matrix(0,-1,1,0,101,56)" font-family="MS Shell Dlg 2" font-size="14.25" font-weight="400" font-style="normal"  > <polyline fill="none" vector-effect="none" points="0,10 36,10 " /> </g>      <g fill="#000000" fill-opacity="1" stroke="#000000" stroke-opacity="1" stroke-width="1" stroke-linecap="square" stroke-linejoin="bevel" transform="matrix(0,-1,1,0,109.5,20)" font-family="MS Shell Dlg 2" font-size="14.25" font-weight="400" font-style="normal"  > <circle cx="1.5" cy="1.5" r="1.5"/> </g>          <g fill="none" stroke="#ff0000" stroke-opacity="1" stroke-width="1" stroke-linecap="square" stroke-linejoin="bevel" transform="matrix(1,0,0,1,106.5,1)" font-family="Verdana" font-size="10pt" font-weight="400" font-style="normal"  > <text fill="#ff0000" fill-opacity="1" stroke="none" xml:space="preserve" x="0" y="13" font-family="Verdana" font-size="10pt" font-weight="400" font-style="normal"   >X</text> </g>                    <g fill="none" stroke="#ffffff" stroke-opacity="1" stroke-width="4" stroke-linecap="butt" stroke-linejoin="bevel" transform="matrix(0,-1,1,0,121,56)" font-family="MS Shell Dlg 2" font-size="14.25" font-weight="400" font-style="normal"  > <polyline fill="none" vector-effect="none" points="0,10 36,10 " /> </g>      <g fill="#000000" fill-opacity="1" stroke="#000000" stroke-opacity="1" stroke-width="1" stroke-linecap="square" stroke-linejoin="bevel" transform="matrix(0,-1,1,0,129.5,20)" font-family="MS Shell Dlg 2" font-size="14.25" font-weight="400" font-style="normal"  > <circle cx="1.5" cy="1.5" r="1.5"/> </g>          <g fill="none" stroke="#ff0000" stroke-opacity="1" stroke-width="1" stroke-linecap="square" stroke-linejoin="bevel" transform="matrix(1,0,0,1,126.5,1)" font-family="Verdana" font-size="10pt" font-weight="400" font-style="normal"  > <text fill="#ff0000" fill-opacity="1" stroke="none" xml:space="preserve" x="0" y="13" font-family="Verdana" font-size="10pt" font-weight="400" font-style="normal"   >X</text> </g>                    <g fill="none" stroke="#ffffff" stroke-opacity="1" stroke-width="4" stroke-linecap="butt" stroke-linejoin="bevel" transform="matrix(0,-1,1,0,141,142)" font-family="MS Shell Dlg 2" font-size="14.25" font-weight="400" font-style="normal"  > <polyline fill="none" vector-effect="none" points="0,10 108,10 " /> </g>      <g fill="#000000" fill-opacity="1" stroke="#000000" stroke-opacity="1" stroke-width="1" stroke-linecap="square" stroke-linejoin="bevel" transform="matrix(0,-1,1,0,149.5,34)" font-family="MS Shell Dlg 2" font-size="14.25" font-weight="400" font-style="normal"  > <circle cx="1.5" cy="1.5" r="1.5"/> </g>          <g fill="none" stroke="#ff0000" stroke-opacity="1" stroke-width="1" stroke-linecap="square" stroke-linejoin="bevel" transform="matrix(1,0,0,1,146.5,15)" font-family="Verdana" font-size="10pt" font-weight="400" font-style="normal"  > <text fill="#ff0000" fill-opacity="1" stroke="none" xml:space="preserve" x="0" y="13" font-family="Verdana" font-size="10pt" font-weight="400" font-style="normal"   >X</text> </g>              <g fill="none" stroke="#ffffff" stroke-opacity="1" stroke-width="4" stroke-linecap="butt" stroke-linejoin="bevel" transform="matrix(0,-1,1,0,161,228)" font-family="MS Shell Dlg 2" font-size="14.25" font-weight="400" font-style="normal"  > <polyline fill="none" vector-effect="none" points="41,25.5 41,122 " /> </g>            <g fill="none" stroke="#ffffff" stroke-opacity="1" stroke-width="4" stroke-linecap="butt" stroke-linejoin="bevel" transform="matrix(0,-1,1,0,161,228)" font-family="MS Shell Dlg 2" font-size="14.25" font-weight="400" font-style="normal"  > <polyline fill="none" vector-effect="none" points="0,73.75 36,73.75 " /> </g>      <g fill="#000000" fill-opacity="1" stroke="#000000" stroke-opacity="1" stroke-width="1" stroke-linecap="square" stroke-linejoin="bevel" transform="matrix(0,-1,1,0,233.25,192)" font-family="MS Shell Dlg 2" font-size="14.25" font-weight="400" font-style="normal"  > <circle cx="1.5" cy="1.5" r="1.5"/> </g>                  <g fill="none" stroke="#ffffff" stroke-opacity="1" stroke-width="4" stroke-linecap="butt" stroke-linejoin="bevel" transform="matrix(0,-1,1,0,161,185)" font-family="MS Shell Dlg 2" font-size="14.25" font-weight="400" font-style="normal"  > <polyline fill="none" vector-effect="none" points="41,8 41,47 " /> </g>            <g fill="none" stroke="#ffffff" stroke-opacity="1" stroke-width="4" stroke-linecap="butt" stroke-linejoin="bevel" transform="matrix(0,-1,1,0,161,185)" font-family="MS Shell Dlg 2" font-size="14.25" font-weight="400" font-style="normal"  > <polyline fill="none" vector-effect="none" points="0,27.5 36,27.5 " /> </g>      <g fill="#000000" fill-opacity="1" stroke="#000000" stroke-opacity="1" stroke-width="1" stroke-linecap="square" stroke-linejoin="bevel" transform="matrix(0,-1,1,0,187,149)" font-family="MS Shell Dlg 2" font-size="14.25" font-weight="400" font-style="normal"  > <circle cx="1.5" cy="1.5" r="1.5"/> </g>                        <g fill="none" stroke="#ffffff" stroke-opacity="1" stroke-width="4" stroke-linecap="butt" stroke-linejoin="bevel" transform="matrix(0,-1,1,0,161,142)" font-family="MS Shell Dlg 2" font-size="14.25" font-weight="400" font-style="normal"  > <polyline fill="none" vector-effect="none" points="0,10 108,10 " /> </g>      <g fill="#000000" fill-opacity="1" stroke="#000000" stroke-opacity="1" stroke-width="1" stroke-linecap="square" stroke-linejoin="bevel" transform="matrix(0,-1,1,0,169.5,34)" font-family="MS Shell Dlg 2" font-size="14.25" font-weight="400" font-style="normal"  > <circle cx="1.5" cy="1.5" r="1.5"/> </g>          <g fill="none" stroke="#0000ff" stroke-opacity="1" stroke-width="1" stroke-linecap="square" stroke-linejoin="bevel" transform="matrix(1,0,0,1,166.5,15)" font-family="Verdana" font-size="10pt" font-weight="400" font-style="normal"  > <text fill="#0000ff" fill-opacity="1" stroke="none" xml:space="preserve" x="0" y="13" font-family="Verdana" font-size="10pt" font-weight="400" font-style="normal"   >Z</text> </g>              <g fill="none" stroke="#ffffff" stroke-opacity="1" stroke-width="4" stroke-linecap="butt" stroke-linejoin="bevel" transform="matrix(0,-1,1,0,181,142)" font-family="MS Shell Dlg 2" font-size="14.25" font-weight="400" font-style="normal"  > <polyline fill="none" vector-effect="none" points="41,8 41,42 " /> </g>            <g fill="none" stroke="#ffffff" stroke-opacity="1" stroke-width="4" stroke-linecap="butt" stroke-linejoin="bevel" transform="matrix(0,-1,1,0,181,142)" font-family="MS Shell Dlg 2" font-size="14.25" font-weight="400" font-style="normal"  > <polyline fill="none" vector-effect="none" points="0,25 36,25 " /> </g>      <g fill="#000000" fill-opacity="1" stroke="#000000" stroke-opacity="1" stroke-width="1" stroke-linecap="square" stroke-linejoin="bevel" transform="matrix(0,-1,1,0,204.5,106)" font-family="MS Shell Dlg 2" font-size="14.25" font-weight="400" font-style="normal"  > <circle cx="1.5" cy="1.5" r="1.5"/> </g>                  <g fill="none" stroke="#ffffff" stroke-opacity="1" stroke-width="4" stroke-linecap="butt" stroke-linejoin="bevel" transform="matrix(0,-1,1,0,181,99)" font-family="MS Shell Dlg 2" font-size="14.25" font-weight="400" font-style="normal"  > <polyline fill="none" vector-effect="none" points="39,8 39,12 " /> </g>            <g fill="none" stroke="#ffffff" stroke-opacity="1" stroke-width="4" stroke-linecap="butt" stroke-linejoin="bevel" transform="matrix(0,-1,1,0,181,99)" font-family="MS Shell Dlg 2" font-size="14.25" font-weight="400" font-style="normal"  > <polyline fill="none" vector-effect="none" points="0,10 36,10 " /> </g>      <g fill="#000000" fill-opacity="1" stroke="#000000" stroke-opacity="1" stroke-width="1" stroke-linecap="square" stroke-linejoin="bevel" transform="matrix(0,-1,1,0,189.5,63)" font-family="MS Shell Dlg 2" font-size="14.25" font-weight="400" font-style="normal"  > <circle cx="1.5" cy="1.5" r="1.5"/> </g>                        <g fill="none" stroke="#ffffff" stroke-opacity="1" stroke-width="4" stroke-linecap="butt" stroke-linejoin="bevel" transform="matrix(0,-1,1,0,181,60)" font-family="MS Shell Dlg 2" font-size="14.25" font-weight="400" font-style="normal"  > <polyline fill="none" vector-effect="none" points="0,10 36,10 " /> </g>      <g fill="#000000" fill-opacity="1" stroke="#000000" stroke-opacity="1" stroke-width="1" stroke-linecap="square" stroke-linejoin="bevel" transform="matrix(0,-1,1,0,189.5,24)" font-family="MS Shell Dlg 2" font-size="14.25" font-weight="400" font-style="normal"  > <circle cx="1.5" cy="1.5" r="1.5"/> </g>          <g fill="none" stroke="#0000ff" stroke-opacity="1" stroke-width="1" stroke-linecap="square" stroke-linejoin="bevel" transform="matrix(1,0,0,1,186.5,5)" font-family="Verdana" font-size="10pt" font-weight="400" font-style="normal"  > <text fill="#0000ff" fill-opacity="1" stroke="none" xml:space="preserve" x="0" y="13" font-family="Verdana" font-size="10pt" font-weight="400" font-style="normal"   >Z</text> </g>              <g fill="none" stroke="#ffffff" stroke-opacity="1" stroke-width="4" stroke-linecap="butt" stroke-linejoin="bevel" transform="matrix(0,-1,1,0,201,99)" font-family="MS Shell Dlg 2" font-size="14.25" font-weight="400" font-style="normal"  > <polyline fill="none" vector-effect="none" points="41,8 41,32 " /> </g>            <g fill="none" stroke="#ffffff" stroke-opacity="1" stroke-width="4" stroke-linecap="butt" stroke-linejoin="bevel" transform="matrix(0,-1,1,0,201,99)" font-family="MS Shell Dlg 2" font-size="14.25" font-weight="400" font-style="normal"  > <polyline fill="none" vector-effect="none" points="0,20 36,20 " /> </g>      <g fill="#000000" fill-opacity="1" stroke="#000000" stroke-opacity="1" stroke-width="1" stroke-linecap="square" stroke-linejoin="bevel" transform="matrix(0,-1,1,0,219.5,63)" font-family="MS Shell Dlg 2" font-size="14.25" font-weight="400" font-style="normal"  > <circle cx="1.5" cy="1.5" r="1.5"/> </g>                        <g fill="none" stroke="#ffffff" stroke-opacity="1" stroke-width="4" stroke-linecap="butt" stroke-linejoin="bevel" transform="matrix(0,-1,1,0,201,56)" font-family="MS Shell Dlg 2" font-size="14.25" font-weight="400" font-style="normal"  > <polyline fill="none" vector-effect="none" points="0,10 36,10 " /> </g>      <g fill="#000000" fill-opacity="1" stroke="#000000" stroke-opacity="1" stroke-width="1" stroke-linecap="square" stroke-linejoin="bevel" transform="matrix(0,-1,1,0,209.5,20)" font-family="MS Shell Dlg 2" font-size="14.25" font-weight="400" font-style="normal"  > <circle cx="1.5" cy="1.5" r="1.5"/> </g>          <g fill="none" stroke="#0000ff" stroke-opacity="1" stroke-width="1" stroke-linecap="square" stroke-linejoin="bevel" transform="matrix(1,0,0,1,206.5,1)" font-family="Verdana" font-size="10pt" font-weight="400" font-style="normal"  > <text fill="#0000ff" fill-opacity="1" stroke="none" xml:space="preserve" x="0" y="13" font-family="Verdana" font-size="10pt" font-weight="400" font-style="normal"   >Z</text> </g>                    <g fill="none" stroke="#ffffff" stroke-opacity="1" stroke-width="4" stroke-linecap="butt" stroke-linejoin="bevel" transform="matrix(0,-1,1,0,221,56)" font-family="MS Shell Dlg 2" font-size="14.25" font-weight="400" font-style="normal"  > <polyline fill="none" vector-effect="none" points="0,10 36,10 " /> </g>      <g fill="#000000" fill-opacity="1" stroke="#000000" stroke-opacity="1" stroke-width="1" stroke-linecap="square" stroke-linejoin="bevel" transform="matrix(0,-1,1,0,229.5,20)" font-family="MS Shell Dlg 2" font-size="14.25" font-weight="400" font-style="normal"  > <circle cx="1.5" cy="1.5" r="1.5"/> </g>          <g fill="none" stroke="#0000ff" stroke-opacity="1" stroke-width="1" stroke-linecap="square" stroke-linejoin="bevel" transform="matrix(1,0,0,1,226.5,1)" font-family="Verdana" font-size="10pt" font-weight="400" font-style="normal"  > <text fill="#0000ff" fill-opacity="1" stroke="none" xml:space="preserve" x="0" y="13" font-family="Verdana" font-size="10pt" font-weight="400" font-style="normal"   >Z</text> </g>              <g fill="none" stroke="#ffffff" stroke-opacity="1" stroke-width="4" stroke-linecap="butt" stroke-linejoin="bevel" transform="matrix(0,-1,1,0,241,185)" font-family="MS Shell Dlg 2" font-size="14.25" font-weight="400" font-style="normal"  > <polyline fill="none" vector-effect="none" points="41,18 41,62 " /> </g>            <g fill="none" stroke="#ffffff" stroke-opacity="1" stroke-width="4" stroke-linecap="butt" stroke-linejoin="bevel" transform="matrix(0,-1,1,0,241,185)" font-family="MS Shell Dlg 2" font-size="14.25" font-weight="400" font-style="normal"  > <polyline fill="none" vector-effect="none" points="0,40 36,40 " /> </g>      <g fill="#000000" fill-opacity="1" stroke="#000000" stroke-opacity="1" stroke-width="1" stroke-linecap="square" stroke-linejoin="bevel" transform="matrix(0,-1,1,0,279.5,149)" font-family="MS Shell Dlg 2" font-size="14.25" font-weight="400" font-style="normal"  > <circle cx="1.5" cy="1.5" r="1.5"/> </g>                  <g fill="none" stroke="#ffffff" stroke-opacity="1" stroke-width="4" stroke-linecap="butt" stroke-linejoin="bevel" transform="matrix(0,-1,1,0,241,142)" font-family="MS Shell Dlg 2" font-size="14.25" font-weight="400" font-style="normal"  > <polyline fill="none" vector-effect="none" points="41,8 41,32 " /> </g>            <g fill="none" stroke="#ffffff" stroke-opacity="1" stroke-width="4" stroke-linecap="butt" stroke-linejoin="bevel" transform="matrix(0,-1,1,0,241,142)" font-family="MS Shell Dlg 2" font-size="14.25" font-weight="400" font-style="normal"  > <polyline fill="none" vector-effect="none" points="0,20 36,20 " /> </g>      <g fill="#000000" fill-opacity="1" stroke="#000000" stroke-opacity="1" stroke-width="1" stroke-linecap="square" stroke-linejoin="bevel" transform="matrix(0,-1,1,0,259.5,106)" font-family="MS Shell Dlg 2" font-size="14.25" font-weight="400" font-style="normal"  > <circle cx="1.5" cy="1.5" r="1.5"/> </g>                        <g fill="none" stroke="#ffffff" stroke-opacity="1" stroke-width="4" stroke-linecap="butt" stroke-linejoin="bevel" transform="matrix(0,-1,1,0,241,99)" font-family="MS Shell Dlg 2" font-size="14.25" font-weight="400" font-style="normal"  > <polyline fill="none" vector-effect="none" points="0,10 72,10 " /> </g>      <g fill="#000000" fill-opacity="1" stroke="#000000" stroke-opacity="1" stroke-width="1" stroke-linecap="square" stroke-linejoin="bevel" transform="matrix(0,-1,1,0,249.5,27)" font-family="MS Shell Dlg 2" font-size="14.25" font-weight="400" font-style="normal"  > <circle cx="1.5" cy="1.5" r="1.5"/> </g>          <g fill="none" stroke="#0000ff" stroke-opacity="1" stroke-width="1" stroke-linecap="square" stroke-linejoin="bevel" transform="matrix(1,0,0,1,246.5,8)" font-family="Verdana" font-size="10pt" font-weight="400" font-style="normal"  > <text fill="#0000ff" fill-opacity="1" stroke="none" xml:space="preserve" x="0" y="13" font-family="Verdana" font-size="10pt" font-weight="400" font-style="normal"   >Z</text> </g>                    <g fill="none" stroke="#ffffff" stroke-opacity="1" stroke-width="4" stroke-linecap="butt" stroke-linejoin="bevel" transform="matrix(0,-1,1,0,261,99)" font-family="MS Shell Dlg 2" font-size="14.25" font-weight="400" font-style="normal"  > <polyline fill="none" vector-effect="none" points="0,10 72,10 " /> </g>      <g fill="#000000" fill-opacity="1" stroke="#000000" stroke-opacity="1" stroke-width="1" stroke-linecap="square" stroke-linejoin="bevel" transform="matrix(0,-1,1,0,269.5,27)" font-family="MS Shell Dlg 2" font-size="14.25" font-weight="400" font-style="normal"  > <circle cx="1.5" cy="1.5" r="1.5"/> </g>          <g fill="none" stroke="#0000ff" stroke-opacity="1" stroke-width="1" stroke-linecap="square" stroke-linejoin="bevel" transform="matrix(1,0,0,1,266.5,8)" font-family="Verdana" font-size="10pt" font-weight="400" font-style="normal"  > <text fill="#0000ff" fill-opacity="1" stroke="none" xml:space="preserve" x="0" y="13" font-family="Verdana" font-size="10pt" font-weight="400" font-style="normal"   >Z</text> </g>              <g fill="none" stroke="#ffffff" stroke-opacity="1" stroke-width="4" stroke-linecap="butt" stroke-linejoin="bevel" transform="matrix(0,-1,1,0,281,142)" font-family="MS Shell Dlg 2" font-size="14.25" font-weight="400" font-style="normal"  > <polyline fill="none" vector-effect="none" points="41,8 41,32 " /> </g>            <g fill="none" stroke="#ffffff" stroke-opacity="1" stroke-width="4" stroke-linecap="butt" stroke-linejoin="bevel" transform="matrix(0,-1,1,0,281,142)" font-family="MS Shell Dlg 2" font-size="14.25" font-weight="400" font-style="normal"  > <polyline fill="none" vector-effect="none" points="0,20 36,20 " /> </g>      <g fill="#000000" fill-opacity="1" stroke="#000000" stroke-opacity="1" stroke-width="1" stroke-linecap="square" stroke-linejoin="bevel" transform="matrix(0,-1,1,0,299.5,106)" font-family="MS Shell Dlg 2" font-size="14.25" font-weight="400" font-style="normal"  > <circle cx="1.5" cy="1.5" r="1.5"/> </g>                        <g fill="none" stroke="#ffffff" stroke-opacity="1" stroke-width="4" stroke-linecap="butt" stroke-linejoin="bevel" transform="matrix(0,-1,1,0,281,99)" font-family="MS Shell Dlg 2" font-size="14.25" font-weight="400" font-style="normal"  > <polyline fill="none" vector-effect="none" points="0,10 72,10 " /> </g>      <g fill="#000000" fill-opacity="1" stroke="#000000" stroke-opacity="1" stroke-width="1" stroke-linecap="square" stroke-linejoin="bevel" transform="matrix(0,-1,1,0,289.5,27)" font-family="MS Shell Dlg 2" font-size="14.25" font-weight="400" font-style="normal"  > <circle cx="1.5" cy="1.5" r="1.5"/> </g>          <g fill="none" stroke="#008000" stroke-opacity="1" stroke-width="1" stroke-linecap="square" stroke-linejoin="bevel" transform="matrix(1,0,0,1,286.5,8)" font-family="Verdana" font-size="10pt" font-weight="400" font-style="normal"  > <text fill="#008000" fill-opacity="1" stroke="none" xml:space="preserve" x="0" y="13" font-family="Verdana" font-size="10pt" font-weight="400" font-style="normal"   >Y</text> </g>                    <g fill="none" stroke="#ffffff" stroke-opacity="1" stroke-width="4" stroke-linecap="butt" stroke-linejoin="bevel" transform="matrix(0,-1,1,0,301,99)" font-family="MS Shell Dlg 2" font-size="14.25" font-weight="400" font-style="normal"  > <polyline fill="none" vector-effect="none" points="0,10 72,10 " /> </g>      <g fill="#000000" fill-opacity="1" stroke="#000000" stroke-opacity="1" stroke-width="1" stroke-linecap="square" stroke-linejoin="bevel" transform="matrix(0,-1,1,0,309.5,27)" font-family="MS Shell Dlg 2" font-size="14.25" font-weight="400" font-style="normal"  > <circle cx="1.5" cy="1.5" r="1.5"/> </g>          <g fill="none" stroke="#0000ff" stroke-opacity="1" stroke-width="1" stroke-linecap="square" stroke-linejoin="bevel" transform="matrix(1,0,0,1,306.5,8)" font-family="Verdana" font-size="10pt" font-weight="400" font-style="normal"  > <text fill="#0000ff" fill-opacity="1" stroke="none" xml:space="preserve" x="0" y="13" font-family="Verdana" font-size="10pt" font-weight="400" font-style="normal"   >Z</text> </g>                                                                                                                                             </g> </svg> 