<?xml version="1.0" encoding="UTF-8" standalone="no"?> <svg width="113.594mm" height="86.7833mm"  viewBox="0 0 322 246"  xmlns="http://www.w3.org/2000/svg" xmlns:xlink="http://www.w3.org/1999/xlink"  version="1.2" baseProfile="tiny"> <title>Generated with ETE http://etetoolkit.org</title> <desc>Generated with ETE http://etetoolkit.org</desc> <defs> </defs> <g fill="none" stroke="black" stroke-width="1" fill-rule="evenodd" stroke-linecap="square" stroke-linejoin="bevel" >      <g fill="none" stroke="none" transform="matrix(1,0,0,1,0,-37)" font-family="MS Shell Dlg 2" font-size="14.25" font-weight="400" font-style="normal"  > <rect x="0" y="37" width="322" height="246"/> </g>      <g fill="none" stroke="none" transform="matrix(0,-1,1,0,1,245)" font-family="MS Shell Dlg 2" font-size="14.25" font-weight="400" font-style="normal"  > <rect x="0" y="0" width="244" height="320"/> </g>      <g fill="#2e3440" fill-opacity="1" stroke="#2e3440" stroke-opacity="1" stroke-width="1" stroke-linecap="square" stroke-linejoin="bevel" transform="matrix(0,-1,1,0,1,245)" font-family="MS Shell Dlg 2" font-size="14.25" font-weight="400" font-style="normal"  > <rect x="0" y="0" width="244" height="320"/> </g>      <g fill="#2e3440" fill-opacity="1" stroke="#2e3440" stroke-opacity="1" stroke-width="1" stroke-linecap="square" stroke-linejoin="bevel" transform="matrix(0,-1,1,0,1,238)" font-family="MS Shell Dlg 2" font-size="14.25" font-weight="400" font-style="normal"  > <rect x="0" y="0" width="237" height="160"/> </g>      <g fill="#2e3440" fill-opacity="1" stroke="#2e3440" stroke-opacity="1" stroke-width="1" stroke-linecap="square" stroke-linejoin="bevel" transform="matrix(0,-1,1,0,1,209.286)" font-family="MS Shell Dlg 2" font-size="14.25" font-weight="400" font-style="normal"  > <rect x="0" y="0" width="208.286" height="160"/> </g>      <g fill="#2e3440" fill-opacity="1" stroke="#2e3440" stroke-opacity="1" stroke-width="1" stroke-linecap="square" stroke-linejoin="bevel" transform="matrix(0,-1,1,0,1,176.571)" font-family="MS Shell Dlg 2" font-size="14.25" font-weight="400" font-style="normal"  > <rect x="0" y="0" width="175.571" height="40"/> </g>      <g fill="#2e3440" fill-opacity="1" stroke="#2e3440" stroke-opacity="1" stroke-width="1" stroke-linecap="square" stroke-linejoin="bevel" transform="matrix(0,-1,1,0,1,143.857)" font-family="MS Shell Dlg 2" font-size="14.25" font-weight="400" font-style="normal"  > <rect x="0" y="0" width="142.857" height="20"/> </g>      <g fill="#2e3440" fill-opacity="1" stroke="#2e3440" stroke-opacity="1" stroke-width="1" stroke-linecap="square" stroke-linejoin="bevel" transform="matrix(0,-1,1,0,21,143.857)" font-family="MS Shell Dlg 2" font-size="14.25" font-weight="400" font-style="normal"  > <rect x="0" y="0" width="142.857" height="20"/> </g>      <g fill="#2e3440" fill-opacity="1" stroke="#2e3440" stroke-opacity="1" stroke-width="1" stroke-linecap="square" stroke-linejoin="bevel" transform="matrix(0,-1,1,0,41,176.571)" font-family="MS Shell Dlg 2" font-size="14.25" font-weight="400" font-style="normal"  > <rect x="0" y="0" width="175.571" height="120"/> </g>      <g fill="#2e3440" fill-opacity="1" stroke="#2e3440" stroke-opacity="1" stroke-width="1" stroke-linecap="square" stroke-linejoin="bevel" transform="matrix(0,-1,1,0,41,143.857)" font-family="MS Shell Dlg 2" font-size="14.25" font-weight="400" font-style="normal"  > <rect x="0" y="0" width="142.857" height="80"/> </g>      <g fill="#2e3440" fill-opacity="1" stroke="#2e3440" stroke-opacity="1" stroke-width="1" stroke-linecap="square" stroke-linejoin="bevel" transform="matrix(0,-1,1,0,41,111.143)" font-family="MS Shell Dlg 2" font-size="14.25" font-weight="400" font-style="normal"  > <rect x="0" y="0" width="110.143" height="60"/> </g>      <g fill="#2e3440" fill-opacity="1" stroke="#2e3440" stroke-opacity="1" stroke-width="1" stroke-linecap="square" stroke-linejoin="bevel" transform="matrix(0,-1,1,0,41,78.4286)" font-family="MS Shell Dlg 2" font-size="14.25" font-weight="400" font-style="normal"  > <rect x="0" y="0" width="77.4286" height="20"/> </g>      <g fill="#2e3440" fill-opacity="1" stroke="#2e3440" stroke-opacity="1" stroke-width="1" stroke-linecap="square" stroke-linejoin="bevel" transform="matrix(0,-1,1,0,61,78.4286)" font-family="MS Shell Dlg 2" font-size="14.25" font-weight="400" font-style="normal"  > <rect x="0" y="0" width="77.4286" height="40"/> </g>      <g fill="#2e3440" fill-opacity="1" stroke="#2e3440" stroke-opacity="1" stroke-width="1" stroke-linecap="square" stroke-linejoin="bevel" transform="matrix(0,-1,1,0,61,45.7143)" font-family="MS Shell Dlg 2" font-size="14.25" font-weight="400" font-style="normal"  > <rect x="0" y="0" width="44.7143" height="20"/> </g>      <g fill="#2e3440" fill-opacity="1" stroke="#2e3440" stroke-opacity="1" stroke-width="1" stroke-linecap="square" stroke-linejoin="bevel" transform="matrix(0,-1,1,0,81,45.7143)" font-family="MS Shell Dlg 2" font-size="14.25" font-weight="400" font-style="normal"  > <rect x="0" y="0" width="44.7143" height="20"/> </g>      <g fill="#2e3440" fill-opacity="1" stroke="#2e3440" stroke-opacity="1" stroke-width="1" stroke-linecap="square" stroke-linejoin="bevel" transform="matrix(0,-1,1,0,101,111.143)" font-family="MS Shell Dlg 2" font-size="14.25" font-weight="400" font-style="normal"  > <rect x="0" y="0" width="110.143" height="20"/> </g>      <g fill="#2e3440" fill-opacity="1" stroke="#2e3440" stroke-opacity="1" stroke-width="1" stroke-linecap="square" stroke-linejoin="bevel" transform="matrix(0,-1,1,0,121,143.857)" font-family="MS Shell Dlg 2" font-size="14.25" font-weight="400" font-style="normal"  > <rect x="0" y="0" width="142.857" height="40"/> </g>      <g fill="#2e3440" fill-opacity="1" stroke="#2e3440" stroke-opacity="1" stroke-width="1" stroke-linecap="square" stroke-linejoin="bevel" transform="matrix(0,-1,1,0,121,111.143)" font-family="MS Shell Dlg 2" font-size="14.25" font-weight="400" font-style="normal"  > <rect x="0" y="0" width="110.143" height="20"/> </g>      <g fill="#2e3440" fill-opacity="1" stroke="#2e3440" stroke-opacity="1" stroke-width="1" stroke-linecap="square" stroke-linejoin="bevel" transform="matrix(0,-1,1,0,141,111.143)" font-family="MS Shell Dlg 2" font-size="14.25" font-weight="400" font-style="normal"  > <rect x="0" y="0" width="110.143" height="20"/> </g>      <g fill="#2e3440" fill-opacity="1" stroke="#2e3440" stroke-opacity="1" stroke-width="1" stroke-linecap="square" stroke-linejoin="bevel" transform="matrix(0,-1,1,0,161,238)" font-family="MS Shell Dlg 2" font-size="14.25" font-weight="400" font-style="normal"  > <rect x="0" y="0" width="237" height="160"/> </g>      <g fill="#2e3440" fill-opacity="1" stroke="#2e3440" stroke-opacity="1" stroke-width="1" stroke-linecap="square" stroke-linejoin="bevel" transform="matrix(0,-1,1,0,161,209.286)" font-family="MS Shell Dlg 2" font-size="14.25" font-weight="400" font-style="normal"  > <rect x="0" y="0" width="208.286" height="160"/> </g>      <g fill="#2e3440" fill-opacity="1" stroke="#2e3440" stroke-opacity="1" stroke-width="1" stroke-linecap="square" stroke-linejoin="bevel" transform="matrix(0,-1,1,0,161,176.571)" font-family="MS Shell Dlg 2" font-size="14.25" font-weight="400" font-style="normal"  > <rect x="0" y="0" width="175.571" height="60"/> </g>      <g fill="#2e3440" fill-opacity="1" stroke="#2e3440" stroke-opacity="1" stroke-width="1" stroke-linecap="square" stroke-linejoin="bevel" transform="matrix(0,-1,1,0,161,143.857)" font-family="MS Shell Dlg 2" font-size="14.25" font-weight="400" font-style="normal"  > <rect x="0" y="0" width="142.857" height="20"/> </g>      <g fill="#2e3440" fill-opacity="1" stroke="#2e3440" stroke-opacity="1" stroke-width="1" stroke-linecap="square" stroke-linejoin="bevel" transform="matrix(0,-1,1,0,181,143.857)" font-family="MS Shell Dlg 2" font-size="14.25" font-weight="400" font-style="normal"  > <rect x="0" y="0" width="142.857" height="40"/> </g>      <g fill="#2e3440" fill-opacity="1" stroke="#2e3440" stroke-opacity="1" stroke-width="1" stroke-linecap="square" stroke-linejoin="bevel" transform="matrix(0,-1,1,0,181,111.143)" font-family="MS Shell Dlg 2" font-size="14.25" font-weight="400" font-style="normal"  > <rect x="0" y="0" width="110.143" height="20"/> </g>      <g fill="#2e3440" fill-opacity="1" stroke="#2e3440" stroke-opacity="1" stroke-width="1" stroke-linecap="square" stroke-linejoin="bevel" transform="matrix(0,-1,1,0,201,111.143)" font-family="MS Shell Dlg 2" font-size="14.25" font-weight="400" font-style="normal"  > <rect x="0" y="0" width="110.143" height="20"/> </g>      <g fill="#2e3440" fill-opacity="1" stroke="#2e3440" stroke-opacity="1" stroke-width="1" stroke-linecap="square" stroke-linejoin="bevel" transform="matrix(0,-1,1,0,221,176.571)" font-family="MS Shell Dlg 2" font-size="14.25" font-weight="400" font-style="normal"  > <rect x="0" y="0" width="175.571" height="100"/> </g>      <g fill="#2e3440" fill-opacity="1" stroke="#2e3440" stroke-opacity="1" stroke-width="1" stroke-linecap="square" stroke-linejoin="bevel" transform="matrix(0,-1,1,0,221,143.857)" font-family="MS Shell Dlg 2" font-size="14.25" font-weight="400" font-style="normal"  > <rect x="0" y="0" width="142.857" height="60"/> </g>      <g fill="#2e3440" fill-opacity="1" stroke="#2e3440" stroke-opacity="1" stroke-width="1" stroke-linecap="square" stroke-linejoin="bevel" transform="matrix(0,-1,1,0,221,111.143)" font-family="MS Shell Dlg 2" font-size="14.25" font-weight="400" font-style="normal"  > <rect x="0" y="0" width="110.143" height="40"/> </g>      <g fill="#2e3440" fill-opacity="1" stroke="#2e3440" stroke-opacity="1" stroke-width="1" stroke-linecap="square" stroke-linejoin="bevel" transform="matrix(0,-1,1,0,221,78.4286)" font-family="MS Shell Dlg 2" font-size="14.25" font-weight="400" font-style="normal"  > <rect x="0" y="0" width="77.4286" height="20"/> </g>      <g fill="#2e3440" fill-opacity="1" stroke="#2e3440" stroke-opacity="1" stroke-width="1" stroke-linecap="square" stroke-linejoin="bevel" transform="matrix(0,-1,1,0,241,78.4286)" font-family="MS Shell Dlg 2" font-size="14.25" font-weight="400" font-style="normal"  > <rect x="0" y="0" width="77.4286" height="20"/> </g>      <g fill="#2e3440" fill-opacity="1" stroke="#2e3440" stroke-opacity="1" stroke-width="1" stroke-linecap="square" stroke-linejoin="bevel" transform="matrix(0,-1,1,0,261,111.143)" font-family="MS Shell Dlg 2" font-size="14.25" font-weight="400" font-style="normal"  > <rect x="0" y="0" width="110.143" height="20"/> </g>      <g fill="#2e3440" fill-opacity="1" stroke="#2e3440" stroke-opacity="1" stroke-width="1" stroke-linecap="square" stroke-linejoin="bevel" transform="matrix(0,-1,1,0,281,143.857)" font-family="MS Shell Dlg 2" font-size="14.25" font-weight="400" font-style="normal"  > <rect x="0" y="0" width="142.857" height="40"/> </g>      <g fill="#2e3440" fill-opacity="1" stroke="#2e3440" stroke-opacity="1" stroke-width="1" stroke-linecap="square" stroke-linejoin="bevel" transform="matrix(0,-1,1,0,281,111.143)" font-family="MS Shell Dlg 2" font-size="14.25" font-weight="400" font-style="normal"  > <rect x="0" y="0" width="110.143" height="20"/> </g>      <g fill="#2e3440" fill-opacity="1" stroke="#2e3440" stroke-opacity="1" stroke-width="1" stroke-linecap="square" stroke-linejoin="bevel" transform="matrix(0,-1,1,0,301,111.143)" font-family="MS Shell Dlg 2" font-size="14.25" font-weight="400" font-style="normal"  > <rect x="0" y="0" width="110.143" height="20"/> </g>                                                                                                                                          <g fill="none" stroke="#ffffff" stroke-opacity="1" stroke-width="4" stroke-linecap="butt" stroke-linejoin="bevel" transform="matrix(0,-1,1,0,1,245)" font-family="MS Shell Dlg 2" font-size="14.25" font-weight="400" font-style="normal"  > <polyline fill="none" vector-effect="none" points="5,64.875 5,233.25 " /> </g>                  <g fill="#000000" fill-opacity="1" stroke="#000000" stroke-opacity="1" stroke-width="1" stroke-linecap="square" stroke-linejoin="bevel" transform="matrix(0,-1,1,0,148.563,245)" font-family="MS Shell Dlg 2" font-size="14.25" font-weight="400" font-style="normal"  > <circle cx="1.5" cy="1.5" r="1.5"/> </g>                  <g fill="none" stroke="#ffffff" stroke-opacity="1" stroke-width="4" stroke-linecap="butt" stroke-linejoin="bevel" transform="matrix(0,-1,1,0,1,238)" font-family="MS Shell Dlg 2" font-size="14.25" font-weight="400" font-style="normal"  > <polyline fill="none" vector-effect="none" points="28.7143,64.875 28.7143,68.875 " /> </g>            <g fill="none" stroke="#ffffff" stroke-opacity="1" stroke-width="4" stroke-linecap="butt" stroke-linejoin="bevel" transform="matrix(0,-1,1,0,1,238)" font-family="MS Shell Dlg 2" font-size="14.25" font-weight="400" font-style="normal"  > <polyline fill="none" vector-effect="none" points="0,66.875 25.7143,66.875 " /> </g>      <g fill="#000000" fill-opacity="1" stroke="#000000" stroke-opacity="1" stroke-width="1" stroke-linecap="square" stroke-linejoin="bevel" transform="matrix(0,-1,1,0,66.375,212.286)" font-family="MS Shell Dlg 2" font-size="14.25" font-weight="400" font-style="normal"  > <circle cx="1.5" cy="1.5" r="1.5"/> </g>                  <g fill="none" stroke="#ffffff" stroke-opacity="1" stroke-width="4" stroke-linecap="butt" stroke-linejoin="bevel" transform="matrix(0,-1,1,0,1,209.286)" font-family="MS Shell Dlg 2" font-size="14.25" font-weight="400" font-style="normal"  > <polyline fill="none" vector-effect="none" points="30.7143,18 30.7143,115.75 " /> </g>            <g fill="none" stroke="#ffffff" stroke-opacity="1" stroke-width="4" stroke-linecap="butt" stroke-linejoin="bevel" transform="matrix(0,-1,1,0,1,209.286)" font-family="MS Shell Dlg 2" font-size="14.25" font-weight="400" font-style="normal"  > <polyline fill="none" vector-effect="none" points="0,66.875 25.7143,66.875 " /> </g>      <g fill="#000000" fill-opacity="1" stroke="#000000" stroke-opacity="1" stroke-width="1" stroke-linecap="square" stroke-linejoin="bevel" transform="matrix(0,-1,1,0,66.375,183.571)" font-family="MS Shell Dlg 2" font-size="14.25" font-weight="400" font-style="normal"  > <circle cx="1.5" cy="1.5" r="1.5"/> </g>                  <g fill="none" stroke="#ffffff" stroke-opacity="1" stroke-width="4" stroke-linecap="butt" stroke-linejoin="bevel" transform="matrix(0,-1,1,0,1,176.571)" font-family="MS Shell Dlg 2" font-size="14.25" font-weight="400" font-style="normal"  > <polyline fill="none" vector-effect="none" points="30.7143,8 30.7143,32 " /> </g>            <g fill="none" stroke="#ffffff" stroke-opacity="1" stroke-width="4" stroke-linecap="butt" stroke-linejoin="bevel" transform="matrix(0,-1,1,0,1,176.571)" font-family="MS Shell Dlg 2" font-size="14.25" font-weight="400" font-style="normal"  > <polyline fill="none" vector-effect="none" points="0,20 25.7143,20 " /> </g>      <g fill="#000000" fill-opacity="1" stroke="#000000" stroke-opacity="1" stroke-width="1" stroke-linecap="square" stroke-linejoin="bevel" transform="matrix(0,-1,1,0,19.5,150.857)" font-family="MS Shell Dlg 2" font-size="14.25" font-weight="400" font-style="normal"  > <circle cx="1.5" cy="1.5" r="1.5"/> </g>                        <g fill="none" stroke="#ffffff" stroke-opacity="1" stroke-width="4" stroke-linecap="butt" stroke-linejoin="bevel" transform="matrix(0,-1,1,0,1,143.857)" font-family="MS Shell Dlg 2" font-size="14.25" font-weight="400" font-style="normal"  > <polyline fill="none" vector-effect="none" points="0,10 102.857,10 " /> </g>      <g fill="#000000" fill-opacity="1" stroke="#000000" stroke-opacity="1" stroke-width="1" stroke-linecap="square" stroke-linejoin="bevel" transform="matrix(0,-1,1,0,9.5,41)" font-family="MS Shell Dlg 2" font-size="14.25" font-weight="400" font-style="normal"  > <circle cx="1.5" cy="1.5" r="1.5"/> </g>          <g fill="none" stroke="#ff0000" stroke-opacity="1" stroke-width="1" stroke-linecap="square" stroke-linejoin="bevel" transform="matrix(1,0,0,1,6.5,22)" font-family="Verdana" font-size="10pt" font-weight="400" font-style="normal"  > <text fill="#ff0000" fill-opacity="1" stroke="none" xml:space="preserve" x="0" y="13" font-family="Verdana" font-size="10pt" font-weight="400" font-style="normal"   >X</text> </g>                    <g fill="none" stroke="#ffffff" stroke-opacity="1" stroke-width="4" stroke-linecap="butt" stroke-linejoin="bevel" transform="matrix(0,-1,1,0,21,143.857)" font-family="MS Shell Dlg 2" font-size="14.25" font-weight="400" font-style="normal"  > <polyline fill="none" vector-effect="none" points="0,10 102.857,10 " /> </g>      <g fill="#000000" fill-opacity="1" stroke="#000000" stroke-opacity="1" stroke-width="1" stroke-linecap="square" stroke-linejoin="bevel" transform="matrix(0,-1,1,0,29.5,41)" font-family="MS Shell Dlg 2" font-size="14.25" font-weight="400" font-style="normal"  > <circle cx="1.5" cy="1.5" r="1.5"/> </g>          <g fill="none" stroke="#ff0000" stroke-opacity="1" stroke-width="1" stroke-linecap="square" stroke-linejoin="bevel" transform="matrix(1,0,0,1,26.5,22)" font-family="Verdana" font-size="10pt" font-weight="400" font-style="normal"  > <text fill="#ff0000" fill-opacity="1" stroke="none" xml:space="preserve" x="0" y="13" font-family="Verdana" font-size="10pt" font-weight="400" font-style="normal"   >X</text> </g>              <g fill="none" stroke="#ffffff" stroke-opacity="1" stroke-width="4" stroke-linecap="butt" stroke-linejoin="bevel" transform="matrix(0,-1,1,0,41,176.571)" font-family="MS Shell Dlg 2" font-size="14.25" font-weight="400" font-style="normal"  > <polyline fill="none" vector-effect="none" points="30.7143,45.5 30.7143,102 " /> </g>            <g fill="none" stroke="#ffffff" stroke-opacity="1" stroke-width="4" stroke-linecap="butt" stroke-linejoin="bevel" transform="matrix(0,-1,1,0,41,176.571)" font-family="MS Shell Dlg 2" font-size="14.25" font-weight="400" font-style="normal"  > <polyline fill="none" vector-effect="none" points="0,73.75 25.7143,73.75 " /> </g>      <g fill="#000000" fill-opacity="1" stroke="#000000" stroke-opacity="1" stroke-width="1" stroke-linecap="square" stroke-linejoin="bevel" transform="matrix(0,-1,1,0,113.25,150.857)" font-family="MS Shell Dlg 2" font-size="14.25" font-weight="400" font-style="normal"  > <circle cx="1.5" cy="1.5" r="1.5"/> </g>                  <g fill="none" stroke="#ffffff" stroke-opacity="1" stroke-width="4" stroke-linecap="butt" stroke-linejoin="bevel" transform="matrix(0,-1,1,0,41,143.857)" font-family="MS Shell Dlg 2" font-size="14.25" font-weight="400" font-style="normal"  > <polyline fill="none" vector-effect="none" points="30.7143,23 30.7143,72 " /> </g>            <g fill="none" stroke="#ffffff" stroke-opacity="1" stroke-width="4" stroke-linecap="butt" stroke-linejoin="bevel" transform="matrix(0,-1,1,0,41,143.857)" font-family="MS Shell Dlg 2" font-size="14.25" font-weight="400" font-style="normal"  > <polyline fill="none" vector-effect="none" points="0,47.5 25.7143,47.5 " /> </g>      <g fill="#000000" fill-opacity="1" stroke="#000000" stroke-opacity="1" stroke-width="1" stroke-linecap="square" stroke-linejoin="bevel" transform="matrix(0,-1,1,0,87,118.143)" font-family="MS Shell Dlg 2" font-size="14.25" font-weight="400" font-style="normal"  > <circle cx="1.5" cy="1.5" r="1.5"/> </g>                  <g fill="none" stroke="#ffffff" stroke-opacity="1" stroke-width="4" stroke-linecap="butt" stroke-linejoin="bevel" transform="matrix(0,-1,1,0,41,111.143)" font-family="MS Shell Dlg 2" font-size="14.25" font-weight="400" font-style="normal"  > <polyline fill="none" vector-effect="none" points="30.7143,8 30.7143,42 " /> </g>            <g fill="none" stroke="#ffffff" stroke-opacity="1" stroke-width="4" stroke-linecap="butt" stroke-linejoin="bevel" transform="matrix(0,-1,1,0,41,111.143)" font-family="MS Shell Dlg 2" font-size="14.25" font-weight="400" font-style="normal"  > <polyline fill="none" vector-effect="none" points="0,25 25.7143,25 " /> </g>      <g fill="#000000" fill-opacity="1" stroke="#000000" stroke-opacity="1" stroke-width="1" stroke-linecap="square" stroke-linejoin="bevel" transform="matrix(0,-1,1,0,64.5,85.4286)" font-family="MS Shell Dlg 2" font-size="14.25" font-weight="400" font-style="normal"  > <circle cx="1.5" cy="1.5" r="1.5"/> </g>                        <g fill="none" stroke="#ffffff" stroke-opacity="1" stroke-width="4" stroke-linecap="butt" stroke-linejoin="bevel" transform="matrix(0,-1,1,0,41,78.4286)" font-family="MS Shell Dlg 2" font-size="14.25" font-weight="400" font-style="normal"  > <polyline fill="none" vector-effect="none" points="0,10 51.4286,10 " /> </g>      <g fill="#000000" fill-opacity="1" stroke="#000000" stroke-opacity="1" stroke-width="1" stroke-linecap="square" stroke-linejoin="bevel" transform="matrix(0,-1,1,0,49.5,27)" font-family="MS Shell Dlg 2" font-size="14.25" font-weight="400" font-style="normal"  > <circle cx="1.5" cy="1.5" r="1.5"/> </g>          <g fill="none" stroke="#ff0000" stroke-opacity="1" stroke-width="1" stroke-linecap="square" stroke-linejoin="bevel" transform="matrix(1,0,0,1,46.5,8)" font-family="Verdana" font-size="10pt" font-weight="400" font-style="normal"  > <text fill="#ff0000" fill-opacity="1" stroke="none" xml:space="preserve" x="0" y="13" font-family="Verdana" font-size="10pt" font-weight="400" font-style="normal"   >X</text> </g>              <g fill="none" stroke="#ffffff" stroke-opacity="1" stroke-width="4" stroke-linecap="butt" stroke-linejoin="bevel" transform="matrix(0,-1,1,0,61,78.4286)" font-family="MS Shell Dlg 2" font-size="14.25" font-weight="400" font-style="normal"  > <polyline fill="none" vector-effect="none" points="30.7143,8 30.7143,32 " /> </g>            <g fill="none" stroke="#ffffff" stroke-opacity="1" stroke-width="4" stroke-linecap="butt" stroke-linejoin="bevel" transform="matrix(0,-1,1,0,61,78.4286)" font-family="MS Shell Dlg 2" font-size="14.25" font-weight="400" font-style="normal"  > <polyline fill="none" vector-effect="none" points="0,20 25.7143,20 " /> </g>      <g fill="#000000" fill-opacity="1" stroke="#000000" stroke-opacity="1" stroke-width="1" stroke-linecap="square" stroke-linejoin="bevel" transform="matrix(0,-1,1,0,79.5,52.7143)" font-family="MS Shell Dlg 2" font-size="14.25" font-weight="400" font-style="normal"  > <circle cx="1.5" cy="1.5" r="1.5"/> </g>                        <g fill="none" stroke="#ffffff" stroke-opacity="1" stroke-width="4" stroke-linecap="butt" stroke-linejoin="bevel" transform="matrix(0,-1,1,0,61,45.7143)" font-family="MS Shell Dlg 2" font-size="14.25" font-weight="400" font-style="normal"  > <polyline fill="none" vector-effect="none" points="0,10 25.7143,10 " /> </g>      <g fill="#000000" fill-opacity="1" stroke="#000000" stroke-opacity="1" stroke-width="1" stroke-linecap="square" stroke-linejoin="bevel" transform="matrix(0,-1,1,0,69.5,20)" font-family="MS Shell Dlg 2" font-size="14.25" font-weight="400" font-style="normal"  > <circle cx="1.5" cy="1.5" r="1.5"/> </g>          <g fill="none" stroke="#ff0000" stroke-opacity="1" stroke-width="1" stroke-linecap="square" stroke-linejoin="bevel" transform="matrix(1,0,0,1,66.5,1)" font-family="Verdana" font-size="10pt" font-weight="400" font-style="normal"  > <text fill="#ff0000" fill-opacity="1" stroke="none" xml:space="preserve" x="0" y="13" font-family="Verdana" font-size="10pt" font-weight="400" font-style="normal"   >X</text> </g>                    <g fill="none" stroke="#ffffff" stroke-opacity="1" stroke-width="4" stroke-linecap="butt" stroke-linejoin="bevel" transform="matrix(0,-1,1,0,81,45.7143)" font-family="MS Shell Dlg 2" font-size="14.25" font-weight="400" font-style="normal"  > <polyline fill="none" vector-effect="none" points="0,10 25.7143,10 " /> </g>      <g fill="#000000" fill-opacity="1" stroke="#000000" stroke-opacity="1" stroke-width="1" stroke-linecap="square" stroke-linejoin="bevel" transform="matrix(0,-1,1,0,89.5,20)" font-family="MS Shell Dlg 2" font-size="14.25" font-weight="400" font-style="normal"  > <circle cx="1.5" cy="1.5" r="1.5"/> </g>          <g fill="none" stroke="#ff0000" stroke-opacity="1" stroke-width="1" stroke-linecap="square" stroke-linejoin="bevel" transform="matrix(1,0,0,1,86.5,1)" font-family="Verdana" font-size="10pt" font-weight="400" font-style="normal"  > <text fill="#ff0000" fill-opacity="1" stroke="none" xml:space="preserve" x="0" y="13" font-family="Verdana" font-size="10pt" font-weight="400" font-style="normal"   >X</text> </g>                    <g fill="none" stroke="#ffffff" stroke-opacity="1" stroke-width="4" stroke-linecap="butt" stroke-linejoin="bevel" transform="matrix(0,-1,1,0,101,111.143)" font-family="MS Shell Dlg 2" font-size="14.25" font-weight="400" font-style="normal"  > <polyline fill="none" vector-effect="none" points="0,10 77.1429,10 " /> </g>      <g fill="#000000" fill-opacity="1" stroke="#000000" stroke-opacity="1" stroke-width="1" stroke-linecap="square" stroke-linejoin="bevel" transform="matrix(0,-1,1,0,109.5,34)" font-family="MS Shell Dlg 2" font-size="14.25" font-weight="400" font-style="normal"  > <circle cx="1.5" cy="1.5" r="1.5"/> </g>          <g fill="none" stroke="#ff0000" stroke-opacity="1" stroke-width="1" stroke-linecap="square" stroke-linejoin="bevel" transform="matrix(1,0,0,1,106.5,15)" font-family="Verdana" font-size="10pt" font-weight="400" font-style="normal"  > <text fill="#ff0000" fill-opacity="1" stroke="none" xml:space="preserve" x="0" y="13" font-family="Verdana" font-size="10pt" font-weight="400" font-style="normal"   >X</text> </g>              <g fill="none" stroke="#ffffff" stroke-opacity="1" stroke-width="4" stroke-linecap="butt" stroke-linejoin="bevel" transform="matrix(0,-1,1,0,121,143.857)" font-family="MS Shell Dlg 2" font-size="14.25" font-weight="400" font-style="normal"  > <polyline fill="none" vector-effect="none" points="30.7143,8 30.7143,32 " /> </g>            <g fill="none" stroke="#ffffff" stroke-opacity="1" stroke-width="4" stroke-linecap="butt" stroke-linejoin="bevel" transform="matrix(0,-1,1,0,121,143.857)" font-family="MS Shell Dlg 2" font-size="14.25" font-weight="400" font-style="normal"  > <polyline fill="none" vector-effect="none" points="0,20 25.7143,20 " /> </g>      <g fill="#000000" fill-opacity="1" stroke="#000000" stroke-opacity="1" stroke-width="1" stroke-linecap="square" stroke-linejoin="bevel" transform="matrix(0,-1,1,0,139.5,118.143)" font-family="MS Shell Dlg 2" font-size="14.25" font-weight="400" font-style="normal"  > <circle cx="1.5" cy="1.5" r="1.5"/> </g>                        <g fill="none" stroke="#ffffff" stroke-opacity="1" stroke-width="4" stroke-linecap="butt" stroke-linejoin="bevel" transform="matrix(0,-1,1,0,121,111.143)" font-family="MS Shell Dlg 2" font-size="14.25" font-weight="400" font-style="normal"  > <polyline fill="none" vector-effect="none" points="0,10 77.1429,10 " /> </g>      <g fill="#000000" fill-opacity="1" stroke="#000000" stroke-opacity="1" stroke-width="1" stroke-linecap="square" stroke-linejoin="bevel" transform="matrix(0,-1,1,0,129.5,34)" font-family="MS Shell Dlg 2" font-size="14.25" font-weight="400" font-style="normal"  > <circle cx="1.5" cy="1.5" r="1.5"/> </g>          <g fill="none" stroke="#ff0000" stroke-opacity="1" stroke-width="1" stroke-linecap="square" stroke-linejoin="bevel" transform="matrix(1,0,0,1,126.5,15)" font-family="Verdana" font-size="10pt" font-weight="400" font-style="normal"  > <text fill="#ff0000" fill-opacity="1" stroke="none" xml:space="preserve" x="0" y="13" font-family="Verdana" font-size="10pt" font-weight="400" font-style="normal"   >X</text> </g>                    <g fill="none" stroke="#ffffff" stroke-opacity="1" stroke-width="4" stroke-linecap="butt" stroke-linejoin="bevel" transform="matrix(0,-1,1,0,141,111.143)" font-family="MS Shell Dlg 2" font-size="14.25" font-weight="400" font-style="normal"  > <polyline fill="none" vector-effect="none" points="0,10 77.1429,10 " /> </g>      <g fill="#000000" fill-opacity="1" stroke="#000000" stroke-opacity="1" stroke-width="1" stroke-linecap="square" stroke-linejoin="bevel" transform="matrix(0,-1,1,0,149.5,34)" font-family="MS Shell Dlg 2" font-size="14.25" font-weight="400" font-style="normal"  > <circle cx="1.5" cy="1.5" r="1.5"/> </g>          <g fill="none" stroke="#ff0000" stroke-opacity="1" stroke-width="1" stroke-linecap="square" stroke-linejoin="bevel" transform="matrix(1,0,0,1,146.5,15)" font-family="Verdana" font-size="10pt" font-weight="400" font-style="normal"  > <text fill="#ff0000" fill-opacity="1" stroke="none" xml:space="preserve" x="0" y="13" font-family="Verdana" font-size="10pt" font-weight="400" font-style="normal"   >X</text> </g>              <g fill="none" stroke="#ffffff" stroke-opacity="1" stroke-width="4" stroke-linecap="butt" stroke-linejoin="bevel" transform="matrix(0,-1,1,0,161,238)" font-family="MS Shell Dlg 2" font-size="14.25" font-weight="400" font-style="normal"  > <polyline fill="none" vector-effect="none" points="28.7143,69.25 28.7143,73.25 " /> </g>            <g fill="none" stroke="#ffffff" stroke-opacity="1" stroke-width="4" stroke-linecap="butt" stroke-linejoin="bevel" transform="matrix(0,-1,1,0,161,238)" font-family="MS Shell Dlg 2" font-size="14.25" font-weight="400" font-style="normal"  > <polyline fill="none" vector-effect="none" points="0,71.25 25.7143,71.25 " /> </g>      <g fill="#000000" fill-opacity="1" stroke="#000000" stroke-opacity="1" stroke-width="1" stroke-linecap="square" stroke-linejoin="bevel" transform="matrix(0,-1,1,0,230.75,212.286)" font-family="MS Shell Dlg 2" font-size="14.25" font-weight="400" font-style="normal"  > <circle cx="1.5" cy="1.5" r="1.5"/> </g>                  <g fill="none" stroke="#ffffff" stroke-opacity="1" stroke-width="4" stroke-linecap="butt" stroke-linejoin="bevel" transform="matrix(0,-1,1,0,161,209.286)" font-family="MS Shell Dlg 2" font-size="14.25" font-weight="400" font-style="normal"  > <polyline fill="none" vector-effect="none" points="30.7143,23 30.7143,119.5 " /> </g>            <g fill="none" stroke="#ffffff" stroke-opacity="1" stroke-width="4" stroke-linecap="butt" stroke-linejoin="bevel" transform="matrix(0,-1,1,0,161,209.286)" font-family="MS Shell Dlg 2" font-size="14.25" font-weight="400" font-style="normal"  > <polyline fill="none" vector-effect="none" points="0,71.25 25.7143,71.25 " /> </g>      <g fill="#000000" fill-opacity="1" stroke="#000000" stroke-opacity="1" stroke-width="1" stroke-linecap="square" stroke-linejoin="bevel" transform="matrix(0,-1,1,0,230.75,183.571)" font-family="MS Shell Dlg 2" font-size="14.25" font-weight="400" font-style="normal"  > <circle cx="1.5" cy="1.5" r="1.5"/> </g>                  <g fill="none" stroke="#ffffff" stroke-opacity="1" stroke-width="4" stroke-linecap="butt" stroke-linejoin="bevel" transform="matrix(0,-1,1,0,161,176.571)" font-family="MS Shell Dlg 2" font-size="14.25" font-weight="400" font-style="normal"  > <polyline fill="none" vector-effect="none" points="30.7143,8 30.7143,42 " /> </g>            <g fill="none" stroke="#ffffff" stroke-opacity="1" stroke-width="4" stroke-linecap="butt" stroke-linejoin="bevel" transform="matrix(0,-1,1,0,161,176.571)" font-family="MS Shell Dlg 2" font-size="14.25" font-weight="400" font-style="normal"  > <polyline fill="none" vector-effect="none" points="0,25 25.7143,25 " /> </g>      <g fill="#000000" fill-opacity="1" stroke="#000000" stroke-opacity="1" stroke-width="1" stroke-linecap="square" stroke-linejoin="bevel" transform="matrix(0,-1,1,0,184.5,150.857)" font-family="MS Shell Dlg 2" font-size="14.25" font-weight="400" font-style="normal"  > <circle cx="1.5" cy="1.5" r="1.5"/> </g>                        <g fill="none" stroke="#ffffff" stroke-opacity="1" stroke-width="4" stroke-linecap="butt" stroke-linejoin="bevel" transform="matrix(0,-1,1,0,161,143.857)" font-family="MS Shell Dlg 2" font-size="14.25" font-weight="400" font-style="normal"  > <polyline fill="none" vector-effect="none" points="0,10 102.857,10 " /> </g>      <g fill="#000000" fill-opacity="1" stroke="#000000" stroke-opacity="1" stroke-width="1" stroke-linecap="square" stroke-linejoin="bevel" transform="matrix(0,-1,1,0,169.5,41)" font-family="MS Shell Dlg 2" font-size="14.25" font-weight="400" font-style="normal"  > <circle cx="1.5" cy="1.5" r="1.5"/> </g>          <g fill="none" stroke="#008000" stroke-opacity="1" stroke-width="1" stroke-linecap="square" stroke-linejoin="bevel" transform="matrix(1,0,0,1,166.5,22)" font-family="Verdana" font-size="10pt" font-weight="400" font-style="normal"  > <text fill="#008000" fill-opacity="1" stroke="none" xml:space="preserve" x="0" y="13" font-family="Verdana" font-size="10pt" font-weight="400" font-style="normal"   >Y</text> </g>              <g fill="none" stroke="#ffffff" stroke-opacity="1" stroke-width="4" stroke-linecap="butt" stroke-linejoin="bevel" transform="matrix(0,-1,1,0,181,143.857)" font-family="MS Shell Dlg 2" font-size="14.25" font-weight="400" font-style="normal"  > <polyline fill="none" vector-effect="none" points="30.7143,8 30.7143,32 " /> </g>            <g fill="none" stroke="#ffffff" stroke-opacity="1" stroke-width="4" stroke-linecap="butt" stroke-linejoin="bevel" transform="matrix(0,-1,1,0,181,143.857)" font-family="MS Shell Dlg 2" font-size="14.25" font-weight="400" font-style="normal"  > <polyline fill="none" vector-effect="none" points="0,20 25.7143,20 " /> </g>      <g fill="#000000" fill-opacity="1" stroke="#000000" stroke-opacity="1" stroke-width="1" stroke-linecap="square" stroke-linejoin="bevel" transform="matrix(0,-1,1,0,199.5,118.143)" font-family="MS Shell Dlg 2" font-size="14.25" font-weight="400" font-style="normal"  > <circle cx="1.5" cy="1.5" r="1.5"/> </g>                        <g fill="none" stroke="#ffffff" stroke-opacity="1" stroke-width="4" stroke-linecap="butt" stroke-linejoin="bevel" transform="matrix(0,-1,1,0,181,111.143)" font-family="MS Shell Dlg 2" font-size="14.25" font-weight="400" font-style="normal"  > <polyline fill="none" vector-effect="none" points="0,10 77.1429,10 " /> </g>      <g fill="#000000" fill-opacity="1" stroke="#000000" stroke-opacity="1" stroke-width="1" stroke-linecap="square" stroke-linejoin="bevel" transform="matrix(0,-1,1,0,189.5,34)" font-family="MS Shell Dlg 2" font-size="14.25" font-weight="400" font-style="normal"  > <circle cx="1.5" cy="1.5" r="1.5"/> </g>          <g fill="none" stroke="#008000" stroke-opacity="1" stroke-width="1" stroke-linecap="square" stroke-linejoin="bevel" transform="matrix(1,0,0,1,186.5,15)" font-family="Verdana" font-size="10pt" font-weight="400" font-style="normal"  > <text fill="#008000" fill-opacity="1" stroke="none" xml:space="preserve" x="0" y="13" font-family="Verdana" font-size="10pt" font-weight="400" font-style="normal"   >Y</text> </g>                    <g fill="none" stroke="#ffffff" stroke-opacity="1" stroke-width="4" stroke-linecap="butt" stroke-linejoin="bevel" transform="matrix(0,-1,1,0,201,111.143)" font-family="MS Shell Dlg 2" font-size="14.25" font-weight="400" font-style="normal"  > <polyline fill="none" vector-effect="none" points="0,10 77.1429,10 " /> </g>      <g fill="#000000" fill-opacity="1" stroke="#000000" stroke-opacity="1" stroke-width="1" stroke-linecap="square" stroke-linejoin="bevel" transform="matrix(0,-1,1,0,209.5,34)" font-family="MS Shell Dlg 2" font-size="14.25" font-weight="400" font-style="normal"  > <circle cx="1.5" cy="1.5" r="1.5"/> </g>          <g fill="none" stroke="#008000" stroke-opacity="1" stroke-width="1" stroke-linecap="square" stroke-linejoin="bevel" transform="matrix(1,0,0,1,206.5,15)" font-family="Verdana" font-size="10pt" font-weight="400" font-style="normal"  > <text fill="#008000" fill-opacity="1" stroke="none" xml:space="preserve" x="0" y="13" font-family="Verdana" font-size="10pt" font-weight="400" font-style="normal"   >Y</text> </g>              <g fill="none" stroke="#ffffff" stroke-opacity="1" stroke-width="4" stroke-linecap="butt" stroke-linejoin="bevel" transform="matrix(0,-1,1,0,221,176.571)" font-family="MS Shell Dlg 2" font-size="14.25" font-weight="400" font-style="normal"  > <polyline fill="none" vector-effect="none" points="30.7143,33 30.7143,82 " /> </g>            <g fill="none" stroke="#ffffff" stroke-opacity="1" stroke-width="4" stroke-linecap="butt" stroke-linejoin="bevel" transform="matrix(0,-1,1,0,221,176.571)" font-family="MS Shell Dlg 2" font-size="14.25" font-weight="400" font-style="normal"  > <polyline fill="none" vector-effect="none" points="0,57.5 25.7143,57.5 " /> </g>      <g fill="#000000" fill-opacity="1" stroke="#000000" stroke-opacity="1" stroke-width="1" stroke-linecap="square" stroke-linejoin="bevel" transform="matrix(0,-1,1,0,277,150.857)" font-family="MS Shell Dlg 2" font-size="14.25" font-weight="400" font-style="normal"  > <circle cx="1.5" cy="1.5" r="1.5"/> </g>                  <g fill="none" stroke="#ffffff" stroke-opacity="1" stroke-width="4" stroke-linecap="butt" stroke-linejoin="bevel" transform="matrix(0,-1,1,0,221,143.857)" font-family="MS Shell Dlg 2" font-size="14.25" font-weight="400" font-style="normal"  > <polyline fill="none" vector-effect="none" points="30.7143,18 30.7143,52 " /> </g>            <g fill="none" stroke="#ffffff" stroke-opacity="1" stroke-width="4" stroke-linecap="butt" stroke-linejoin="bevel" transform="matrix(0,-1,1,0,221,143.857)" font-family="MS Shell Dlg 2" font-size="14.25" font-weight="400" font-style="normal"  > <polyline fill="none" vector-effect="none" points="0,35 25.7143,35 " /> </g>      <g fill="#000000" fill-opacity="1" stroke="#000000" stroke-opacity="1" stroke-width="1" stroke-linecap="square" stroke-linejoin="bevel" transform="matrix(0,-1,1,0,254.5,118.143)" font-family="MS Shell Dlg 2" font-size="14.25" font-weight="400" font-style="normal"  > <circle cx="1.5" cy="1.5" r="1.5"/> </g>                  <g fill="none" stroke="#ffffff" stroke-opacity="1" stroke-width="4" stroke-linecap="butt" stroke-linejoin="bevel" transform="matrix(0,-1,1,0,221,111.143)" font-family="MS Shell Dlg 2" font-size="14.25" font-weight="400" font-style="normal"  > <polyline fill="none" vector-effect="none" points="30.7143,8 30.7143,32 " /> </g>            <g fill="none" stroke="#ffffff" stroke-opacity="1" stroke-width="4" stroke-linecap="butt" stroke-linejoin="bevel" transform="matrix(0,-1,1,0,221,111.143)" font-family="MS Shell Dlg 2" font-size="14.25" font-weight="400" font-style="normal"  > <polyline fill="none" vector-effect="none" points="0,20 25.7143,20 " /> </g>      <g fill="#000000" fill-opacity="1" stroke="#000000" stroke-opacity="1" stroke-width="1" stroke-linecap="square" stroke-linejoin="bevel" transform="matrix(0,-1,1,0,239.5,85.4286)" font-family="MS Shell Dlg 2" font-size="14.25" font-weight="400" font-style="normal"  > <circle cx="1.5" cy="1.5" r="1.5"/> </g>                        <g fill="none" stroke="#ffffff" stroke-opacity="1" stroke-width="4" stroke-linecap="butt" stroke-linejoin="bevel" transform="matrix(0,-1,1,0,221,78.4286)" font-family="MS Shell Dlg 2" font-size="14.25" font-weight="400" font-style="normal"  > <polyline fill="none" vector-effect="none" points="0,10 51.4286,10 " /> </g>      <g fill="#000000" fill-opacity="1" stroke="#000000" stroke-opacity="1" stroke-width="1" stroke-linecap="square" stroke-linejoin="bevel" transform="matrix(0,-1,1,0,229.5,27)" font-family="MS Shell Dlg 2" font-size="14.25" font-weight="400" font-style="normal"  > <circle cx="1.5" cy="1.5" r="1.5"/> </g>          <g fill="none" stroke="#008000" stroke-opacity="1" stroke-width="1" stroke-linecap="square" stroke-linejoin="bevel" transform="matrix(1,0,0,1,226.5,8)" font-family="Verdana" font-size="10pt" font-weight="400" font-style="normal"  > <text fill="#008000" fill-opacity="1" stroke="none" xml:space="preserve" x="0" y="13" font-family="Verdana" font-size="10pt" font-weight="400" font-style="normal"   >Y</text> </g>                    <g fill="none" stroke="#ffffff" stroke-opacity="1" stroke-width="4" stroke-linecap="butt" stroke-linejoin="bevel" transform="matrix(0,-1,1,0,241,78.4286)" font-family="MS Shell Dlg 2" font-size="14.25" font-weight="400" font-style="normal"  > <polyline fill="none" vector-effect="none" points="0,10 51.4286,10 " /> </g>      <g fill="#000000" fill-opacity="1" stroke="#000000" stroke-opacity="1" stroke-width="1" stroke-linecap="square" stroke-linejoin="bevel" transform="matrix(0,-1,1,0,249.5,27)" font-family="MS Shell Dlg 2" font-size="14.25" font-weight="400" font-style="normal"  > <circle cx="1.5" cy="1.5" r="1.5"/> </g>          <g fill="none" stroke="#008000" stroke-opacity="1" stroke-width="1" stroke-linecap="square" stroke-linejoin="bevel" transform="matrix(1,0,0,1,246.5,8)" font-family="Verdana" font-size="10pt" font-weight="400" font-style="normal"  > <text fill="#008000" fill-opacity="1" stroke="none" xml:space="preserve" x="0" y="13" font-family="Verdana" font-size="10pt" font-weight="400" font-style="normal"   >Y</text> </g>                    <g fill="none" stroke="#ffffff" stroke-opacity="1" stroke-width="4" stroke-linecap="butt" stroke-linejoin="bevel" transform="matrix(0,-1,1,0,261,111.143)" font-family="MS Shell Dlg 2" font-size="14.25" font-weight="400" font-style="normal"  > <polyline fill="none" vector-effect="none" points="0,10 77.1429,10 " /> </g>      <g fill="#000000" fill-opacity="1" stroke="#000000" stroke-opacity="1" stroke-width="1" stroke-linecap="square" stroke-linejoin="bevel" transform="matrix(0,-1,1,0,269.5,34)" font-family="MS Shell Dlg 2" font-size="14.25" font-weight="400" font-style="normal"  > <circle cx="1.5" cy="1.5" r="1.5"/> </g>          <g fill="none" stroke="#008000" stroke-opacity="1" stroke-width="1" stroke-linecap="square" stroke-linejoin="bevel" transform="matrix(1,0,0,1,266.5,15)" font-family="Verdana" font-size="10pt" font-weight="400" font-style="normal"  > <text fill="#008000" fill-opacity="1" stroke="none" xml:space="preserve" x="0" y="13" font-family="Verdana" font-size="10pt" font-weight="400" font-style="normal"   >Y</text> </g>              <g fill="none" stroke="#ffffff" stroke-opacity="1" stroke-width="4" stroke-linecap="butt" stroke-linejoin="bevel" transform="matrix(0,-1,1,0,281,143.857)" font-family="MS Shell Dlg 2" font-size="14.25" font-weight="400" font-style="normal"  > <polyline fill="none" vector-effect="none" points="30.7143,8 30.7143,32 " /> </g>            <g fill="none" stroke="#ffffff" stroke-opacity="1" stroke-width="4" stroke-linecap="butt" stroke-linejoin="bevel" transform="matrix(0,-1,1,0,281,143.857)" font-family="MS Shell Dlg 2" font-size="14.25" font-weight="400" font-style="normal"  > <polyline fill="none" vector-effect="none" points="0,20 25.7143,20 " /> </g>      <g fill="#000000" fill-opacity="1" stroke="#000000" stroke-opacity="1" stroke-width="1" stroke-linecap="square" stroke-linejoin="bevel" transform="matrix(0,-1,1,0,299.5,118.143)" font-family="MS Shell Dlg 2" font-size="14.25" font-weight="400" font-style="normal"  > <circle cx="1.5" cy="1.5" r="1.5"/> </g>                        <g fill="none" stroke="#ffffff" stroke-opacity="1" stroke-width="4" stroke-linecap="butt" stroke-linejoin="bevel" transform="matrix(0,-1,1,0,281,111.143)" font-family="MS Shell Dlg 2" font-size="14.25" font-weight="400" font-style="normal"  > <polyline fill="none" vector-effect="none" points="0,10 77.1429,10 " /> </g>      <g fill="#000000" fill-opacity="1" stroke="#000000" stroke-opacity="1" stroke-width="1" stroke-linecap="square" stroke-linejoin="bevel" transform="matrix(0,-1,1,0,289.5,34)" font-family="MS Shell Dlg 2" font-size="14.25" font-weight="400" font-style="normal"  > <circle cx="1.5" cy="1.5" r="1.5"/> </g>          <g fill="none" stroke="#008000" stroke-opacity="1" stroke-width="1" stroke-linecap="square" stroke-linejoin="bevel" transform="matrix(1,0,0,1,286.5,15)" font-family="Verdana" font-size="10pt" font-weight="400" font-style="normal"  > <text fill="#008000" fill-opacity="1" stroke="none" xml:space="preserve" x="0" y="13" font-family="Verdana" font-size="10pt" font-weight="400" font-style="normal"   >Y</text> </g>                    <g fill="none" stroke="#ffffff" stroke-opacity="1" stroke-width="4" stroke-linecap="butt" stroke-linejoin="bevel" transform="matrix(0,-1,1,0,301,111.143)" font-family="MS Shell Dlg 2" font-size="14.25" font-weight="400" font-style="normal"  > <polyline fill="none" vector-effect="none" points="0,10 77.1429,10 " /> </g>      <g fill="#000000" fill-opacity="1" stroke="#000000" stroke-opacity="1" stroke-width="1" stroke-linecap="square" stroke-linejoin="bevel" transform="matrix(0,-1,1,0,309.5,34)" font-family="MS Shell Dlg 2" font-size="14.25" font-weight="400" font-style="normal"  > <circle cx="1.5" cy="1.5" r="1.5"/> </g>          <g fill="none" stroke="#008000" stroke-opacity="1" stroke-width="1" stroke-linecap="square" stroke-linejoin="bevel" transform="matrix(1,0,0,1,306.5,15)" font-family="Verdana" font-size="10pt" font-weight="400" font-style="normal"  > <text fill="#008000" fill-opacity="1" stroke="none" xml:space="preserve" x="0" y="13" font-family="Verdana" font-size="10pt" font-weight="400" font-style="normal"   >Y</text> </g>                                                                                                                                                 </g> </svg> 